<svg width="634" height="100" fill="none" xmlns="http://www.w3.org/2000/svg"><rect x=".543" y=".568" width="632.73" height="98.864" rx="15.379" fill="#fff"/><rect x="24.71" y="13.75" width="354.812" height="72.5" rx="36.25" fill="#ECEDF1"/><rect x="551.357" y="18.222" width="65.321" height="65.321" rx="14.123" fill="#F1F1F3"/><path d="M59.724 45.972h-1.167V43.67c0-3.176-2.614-5.754-5.836-5.754-3.22 0-5.835 2.578-5.835 5.754v2.302h-1.167c-1.284 0-2.335 1.036-2.335 2.302v11.508c0 1.265 1.05 2.301 2.335 2.301h14.005c1.284 0 2.335-1.036 2.335-2.301V48.273c0-1.266-1.05-2.302-2.335-2.302zm-7.003 10.357c-1.283 0-2.334-1.036-2.334-2.301 0-1.266 1.05-2.302 2.334-2.302s2.335 1.036 2.335 2.302c0 1.265-1.05 2.301-2.335 2.301zM49.22 45.972V43.67c0-1.91 1.564-3.452 3.501-3.452 1.938 0 3.502 1.542 3.502 3.452v2.302H49.22zm27.097 1.126v17.298h-2.495V44.309h2.28l.215 2.789zm9.775 4.345v.281a10.96 10.96 0 01-.376 2.937c-.25.894-.616 1.672-1.1 2.333a5.003 5.003 0 01-1.756 1.542c-.697.367-1.497.55-2.4.55-.92 0-1.734-.152-2.44-.456a4.814 4.814 0 01-1.797-1.328c-.492-.58-.885-1.278-1.18-2.091-.287-.814-.483-1.73-.59-2.75V50.96c.107-1.073.308-2.034.603-2.883.295-.85.684-1.573 1.167-2.172a4.79 4.79 0 011.783-1.382c.697-.321 1.502-.482 2.414-.482.912 0 1.72.178 2.427.536.706.349 1.3.85 1.783 1.502.483.652.845 1.435 1.086 2.346.25.903.376 1.91.376 3.018zm-2.494.281v-.281c0-.724-.076-1.404-.228-2.039a5.15 5.15 0 00-.71-1.69 3.386 3.386 0 00-1.208-1.152c-.491-.286-1.077-.43-1.756-.43-.626 0-1.171.108-1.636.322a3.537 3.537 0 00-1.167.872 4.63 4.63 0 00-.791 1.234 7.1 7.1 0 00-.443 1.421v3.473c.18.626.43 1.216.751 1.77.322.545.751.988 1.288 1.328.536.33 1.211.496 2.025.496.67 0 1.246-.139 1.73-.416a3.502 3.502 0 001.206-1.167 5.318 5.318 0 00.71-1.69 8.906 8.906 0 00.229-2.05zm5.825 0v-.308c0-1.046.152-2.016.456-2.91a6.913 6.913 0 011.314-2.347 5.862 5.862 0 012.079-1.555c.813-.376 1.725-.563 2.735-.563 1.02 0 1.936.187 2.75.563a5.831 5.831 0 012.091 1.555 6.797 6.797 0 011.328 2.347 9.01 9.01 0 01.455 2.91v.308a9.01 9.01 0 01-.455 2.91 6.966 6.966 0 01-1.328 2.347 6.082 6.082 0 01-2.079 1.555c-.804.367-1.716.55-2.735.55-1.02 0-1.935-.183-2.749-.55a6.222 6.222 0 01-2.092-1.555 7.088 7.088 0 01-1.314-2.347c-.304-.894-.456-1.864-.456-2.91zm2.481-.308v.308c0 .724.085 1.408.255 2.052a5.4 5.4 0 00.764 1.69c.349.491.782.88 1.3 1.166.52.277 1.123.416 1.811.416.68 0 1.274-.139 1.783-.416a3.743 3.743 0 001.288-1.167c.34-.491.594-1.054.764-1.69a7.63 7.63 0 00.268-2.05v-.31c0-.714-.089-1.39-.268-2.024a5.215 5.215 0 00-.778-1.703c-.34-.5-.768-.894-1.287-1.18-.51-.286-1.108-.43-1.797-.43-.68 0-1.278.144-1.797.43-.51.286-.938.68-1.287 1.18a5.384 5.384 0 00-.764 1.703 7.802 7.802 0 00-.255 2.025zm20.737-7.107v1.904h-7.845v-1.904h7.845zm-5.19-3.527h2.481v14.442c0 .492.076.863.228 1.113.152.25.349.416.59.496.241.08.501.12.778.12.205 0 .42-.017.643-.053.233-.044.407-.08.523-.107l.014 2.025c-.197.062-.456.12-.778.174a5.923 5.923 0 01-1.14.094c-.608 0-1.166-.12-1.676-.362-.51-.241-.916-.644-1.22-1.207-.295-.572-.443-1.34-.443-2.306V40.782zm7.998 10.942v-.308c0-1.046.152-2.016.456-2.91a6.917 6.917 0 011.314-2.347 5.859 5.859 0 012.079-1.555c.813-.376 1.725-.563 2.735-.563 1.019 0 1.935.187 2.749.563.822.366 1.52.885 2.092 1.555a6.795 6.795 0 011.327 2.347c.304.894.456 1.864.456 2.91v.308c0 1.046-.152 2.016-.456 2.91a6.964 6.964 0 01-1.327 2.347 6.079 6.079 0 01-2.079 1.555c-.804.367-1.716.55-2.735.55s-1.936-.183-2.749-.55a6.216 6.216 0 01-2.092-1.555 7.092 7.092 0 01-1.314-2.347c-.304-.894-.456-1.864-.456-2.91zm2.481-.308v.308c0 .724.085 1.408.255 2.052.169.635.424 1.198.764 1.69.349.491.782.88 1.301 1.166.518.277 1.122.416 1.81.416.679 0 1.274-.139 1.783-.416a3.743 3.743 0 001.288-1.167 5.418 5.418 0 00.764-1.69 7.627 7.627 0 00.268-2.05v-.31c0-.714-.089-1.39-.268-2.024a5.21 5.21 0 00-.778-1.703c-.34-.5-.769-.894-1.287-1.18-.51-.286-1.109-.43-1.797-.43-.679 0-1.278.144-1.797.43-.509.286-.938.68-1.287 1.18a5.36 5.36 0 00-.764 1.703 7.798 7.798 0 00-.255 2.025zm17.156-13.195v20.597h-2.494V38.22h2.494zm8.864 6.088l-6.329 6.772-3.541 3.674-.201-2.642 2.535-3.03 4.505-4.774h3.031zm-2.266 14.509l-5.176-6.92 1.287-2.212 6.812 9.132h-2.923zm14.783-14.51h2.252V58.51c0 1.279-.259 2.37-.777 3.272a5.068 5.068 0 01-2.173 2.052c-.921.474-1.984.71-3.191.71-.501 0-1.091-.08-1.77-.24a7.136 7.136 0 01-1.985-.792 4.963 4.963 0 01-1.622-1.488l1.3-1.476c.608.734 1.243 1.243 1.905 1.53a5.04 5.04 0 001.984.428c.787 0 1.466-.147 2.038-.442a3.09 3.09 0 001.328-1.314c.322-.572.483-1.279.483-2.119V47.5l.228-3.191zm-9.99 7.416v-.281c0-1.109.129-2.115.388-3.017.269-.912.649-1.695 1.14-2.347a5.121 5.121 0 011.81-1.502c.707-.358 1.502-.536 2.387-.536.912 0 1.708.16 2.387.482a4.58 4.58 0 011.743 1.382c.483.599.863 1.323 1.14 2.172.277.85.47 1.81.577 2.883v1.234c-.099 1.063-.291 2.02-.577 2.87-.277.848-.657 1.572-1.14 2.172a4.758 4.758 0 01-1.743 1.38c-.688.313-1.493.47-2.413.47-.868 0-1.654-.183-2.361-.55a5.37 5.37 0 01-1.796-1.542c-.501-.661-.885-1.44-1.154-2.333a10.614 10.614 0 01-.388-2.937zm2.48-.281v.281c0 .724.072 1.404.215 2.038.152.635.38 1.194.684 1.677.313.482.71.862 1.193 1.14.483.268 1.059.402 1.73.402.822 0 1.502-.175 2.038-.523a3.781 3.781 0 001.274-1.381 7.979 7.979 0 00.751-1.864V49.98a6.553 6.553 0 00-.456-1.421 4.382 4.382 0 00-.778-1.234 3.36 3.36 0 00-1.166-.872c-.465-.214-1.01-.321-1.636-.321-.68 0-1.265.143-1.757.429-.483.277-.88.661-1.193 1.153a5.532 5.532 0 00-.684 1.69 9.258 9.258 0 00-.215 2.038zm13.697.281v-.308c0-1.046.152-2.016.456-2.91a6.917 6.917 0 011.314-2.347 5.859 5.859 0 012.079-1.555c.813-.376 1.725-.563 2.735-.563 1.019 0 1.935.187 2.749.563.822.366 1.52.885 2.092 1.555a6.795 6.795 0 011.327 2.347c.304.894.456 1.864.456 2.91v.308c0 1.046-.152 2.016-.456 2.91a6.964 6.964 0 01-1.327 2.347A6.079 6.079 0 01172 58.536c-.804.367-1.716.55-2.735.55s-1.936-.183-2.749-.55a6.216 6.216 0 01-2.092-1.555 7.092 7.092 0 01-1.314-2.347c-.304-.894-.456-1.864-.456-2.91zm2.481-.308v.308c0 .724.085 1.408.255 2.052.169.635.424 1.198.764 1.69.349.491.782.88 1.301 1.166.518.277 1.122.416 1.81.416.679 0 1.274-.139 1.783-.416a3.743 3.743 0 001.288-1.167 5.418 5.418 0 00.764-1.69 7.627 7.627 0 00.268-2.05v-.31c0-.714-.089-1.39-.268-2.024a5.21 5.21 0 00-.778-1.703c-.34-.5-.769-.894-1.287-1.18-.51-.286-1.109-.43-1.797-.43-.679 0-1.278.144-1.797.43-.509.286-.938.68-1.287 1.18a5.36 5.36 0 00-.764 1.703 7.798 7.798 0 00-.255 2.025zm14.702 6.088c0-.42.13-.774.389-1.06.268-.295.653-.442 1.153-.442.501 0 .881.147 1.14.442.268.286.402.64.402 1.06 0 .41-.134.76-.402 1.046-.259.286-.639.429-1.14.429-.5 0-.885-.143-1.153-.43a1.503 1.503 0 01-.389-1.045zm10.506-10.915v12.229h-2.481v-14.51h2.414l.067 2.28zm4.532-2.36l-.013 2.306a3.595 3.595 0 00-.59-.08 6.278 6.278 0 00-.617-.027c-.572 0-1.077.089-1.515.268a3.12 3.12 0 00-1.113.75 3.617 3.617 0 00-.725 1.154 5.59 5.59 0 00-.335 1.448l-.697.402c0-.876.085-1.698.255-2.467a6.682 6.682 0 01.818-2.038 4 4 0 011.394-1.395c.572-.34 1.252-.51 2.038-.51.179 0 .385.023.617.068.233.036.394.076.483.12zm11.994 11.236V44.31h2.494v14.509h-2.374l-.12-3.353zm.469-3.057l1.033-.027c0 .966-.103 1.86-.309 2.682-.196.814-.518 1.52-.965 2.119a4.568 4.568 0 01-1.757 1.408c-.724.33-1.605.496-2.641.496a5.875 5.875 0 01-1.945-.308 3.885 3.885 0 01-1.502-.953c-.42-.429-.746-.987-.979-1.676-.223-.688-.335-1.515-.335-2.48v-9.36h2.481v9.386c0 .653.071 1.194.214 1.623.152.42.354.755.604 1.006.259.241.545.41.858.51.322.097.653.147.992.147 1.055 0 1.891-.202 2.508-.604a3.436 3.436 0 001.327-1.65c.278-.696.416-1.47.416-2.319z" fill="#000"/><path d="M222.604 39.294l-8.14 21.2h-2.132l8.153-21.2h2.119zm12.677 16.708v-17.78h2.495v20.596h-2.28l-.215-2.816zm-9.761-4.278v-.281c0-1.109.134-2.115.402-3.017.277-.912.666-1.695 1.166-2.347a5.277 5.277 0 011.811-1.502c.706-.358 1.493-.536 2.36-.536.912 0 1.707.16 2.387.482a4.596 4.596 0 011.743 1.382c.482.599.862 1.323 1.14 2.172.277.85.469 1.81.576 2.883v1.234c-.098 1.063-.29 2.02-.576 2.87-.278.848-.658 1.572-1.14 2.172a4.774 4.774 0 01-1.743 1.38c-.689.313-1.493.47-2.414.47a4.988 4.988 0 01-2.333-.55 5.508 5.508 0 01-1.811-1.542c-.5-.661-.889-1.44-1.166-2.333a10.28 10.28 0 01-.402-2.937zm2.494-.281v.281c0 .724.071 1.404.214 2.038.152.635.385 1.194.697 1.677.313.482.711.862 1.194 1.14.483.268 1.059.402 1.73.402.822 0 1.497-.175 2.025-.523a3.903 3.903 0 001.287-1.381 7.979 7.979 0 00.751-1.864V49.98a7.188 7.188 0 00-.47-1.421 4.38 4.38 0 00-.777-1.234 3.363 3.363 0 00-1.167-.872c-.456-.214-.997-.321-1.622-.321-.68 0-1.265.143-1.757.429a3.422 3.422 0 00-1.194 1.153 5.353 5.353 0 00-.697 1.69 9.26 9.26 0 00-.214 2.038zm13.79.281v-.308c0-1.046.152-2.016.456-2.91a6.917 6.917 0 011.314-2.347 5.859 5.859 0 012.079-1.555c.813-.376 1.725-.563 2.735-.563 1.019 0 1.936.187 2.749.563.823.366 1.52.885 2.092 1.555a6.797 6.797 0 011.328 2.347 9.01 9.01 0 01.455 2.91v.308a9.01 9.01 0 01-.455 2.91 6.966 6.966 0 01-1.328 2.347 6.085 6.085 0 01-2.078 1.555c-.805.367-1.717.55-2.736.55-1.019 0-1.935-.183-2.749-.55a6.226 6.226 0 01-2.092-1.555 7.092 7.092 0 01-1.314-2.347c-.304-.894-.456-1.864-.456-2.91zm2.481-.308v.308c0 .724.085 1.408.255 2.052a5.4 5.4 0 00.764 1.69c.349.491.782.88 1.301 1.166.518.277 1.122.416 1.81.416.679 0 1.274-.139 1.784-.416a3.75 3.75 0 001.287-1.167 5.418 5.418 0 00.764-1.69 7.627 7.627 0 00.268-2.05v-.31c0-.714-.089-1.39-.268-2.024a5.21 5.21 0 00-.778-1.703 3.685 3.685 0 00-1.287-1.18c-.509-.286-1.108-.43-1.797-.43-.679 0-1.278.144-1.797.43-.509.286-.938.68-1.287 1.18a5.381 5.381 0 00-.764 1.703 7.798 7.798 0 00-.255 2.025zm18.336 4.827l3.728-11.934h1.636l-.322 2.373-3.795 12.136h-1.595l.348-2.575zm-2.507-11.934l3.178 12.068.228 2.44h-1.676l-4.211-14.508h2.481zm11.438 11.974l3.03-11.974h2.468l-4.211 14.509h-1.662l.375-2.535zm-3.205-11.974l3.647 11.733.416 2.776h-1.582l-3.902-12.162-.322-2.347h1.743zm14.555 3.097v11.412h-2.481v-14.51h2.347l.134 3.098zm-.59 3.608l-1.032-.04c.009-.993.156-1.91.442-2.75a6.85 6.85 0 011.207-2.212 5.372 5.372 0 011.85-1.448c.725-.349 1.525-.523 2.401-.523.715 0 1.359.098 1.931.295a3.496 3.496 0 011.461.912c.411.42.724.965.939 1.636.214.661.322 1.47.322 2.427v9.507h-2.494v-9.534c0-.76-.112-1.368-.336-1.824-.223-.465-.549-.8-.978-1.006-.43-.214-.957-.321-1.583-.321-.617 0-1.18.13-1.689.388-.501.26-.935.617-1.301 1.073a5.397 5.397 0 00-.845 1.57 5.724 5.724 0 00-.295 1.85zM299.12 38.22v20.597h-2.494V38.22h2.494zm4.149 13.503v-.308c0-1.046.152-2.016.456-2.91a6.917 6.917 0 011.314-2.347 5.859 5.859 0 012.079-1.555c.813-.376 1.725-.563 2.735-.563 1.019 0 1.936.187 2.749.563.823.366 1.52.885 2.092 1.555a6.779 6.779 0 011.327 2.347c.304.894.456 1.864.456 2.91v.308c0 1.046-.152 2.016-.456 2.91a6.947 6.947 0 01-1.327 2.347 6.085 6.085 0 01-2.078 1.555c-.805.367-1.717.55-2.736.55-1.019 0-1.935-.183-2.749-.55a6.226 6.226 0 01-2.092-1.555 7.092 7.092 0 01-1.314-2.347c-.304-.894-.456-1.864-.456-2.91zm2.481-.308v.308c0 .724.085 1.408.255 2.052a5.4 5.4 0 00.764 1.69c.349.491.782.88 1.301 1.166.518.277 1.122.416 1.81.416.679 0 1.274-.139 1.783-.416a3.743 3.743 0 001.288-1.167 5.418 5.418 0 00.764-1.69 7.627 7.627 0 00.268-2.05v-.31c0-.714-.089-1.39-.268-2.024a5.21 5.21 0 00-.778-1.703 3.685 3.685 0 00-1.287-1.18c-.509-.286-1.108-.43-1.797-.43-.679 0-1.278.144-1.797.43-.509.286-.938.68-1.287 1.18a5.381 5.381 0 00-.764 1.703 7.798 7.798 0 00-.255 2.025zm23.217 4.921v-7.469c0-.572-.116-1.068-.348-1.488a2.284 2.284 0 00-1.019-.993c-.456-.232-1.02-.348-1.69-.348-.626 0-1.176.107-1.649.322-.465.214-.832.496-1.1.844a1.853 1.853 0 00-.389 1.127h-2.48c0-.519.134-1.033.402-1.542.268-.51.652-.97 1.153-1.382a5.76 5.76 0 011.824-.992c.715-.25 1.51-.375 2.387-.375 1.054 0 1.984.178 2.789.536a4.181 4.181 0 011.904 1.623c.465.715.697 1.613.697 2.695v6.758c0 .483.04.997.121 1.542.089.545.219 1.015.389 1.408v.215h-2.588c-.126-.286-.224-.666-.295-1.14a9.134 9.134 0 01-.108-1.341zm.429-6.316l.027 1.743h-2.507c-.706 0-1.337.059-1.891.175-.554.107-1.019.272-1.395.496a2.364 2.364 0 00-.858.845c-.196.33-.295.72-.295 1.166 0 .456.103.872.309 1.247.205.376.514.675.925.899.42.214.934.322 1.542.322.76 0 1.43-.161 2.011-.483.581-.322 1.042-.715 1.382-1.18.348-.465.536-.916.563-1.354l1.059 1.193c-.063.375-.232.791-.51 1.247a6.02 6.02 0 01-2.748 2.347c-.626.268-1.332.402-2.119.402-.983 0-1.846-.192-2.588-.577-.733-.384-1.305-.898-1.716-1.542a4.076 4.076 0 01-.604-2.185c0-.778.152-1.462.456-2.052a3.962 3.962 0 011.314-1.488c.572-.403 1.261-.707 2.065-.912.805-.206 1.703-.309 2.695-.309h2.883zM345.319 56V38.22h2.494v20.597h-2.279l-.215-2.816zm-9.762-4.277v-.281c0-1.109.134-2.115.402-3.017.278-.912.666-1.695 1.167-2.347a5.283 5.283 0 011.81-1.502c.707-.358 1.493-.536 2.36-.536.912 0 1.708.16 2.387.482a4.58 4.58 0 011.743 1.382c.483.599.863 1.323 1.14 2.172.277.85.47 1.81.577 2.883v1.234c-.099 1.063-.291 2.02-.577 2.87-.277.848-.657 1.572-1.14 2.172a4.758 4.758 0 01-1.743 1.38c-.688.313-1.493.47-2.413.47-.85 0-1.627-.183-2.334-.55a5.515 5.515 0 01-1.81-1.542c-.501-.661-.889-1.44-1.167-2.333a10.28 10.28 0 01-.402-2.937zm2.494-.281v.281c0 .724.072 1.404.215 2.038.152.635.384 1.194.697 1.677.313.482.711.862 1.194 1.14.482.268 1.059.402 1.729.402.823 0 1.498-.175 2.025-.523a3.885 3.885 0 001.287-1.381 7.936 7.936 0 00.751-1.864V49.98a7.12 7.12 0 00-.469-1.421 4.382 4.382 0 00-.778-1.234 3.36 3.36 0 00-1.166-.872c-.456-.214-.997-.321-1.623-.321-.679 0-1.265.143-1.756.429a3.422 3.422 0 00-1.194 1.153 5.33 5.33 0 00-.697 1.69 9.258 9.258 0 00-.215 2.038zm23.084-12.15l-8.14 21.2h-2.132l8.153-21.2h2.119z" fill="#404040"/><rect x="499.807" y="36.269" width="27.462" height="27.462" rx="8.239" stroke="#000" stroke-width="3.295"/><path d="M515.083 42.782v14.134h-1.786V45.012l-3.601 1.313v-1.612l5.107-1.931h.28zm-71.456 9.572h-9.024v9.023a1.81 1.81 0 01-1.804 1.805 1.81 1.81 0 01-1.805-1.805v-9.023h-9.023a1.81 1.81 0 01-1.805-1.805 1.81 1.81 0 011.805-1.805h9.023v-9.023a1.81 1.81 0 011.805-1.805 1.81 1.81 0 011.804 1.805v9.023h9.024a1.81 1.81 0 011.804 1.805 1.81 1.81 0 01-1.804 1.805zM584.39 42.31a3.856 3.856 0 003.845-3.844 3.856 3.856 0 00-3.845-3.845 3.857 3.857 0 00-3.845 3.845 3.857 3.857 0 003.845 3.844zm0 3.845A3.857 3.857 0 00580.545 50a3.857 3.857 0 003.845 3.844A3.856 3.856 0 00588.235 50a3.856 3.856 0 00-3.845-3.845zm0 11.534a3.857 3.857 0 00-3.845 3.845 3.857 3.857 0 003.845 3.845 3.856 3.856 0 003.845-3.845 3.856 3.856 0 00-3.845-3.845z" fill="#000"/></svg>