<svg width="633" height="435" fill="none" xmlns="http://www.w3.org/2000/svg"><rect x=".778" y="45.025" width="632.023" height="389.29" rx="15.266" fill="#fff"/><path d="M.778 14.492c0-7.588 6.151-13.74 13.74-13.74h604.544c7.588 0 13.739 6.152 13.739 13.74v48.852H.778V14.492z" fill="#F3F4F6"/><rect x="46.576" y="107.616" width="48.852" height="48.852" rx="13.74" fill="#D9D9D9"/><rect x="122.908" y="115.249" width="425.929" height="35.112" rx="17.556" fill="#F3F4F6"/><rect x="46.576" y="345.77" width="48.852" height="48.852" rx="13.74" fill="#D9D9D9"/><rect x="122.908" y="353.403" width="345.018" height="35.112" rx="17.556" fill="#F3F4F6"/><rect x="2.304" y="199.214" width="630.497" height="103.811" rx="16.793" fill="#F3F4F6"/><path d="M55.191 264.493h30.096c1.38 0 2.508 1.113 2.508 2.473 0 1.36-1.128 2.472-2.508 2.472H55.191c-1.38 0-2.508-1.112-2.508-2.472 0-1.36 1.129-2.473 2.508-2.473zm12.565-10.138a5.069 5.069 0 01-7.072-.025l-5.493-5.415a3.343 3.343 0 01.075-4.871c1.355-1.286 3.512-1.236 4.816.05l4.138 4.08 16.127-15.9a3.487 3.487 0 014.89 0l.1.099a3.377 3.377 0 01-.024 4.847l-17.557 17.135zm80.788 1.449h3.579c-.187 1.715-.678 3.249-1.473 4.603-.795 1.355-1.919 2.429-3.373 3.224-1.453.783-3.267 1.174-5.441 1.174-1.591 0-3.038-.298-4.342-.894a9.653 9.653 0 01-3.336-2.535c-.932-1.105-1.653-2.428-2.162-3.969-.497-1.553-.745-3.28-.745-5.181v-2.702c0-1.901.248-3.621.745-5.162.509-1.553 1.236-2.882 2.18-3.988a9.722 9.722 0 013.448-2.553c1.342-.596 2.851-.894 4.528-.894 2.05 0 3.784.385 5.2 1.155 1.416.77 2.516 1.839 3.298 3.205.795 1.354 1.286 2.926 1.473 4.715h-3.579c-.173-1.267-.496-2.354-.969-3.261a5.037 5.037 0 00-2.012-2.125c-.87-.497-2.007-.745-3.411-.745-1.205 0-2.267.23-3.186.689a6.417 6.417 0 00-2.292 1.957c-.609.845-1.069 1.858-1.379 3.038-.311 1.18-.466 2.491-.466 3.932v2.739c0 1.33.136 2.578.41 3.746.285 1.168.714 2.193 1.286 3.075a6.357 6.357 0 002.18 2.087c.882.497 1.926.746 3.131.746 1.528 0 2.745-.243 3.652-.727a4.757 4.757 0 002.05-2.087c.472-.907.808-1.994 1.006-3.262zm12.085-11.535v20.164h-3.447v-20.164h3.447zm13.232 0l-9.56 11.554h-4.827l-.522-3.019h3.951l6.765-8.535h4.193zm-3.709 20.164l-7.417-9.132 2.218-2.497 9.578 11.629h-4.379zm19.651-3.448v-10.38c0-.795-.162-1.485-.485-2.069-.31-.596-.782-1.056-1.416-1.379-.634-.323-1.416-.484-2.348-.484-.87 0-1.634.149-2.292.447-.646.298-1.156.69-1.528 1.174-.361.485-.541 1.007-.541 1.566h-3.447c0-.721.186-1.435.559-2.143.372-.709.907-1.348 1.602-1.92.709-.584 1.553-1.044 2.535-1.379.994-.348 2.099-.522 3.317-.522 1.466 0 2.758.249 3.876.746 1.131.497 2.013 1.248 2.646 2.255.646.993.97 2.242.97 3.745v9.393c0 .671.055 1.385.167 2.143.124.758.305 1.41.541 1.956v.299h-3.597c-.174-.398-.311-.926-.41-1.584a12.83 12.83 0 01-.149-1.864zm.596-8.777l.038 2.422h-3.485c-.982 0-1.858.081-2.628.243-.77.149-1.416.378-1.938.689-.522.311-.919.702-1.193 1.174-.273.46-.41 1-.41 1.621 0 .634.143 1.212.429 1.734.286.521.714.938 1.286 1.248.584.298 1.298.447 2.143.447 1.056 0 1.988-.223 2.795-.671.808-.447 1.448-.993 1.92-1.639.484-.646.745-1.274.782-1.883l1.473 1.659c-.087.522-.323 1.099-.709 1.733-.385.634-.9 1.242-1.546 1.826-.634.572-1.392 1.05-2.274 1.435-.87.373-1.851.559-2.944.559-1.367 0-2.566-.267-3.597-.801-1.019-.534-1.814-1.249-2.385-2.143-.559-.907-.839-1.92-.839-3.038 0-1.081.211-2.031.634-2.851a5.498 5.498 0 011.826-2.068c.795-.56 1.752-.982 2.87-1.268 1.118-.285 2.367-.428 3.746-.428h4.006zm23.863-7.939v20.164h-3.448v-20.164h3.448zm-1.174 9.262v2.832c-.696.261-1.404.497-2.125.709-.708.198-1.46.36-2.255.484-.782.112-1.633.168-2.553.168-1.59 0-2.969-.274-4.137-.82a6.023 6.023 0 01-2.702-2.516c-.634-1.131-.95-2.553-.95-4.268v-5.888h3.447v5.888c0 1.119.168 2.026.503 2.721.336.696.827 1.212 1.473 1.547.646.323 1.434.485 2.366.485.895 0 1.733-.056 2.516-.168a20.307 20.307 0 002.274-.485 23.702 23.702 0 002.143-.689zm18.998 7.454v-10.38c0-.795-.161-1.485-.484-2.069a3.174 3.174 0 00-1.417-1.379c-.633-.323-1.416-.484-2.348-.484-.869 0-1.633.149-2.292.447-.646.298-1.155.69-1.528 1.174-.36.485-.54 1.007-.54 1.566h-3.448c0-.721.186-1.435.559-2.143.373-.709.907-1.348 1.603-1.92.708-.584 1.553-1.044 2.534-1.379.994-.348 2.1-.522 3.317-.522 1.466 0 2.758.249 3.877.746 1.13.497 2.012 1.248 2.646 2.255.646.993.969 2.242.969 3.745v9.393c0 .671.056 1.385.168 2.143.124.758.304 1.41.54 1.956v.299h-3.597c-.174-.398-.31-.926-.41-1.584a12.83 12.83 0 01-.149-1.864zm.597-8.777l.037 2.422h-3.485c-.981 0-1.857.081-2.628.243-.77.149-1.416.378-1.938.689-.521.311-.919.702-1.192 1.174-.274.46-.41 1-.41 1.621 0 .634.143 1.212.428 1.734.286.521.715.938 1.286 1.248.584.298 1.298.447 2.143.447 1.056 0 1.988-.223 2.796-.671.807-.447 1.447-.993 1.919-1.639.485-.646.745-1.274.783-1.883l1.472 1.659c-.087.522-.323 1.099-.708 1.733-.385.634-.901 1.242-1.547 1.826-.634.572-1.391 1.05-2.273 1.435-.87.373-1.852.559-2.945.559-1.367 0-2.565-.267-3.597-.801-1.018-.534-1.813-1.249-2.385-2.143-.559-.907-.839-1.92-.839-3.038 0-1.081.212-2.031.634-2.851a5.498 5.498 0 011.826-2.068c.795-.56 1.752-.982 2.87-1.268 1.118-.285 2.367-.428 3.746-.428h4.007zm22.334.801v2.795h-10.66v-2.795h10.66zm-9.933-8.74v20.164h-3.447v-20.164h3.447zm12.728 0v20.164h-3.466v-20.164h3.466zm19.614 8.74v2.795h-10.66v-2.795h10.66zm-9.933-8.74v20.164h-3.447v-20.164h3.447zm12.728 0v20.164h-3.466v-20.164h3.466zm8.768 6.932h6.057c1.627 0 3 .286 4.118.858 1.118.559 1.963 1.335 2.534 2.329.584.982.876 2.1.876 3.354 0 .932-.161 1.808-.484 2.628a5.903 5.903 0 01-1.454 2.125c-.633.608-1.422 1.087-2.367 1.434-.931.336-2.006.504-3.223.504h-8.573v-20.164h3.448V261.6h5.125c.993 0 1.789-.18 2.385-.54.596-.361 1.025-.827 1.286-1.398a4.26 4.26 0 00.391-1.789c0-.609-.13-1.205-.391-1.789-.261-.584-.69-1.069-1.286-1.454-.596-.397-1.392-.596-2.385-.596h-6.057v-2.833zm20.76-6.932v20.164h-3.448v-20.164h3.448zm14.787 20.536c-1.404 0-2.677-.236-3.82-.708a8.645 8.645 0 01-2.926-2.031c-.808-.87-1.429-1.901-1.864-3.094-.435-1.192-.652-2.497-.652-3.913v-.783c0-1.64.242-3.099.727-4.379.484-1.292 1.143-2.385 1.975-3.28.833-.895 1.777-1.572 2.833-2.031a8.13 8.13 0 013.28-.69c1.441 0 2.683.249 3.727.746a6.79 6.79 0 012.59 2.087c.671.882 1.168 1.925 1.491 3.131.323 1.192.485 2.497.485 3.913v1.547h-15.058v-2.814h11.61v-.261a8.606 8.606 0 00-.559-2.609 4.691 4.691 0 00-1.491-2.087c-.683-.547-1.615-.82-2.795-.82-.783 0-1.504.168-2.162.503-.659.323-1.224.808-1.696 1.454-.472.646-.838 1.434-1.099 2.366-.261.932-.392 2.007-.392 3.224v.783c0 .957.131 1.857.392 2.702a6.906 6.906 0 001.174 2.199 5.612 5.612 0 001.882 1.491c.745.36 1.59.54 2.534.54 1.218 0 2.249-.248 3.094-.745a7.654 7.654 0 002.217-1.994l2.088 1.658a9.658 9.658 0 01-1.659 1.883c-.671.596-1.497 1.081-2.478 1.453-.97.373-2.119.559-3.448.559zm45.284-10.1v.391c0 1.416-.156 2.721-.466 3.914-.311 1.18-.777 2.205-1.398 3.075a6.486 6.486 0 01-2.273 2.031c-.907.472-1.957.708-3.15.708-.981 0-1.845-.13-2.59-.391a5.296 5.296 0 01-1.901-1.174 5.933 5.933 0 01-1.23-1.827 9.359 9.359 0 01-.615-2.422v-8.945c.112-.957.317-1.814.615-2.572a6.164 6.164 0 011.23-1.938 5.276 5.276 0 011.882-1.23c.733-.286 1.59-.429 2.572-.429.969 0 1.839.174 2.609.522.783.335 1.466.82 2.05 1.454.596.633 1.087 1.397 1.472 2.292.398.882.696 1.876.894 2.981a20.11 20.11 0 01.299 3.56zm-3.448.391v-.391c0-.87-.062-1.696-.186-2.479a10.153 10.153 0 00-.541-2.18 6.164 6.164 0 00-.932-1.752 4.03 4.03 0 00-1.397-1.155c-.534-.274-1.149-.41-1.845-.41-.746 0-1.367.093-1.864.279-.484.187-.863.435-1.136.746a2.885 2.885 0 00-.597.95v11.685c.149.273.367.534.652.782.286.236.671.435 1.156.597.484.149 1.093.223 1.826.223.87 0 1.609-.174 2.218-.521a4.241 4.241 0 001.509-1.491c.398-.634.684-1.367.858-2.199.186-.833.279-1.727.279-2.684zm-20.499 0v-.391c0-1.267.099-2.454.298-3.56.199-1.105.497-2.099.895-2.981.397-.895.888-1.659 1.472-2.292a6.165 6.165 0 012.05-1.454c.782-.348 1.658-.522 2.627-.522.957 0 1.789.143 2.498.429.72.286 1.329.696 1.826 1.23.497.534.894 1.18 1.192 1.938.299.758.51 1.615.634 2.572v8.591c-.112.944-.317 1.795-.615 2.553a6.291 6.291 0 01-1.193 1.956 4.894 4.894 0 01-1.844 1.23c-.721.286-1.566.429-2.535.429-1.193 0-2.242-.236-3.149-.708a6.653 6.653 0 01-2.293-2.031c-.608-.87-1.074-1.895-1.397-3.075-.311-1.193-.466-2.498-.466-3.914zm3.466-.391v.391c0 .957.081 1.851.242 2.684.174.832.441 1.565.802 2.199a4.19 4.19 0 001.453 1.491c.597.347 1.33.521 2.199.521.746 0 1.361-.093 1.845-.279.485-.187.87-.429 1.156-.727.285-.298.503-.609.652-.932v-11.349a2.76 2.76 0 00-.615-.95c-.273-.311-.652-.559-1.137-.746-.484-.186-1.106-.279-1.863-.279-.87 0-1.609.211-2.218.633-.609.423-1.1 1.001-1.472 1.734-.361.733-.628 1.584-.802 2.553a18.406 18.406 0 00-.242 3.056zm6.634 17.48v-36.377h3.467v36.377h-3.467zm30.628-11.2v-10.38c0-.795-.162-1.485-.485-2.069a3.177 3.177 0 00-1.416-1.379c-.634-.323-1.417-.484-2.348-.484-.87 0-1.634.149-2.292.447-.647.298-1.156.69-1.529 1.174-.36.485-.54 1.007-.54 1.566h-3.448c0-.721.187-1.435.559-2.143.373-.709.907-1.348 1.603-1.92.708-.584 1.553-1.044 2.535-1.379.993-.348 2.099-.522 3.317-.522 1.466 0 2.758.249 3.876.746 1.13.497 2.013 1.248 2.646 2.255.646.993.969 2.242.969 3.745v9.393c0 .671.056 1.385.168 2.143.124.758.304 1.41.54 1.956v.299h-3.596c-.174-.398-.311-.926-.41-1.584-.1-.671-.149-1.292-.149-1.864zm.596-8.777l.037 2.422h-3.485c-.981 0-1.857.081-2.627.243-.771.149-1.417.378-1.938.689-.522.311-.92.702-1.193 1.174-.273.46-.41 1-.41 1.621 0 .634.143 1.212.429 1.734.285.521.714.938 1.285 1.248.584.298 1.299.447 2.144.447 1.056 0 1.987-.223 2.795-.671.807-.447 1.447-.993 1.919-1.639.485-.646.746-1.274.783-1.883l1.472 1.659c-.087.522-.323 1.099-.708 1.733-.385.634-.901 1.242-1.547 1.826-.633.572-1.391 1.05-2.273 1.435-.87.373-1.851.559-2.945.559-1.366 0-2.565-.267-3.596-.801-1.019-.534-1.814-1.249-2.386-2.143-.559-.907-.838-1.92-.838-3.038 0-1.081.211-2.031.633-2.851a5.51 5.51 0 011.827-2.068c.795-.56 1.751-.982 2.87-1.268 1.118-.285 2.366-.428 3.745-.428h4.007zm12.383 6.764l9.299-14.703h3.466v20.164h-3.466v-14.704l-9.299 14.704h-3.429v-20.164h3.429v14.703zm7.417-22.008h2.795c0 .969-.223 1.832-.671 2.59-.447.746-1.087 1.329-1.919 1.752-.833.422-1.82.633-2.963.633-1.727 0-3.094-.459-4.1-1.379-.994-.931-1.491-2.13-1.491-3.596h2.795c0 .733.212 1.379.634 1.938.422.559 1.143.838 2.162.838.994 0 1.702-.279 2.124-.838a3.124 3.124 0 00.634-1.938zm24.738 7.305v2.851h-9.746v-2.851h9.746zm3.038 0v20.164h-3.448v-20.164h3.448zm-13.623 0h3.466l-.521 9.728c-.087 1.503-.23 2.832-.429 3.988-.186 1.143-.447 2.124-.783 2.944-.323.82-.733 1.491-1.23 2.013a4.512 4.512 0 01-1.751 1.137c-.684.236-1.473.354-2.367.354h-1.081v-3.038l.745-.056c.535-.037.988-.161 1.361-.373.385-.211.708-.521.969-.931.261-.423.472-.963.634-1.622.173-.658.304-1.441.391-2.348.099-.907.174-1.963.224-3.168l.372-8.628zm22.391 6.932h6.056c1.628 0 3 .286 4.119.858 1.118.559 1.962 1.335 2.534 2.329.584.982.876 2.1.876 3.354 0 .932-.162 1.808-.485 2.628a5.9 5.9 0 01-1.453 2.125c-.634.608-1.423 1.087-2.367 1.434-.932.336-2.006.504-3.224.504h-8.572v-20.164h3.447V261.6h5.125c.994 0 1.789-.18 2.385-.54.597-.361 1.025-.827 1.286-1.398a4.262 4.262 0 00.392-1.789c0-.609-.131-1.205-.392-1.789-.261-.584-.689-1.069-1.286-1.454-.596-.397-1.391-.596-2.385-.596h-6.056v-2.833zm20.76-6.932v20.164h-3.448v-20.164h3.448z" fill="#454746"/></svg>