<svg width="629" height="406" fill="none" xmlns="http://www.w3.org/2000/svg"><rect y=".962" width="628.493" height="404.283" rx="18.722" fill="#fff"/><rect x="504.913" y="302.851" width="72.383" height="44.136" rx="22.068" fill="#28D37F"/><circle cx="554.345" cy="325.801" r="12.358" fill="#fff"/><path d="M102.358 156.32c-20.465 0-37.037 16.609-37.037 37.074 0 20.465 16.572 37.074 37.037 37.074 20.502 0 37.111-16.609 37.111-37.074 0-20.465-16.609-37.074-37.111-37.074zm25.692 22.244h-10.937c-1.186-4.634-2.891-9.083-5.116-13.198 6.822 2.336 12.494 7.081 16.053 13.198zm-25.655-14.681a52.231 52.231 0 017.081 14.681H95.314a52.232 52.232 0 017.081-14.681zM73.7 200.809c-.594-2.373-.964-4.857-.964-7.415s.37-5.042.964-7.415h12.53c-.296 2.447-.518 4.894-.518 7.415s.222 4.968.519 7.415H73.7zm3.04 7.414h10.937c1.186 4.635 2.891 9.084 5.116 13.199a29.61 29.61 0 01-16.053-13.199zm10.937-29.659H76.74a29.612 29.612 0 0116.053-13.198c-2.225 4.115-3.93 8.564-5.117 13.198zm14.718 44.341a52.224 52.224 0 01-7.081-14.682h14.162a52.224 52.224 0 01-7.081 14.682zm8.675-22.096H93.72c-.334-2.447-.594-4.894-.594-7.415s.26-5.005.594-7.415h17.35c.334 2.41.593 4.894.593 7.415s-.259 4.968-.593 7.415zm.927 20.613c2.225-4.115 3.93-8.564 5.116-13.199h10.937c-3.559 6.118-9.231 10.863-16.053 13.199zm6.562-20.613c.297-2.447.519-4.894.519-7.415s-.222-4.968-.519-7.415h12.531c.593 2.373.964 4.857.964 7.415s-.371 5.042-.964 7.415h-12.531z" fill="#404040"/><path d="M218.417 178.579h-6.362l-.035-2.672h5.776c.954 0 1.787-.161 2.5-.483.712-.322 1.264-.782 1.655-1.379.402-.609.603-1.333.603-2.173 0-.919-.178-1.666-.534-2.241-.345-.586-.879-1.011-1.603-1.276-.713-.275-1.621-.413-2.724-.413h-4.897v22.378h-3.327v-25.102h8.224c1.287 0 2.436.132 3.448.396 1.011.253 1.867.655 2.568 1.207a5.136 5.136 0 011.621 2.069c.368.839.552 1.845.552 3.017a5.169 5.169 0 01-.793 2.81c-.529.828-1.265 1.506-2.207 2.035-.931.528-2.023.867-3.276 1.017l-1.189.81zm-.156 11.741h-7.516l1.879-2.707h5.637c1.058 0 1.954-.184 2.69-.552.747-.367 1.316-.885 1.707-1.551.391-.678.586-1.477.586-2.397 0-.931-.167-1.735-.5-2.413-.333-.679-.856-1.201-1.569-1.569-.712-.368-1.632-.552-2.758-.552h-4.741l.034-2.672h6.482l.707.965c1.207.104 2.23.448 3.069 1.035a5.62 5.62 0 011.914 2.206c.448.897.672 1.885.672 2.966 0 1.563-.345 2.885-1.034 3.965-.678 1.069-1.638 1.885-2.879 2.448-1.242.552-2.701.828-4.38.828zm16.973-15.724v15.724h-3.19v-18.654h3.104l.086 2.93zm5.827-3.034l-.017 2.966a4.613 4.613 0 00-.759-.104 8.069 8.069 0 00-.793-.034c-.735 0-1.385.115-1.948.344a4.04 4.04 0 00-1.431.966 4.644 4.644 0 00-.931 1.483 7.132 7.132 0 00-.431 1.862l-.897.517c0-1.127.11-2.184.328-3.173.23-.988.58-1.861 1.052-2.62.471-.77 1.069-1.368 1.793-1.793.735-.437 1.609-.655 2.62-.655.23 0 .495.029.793.086.299.046.506.098.621.155zm2.818 9.638v-.397c0-1.345.195-2.592.586-3.741.391-1.161.954-2.167 1.69-3.017a7.53 7.53 0 012.672-2c1.046-.483 2.218-.724 3.517-.724 1.31 0 2.488.241 3.534.724a7.498 7.498 0 012.69 2c.747.85 1.316 1.856 1.707 3.017.39 1.149.586 2.396.586 3.741v.397c0 1.344-.196 2.591-.586 3.741a8.96 8.96 0 01-1.707 3.017 7.836 7.836 0 01-2.673 2c-1.034.471-2.206.707-3.517.707-1.31 0-2.488-.236-3.534-.707a8.004 8.004 0 01-2.689-2c-.736-.862-1.299-1.868-1.69-3.017-.391-1.15-.586-2.397-.586-3.741zm3.189-.397v.397c0 .931.11 1.81.328 2.637.218.816.546 1.541.983 2.173a4.971 4.971 0 001.672 1.5c.667.356 1.442.534 2.327.534.874 0 1.638-.178 2.293-.534a4.807 4.807 0 001.655-1.5 6.933 6.933 0 00.983-2.173c.23-.827.345-1.706.345-2.637v-.397c0-.919-.115-1.787-.345-2.603a6.698 6.698 0 00-1-2.19 4.758 4.758 0 00-1.655-1.517c-.655-.368-1.425-.552-2.31-.552-.874 0-1.644.184-2.31.552a4.968 4.968 0 00-1.655 1.517 6.906 6.906 0 00-.983 2.19 10.05 10.05 0 00-.328 2.603zm23.576 6.207l4.793-15.344h2.103l-.414 3.051-4.879 15.603h-2.052l.449-3.31zm-3.224-15.344l4.086 15.516.293 3.138h-2.155l-5.414-18.654h3.19zm14.706 15.395l3.896-15.395h3.172l-5.413 18.654h-2.138l.483-3.259zm-4.121-15.395l4.69 15.085.534 3.569h-2.034l-5.017-15.637-.414-3.017h2.241zm26.386 13.706c0-.46-.103-.885-.31-1.276-.196-.402-.604-.764-1.224-1.086-.61-.333-1.529-.621-2.759-.862a21.94 21.94 0 01-2.81-.776c-.828-.299-1.535-.661-2.121-1.086a4.553 4.553 0 01-1.327-1.5c-.311-.575-.466-1.247-.466-2.017 0-.736.161-1.431.483-2.086a5.607 5.607 0 011.396-1.742c.61-.505 1.34-.902 2.19-1.189.851-.288 1.799-.431 2.845-.431 1.494 0 2.77.264 3.827.793 1.058.529 1.868 1.235 2.431 2.12.563.874.845 1.845.845 2.914h-3.19c0-.517-.155-1.017-.465-1.5-.299-.494-.742-.902-1.328-1.224-.574-.322-1.281-.483-2.12-.483-.885 0-1.604.138-2.155.414-.541.264-.937.604-1.19 1.017a2.567 2.567 0 00-.362 1.311c0 .344.057.655.172.931.127.264.345.511.656.741.31.218.747.425 1.31.621.563.195 1.281.39 2.155.586 1.529.345 2.787.758 3.776 1.241.988.483 1.724 1.075 2.206 1.776.483.701.724 1.551.724 2.551 0 .816-.172 1.564-.517 2.242a4.97 4.97 0 01-1.465 1.758c-.632.483-1.391.862-2.276 1.138-.873.264-1.856.397-2.948.397-1.644 0-3.034-.293-4.172-.88-1.138-.586-2-1.344-2.586-2.275-.587-.931-.88-1.914-.88-2.949h3.207c.046.874.299 1.569.759 2.087a3.879 3.879 0 001.689 1.086c.667.207 1.328.31 1.983.31.873 0 1.603-.115 2.189-.345.598-.23 1.052-.546 1.362-.948.311-.402.466-.862.466-1.379zm16.179 5.293c-1.299 0-2.477-.219-3.534-.656a8.007 8.007 0 01-2.707-1.879c-.747-.804-1.322-1.758-1.724-2.862-.402-1.103-.603-2.31-.603-3.62v-.724c0-1.517.224-2.868.672-4.052.448-1.195 1.057-2.207 1.827-3.034a7.828 7.828 0 012.621-1.879 7.513 7.513 0 013.034-.638c1.334 0 2.483.23 3.448.689a6.298 6.298 0 012.397 1.931c.621.816 1.08 1.782 1.379 2.897.299 1.103.448 2.31.448 3.62v1.431h-13.93v-2.603h10.741v-.241a7.946 7.946 0 00-.517-2.414 4.339 4.339 0 00-1.38-1.931c-.632-.506-1.494-.759-2.586-.759-.724 0-1.39.155-2 .466a4.25 4.25 0 00-1.568 1.345c-.437.597-.776 1.327-1.018 2.189-.241.862-.362 1.856-.362 2.983v.724c0 .885.121 1.718.362 2.5.253.77.615 1.448 1.087 2.034a5.198 5.198 0 001.741 1.379c.689.334 1.471.5 2.345.5 1.126 0 2.08-.23 2.861-.689a7.086 7.086 0 002.052-1.845l1.931 1.534a8.922 8.922 0 01-1.534 1.742c-.621.551-1.385 1-2.293 1.344-.897.345-1.96.518-3.19.518zm15.231-16.069v15.724h-3.189v-18.654h3.103l.086 2.93zm5.827-3.034l-.017 2.966a4.601 4.601 0 00-.758-.104 8.083 8.083 0 00-.793-.034c-.736 0-1.385.115-1.949.344a4.04 4.04 0 00-1.431.966c-.39.414-.701.908-.931 1.483a7.132 7.132 0 00-.431 1.862l-.896.517c0-1.127.109-2.184.327-3.173.23-.988.581-1.861 1.052-2.62.471-.77 1.069-1.368 1.793-1.793.736-.437 1.609-.655 2.621-.655.23 0 .494.029.793.086.299.046.505.098.62.155z" fill="#000"/><path d="M214.096 207.25v15.144h-1.914v-12.755l-3.858 1.407v-1.727l5.472-2.069h.3zm15.718 6.413v2.297c0 1.234-.111 2.275-.331 3.124-.221.848-.538 1.531-.952 2.048a3.622 3.622 0 01-1.5 1.127c-.579.228-1.234.342-1.965.342a5.63 5.63 0 01-1.604-.218 3.784 3.784 0 01-1.324-.693 4.197 4.197 0 01-.993-1.262c-.276-.517-.486-1.144-.631-1.882-.145-.738-.217-1.6-.217-2.586v-2.297c0-1.234.11-2.269.331-3.103.228-.835.548-1.503.962-2.007.414-.51.91-.876 1.49-1.096.586-.221 1.241-.331 1.965-.331.586 0 1.124.072 1.614.217.496.138.938.362 1.324.672.386.304.714.711.983 1.221.275.503.486 1.12.631 1.851.144.731.217 1.59.217 2.576zm-1.924 2.607v-2.927c0-.676-.042-1.269-.124-1.78a5.592 5.592 0 00-.342-1.324 2.626 2.626 0 00-.579-.889 2.05 2.05 0 00-.797-.497 2.867 2.867 0 00-1.003-.165c-.455 0-.859.086-1.21.258a2.173 2.173 0 00-.89.797c-.234.365-.414.844-.538 1.438-.124.593-.186 1.313-.186 2.162v2.927c0 .676.038 1.272.114 1.79.083.517.203.965.362 1.344.158.373.352.68.579.921.228.241.49.421.786.538.304.11.638.165 1.004.165.469 0 .879-.089 1.231-.269.351-.179.644-.458.879-.837.241-.387.421-.88.538-1.48.117-.607.176-1.331.176-2.172zm11.311-9.02v15.144h-1.914v-12.755l-3.859 1.407v-1.727l5.473-2.069h.3zm6.5 14.13c0-.324.1-.596.3-.817.207-.228.504-.342.89-.342s.679.114.879.342c.207.221.311.493.311.817 0 .317-.104.586-.311.807-.2.221-.493.331-.879.331s-.683-.11-.89-.331c-.2-.221-.3-.49-.3-.807zm12.273-14.13v15.144h-1.913v-12.755l-3.859 1.407v-1.727l5.472-2.069h.3zm6.501 14.13c0-.324.1-.596.3-.817.207-.228.503-.342.89-.342.386 0 .679.114.879.342.207.221.31.493.31.817 0 .317-.103.586-.31.807-.2.221-.493.331-.879.331-.387 0-.683-.11-.89-.331-.2-.221-.3-.49-.3-.807zm15.718-14.048v1.076l-6.238 13.986h-2.017l6.227-13.489h-8.151v-1.573h10.179zm3.056 14.048c0-.324.1-.596.3-.817.207-.228.503-.342.889-.342.387 0 .68.114.88.342.206.221.31.493.31.817 0 .317-.104.586-.31.807-.2.221-.493.331-.88.331-.386 0-.682-.11-.889-.331-.2-.221-.3-.49-.3-.807zm16.162-4.055v1.572h-10.882v-1.127l6.744-10.438h1.562l-1.675 3.021-4.459 6.972h8.71zm-2.1-9.993v15.062h-1.914v-15.062h1.914zm4.711 14.048c0-.324.1-.596.3-.817.207-.228.504-.342.89-.342s.679.114.879.342c.207.221.311.493.311.817 0 .317-.104.586-.311.807-.2.221-.493.331-.879.331s-.683-.11-.89-.331c-.2-.221-.3-.49-.3-.807zm15.439-7.717v2.297c0 1.234-.111 2.275-.331 3.124-.221.848-.538 1.531-.952 2.048a3.622 3.622 0 01-1.5 1.127c-.579.228-1.234.342-1.965.342a5.63 5.63 0 01-1.604-.218 3.784 3.784 0 01-1.324-.693 4.197 4.197 0 01-.993-1.262c-.276-.517-.486-1.144-.631-1.882-.145-.738-.217-1.6-.217-2.586v-2.297c0-1.234.11-2.269.331-3.103.227-.835.548-1.503.962-2.007.414-.51.91-.876 1.49-1.096.586-.221 1.241-.331 1.965-.331.586 0 1.124.072 1.614.217.496.138.938.362 1.324.672.386.304.713.711.982 1.221.276.503.487 1.12.631 1.851.145.731.218 1.59.218 2.576zm-1.924 2.607v-2.927c0-.676-.042-1.269-.125-1.78a5.546 5.546 0 00-.341-1.324 2.626 2.626 0 00-.579-.889 2.05 2.05 0 00-.797-.497 2.867 2.867 0 00-1.003-.165c-.455 0-.859.086-1.21.258a2.173 2.173 0 00-.89.797c-.234.365-.414.844-.538 1.438-.124.593-.186 1.313-.186 2.162v2.927c0 .676.038 1.272.114 1.79.082.517.203.965.362 1.344.158.373.351.68.579.921.228.241.49.421.786.538.304.11.638.165 1.004.165.469 0 .879-.089 1.231-.269.351-.179.644-.458.879-.837.241-.387.421-.88.538-1.48.117-.607.176-1.331.176-2.172z" fill="#454746"/><path d="M58.638 298.495h-6.045v-2.44h6.045c1.171 0 2.119-.186 2.844-.559.725-.373 1.254-.891 1.585-1.554.342-.663.513-1.419.513-2.269 0-.777-.17-1.507-.513-2.191-.331-.684-.86-1.233-1.585-1.648-.725-.424-1.673-.637-2.844-.637h-5.346v20.172h-2.999v-22.627h8.345c1.71 0 3.155.295 4.336.886 1.181.59 2.077 1.409 2.688 2.455.612 1.036.917 2.222.917 3.559 0 1.45-.305 2.688-.916 3.714-.612 1.026-1.508 1.808-2.689 2.347-1.181.528-2.626.792-4.336.792zm21.345 5.999v-8.656c0-.663-.135-1.238-.404-1.725a2.644 2.644 0 00-1.181-1.15c-.529-.27-1.181-.404-1.958-.404-.726 0-1.363.124-1.912.373-.539.248-.963.575-1.274.979-.3.404-.45.839-.45 1.305h-2.876c0-.601.156-1.196.466-1.787.311-.59.757-1.124 1.337-1.601.59-.487 1.295-.87 2.113-1.15.83-.29 1.751-.435 2.767-.435 1.222 0 2.3.207 3.232.622.943.414 1.678 1.041 2.207 1.88.538.829.808 1.87.808 3.124v7.832c0 .56.046 1.156.14 1.787.103.632.253 1.176.45 1.632v.249H80.45c-.145-.332-.259-.772-.342-1.321a10.676 10.676 0 01-.124-1.554zm.497-7.32l.031 2.021h-2.906c-.818 0-1.549.067-2.191.202-.642.124-1.181.316-1.616.575a2.73 2.73 0 00-.995.979c-.228.383-.342.834-.342 1.352 0 .528.12 1.01.358 1.445.238.435.595.782 1.072 1.041.487.249 1.083.373 1.787.373.88 0 1.658-.186 2.331-.559.674-.373 1.207-.829 1.6-1.368.405-.539.623-1.062.654-1.569l1.227 1.383c-.072.435-.27.917-.59 1.445a6.97 6.97 0 01-3.186 2.719c-.725.311-1.544.467-2.456.467-1.14 0-2.139-.223-2.999-.669-.85-.445-1.512-1.041-1.989-1.787a4.73 4.73 0 01-.7-2.533c0-.901.177-1.694.53-2.377a4.565 4.565 0 011.522-1.725c.663-.467 1.46-.819 2.393-1.057.933-.239 1.974-.358 3.124-.358h3.341zm13.497 2.16h-3.093v-1.771h2.86c.797 0 1.43-.099 1.896-.295.466-.208.797-.493.994-.855.197-.363.296-.788.296-1.274a2.36 2.36 0 00-.342-1.228c-.218-.394-.57-.71-1.057-.948-.487-.249-1.14-.373-1.958-.373-.663 0-1.264.119-1.803.357-.539.228-.969.544-1.29.948a2.1 2.1 0 00-.466 1.337h-2.875c0-1.026.29-1.907.87-2.642.59-.746 1.373-1.321 2.347-1.725.984-.404 2.056-.606 3.217-.606.974 0 1.844.109 2.61.326.777.207 1.435.518 1.974.933.539.404.948.911 1.228 1.523.29.6.435 1.3.435 2.098 0 .569-.135 1.108-.404 1.616a4.22 4.22 0 01-1.166 1.352c-.507.383-1.124.684-1.849.901-.715.218-1.523.326-2.424.326zm-3.093-1.087h3.093c1.005 0 1.89.098 2.657.295.767.186 1.41.466 1.927.839a3.56 3.56 0 011.166 1.383c.27.539.404 1.161.404 1.865 0 .787-.16 1.497-.482 2.129a4.45 4.45 0 01-1.336 1.585c-.58.435-1.275.767-2.083.995-.798.228-1.683.342-2.657.342a9.208 9.208 0 01-3.17-.56c-1.026-.373-1.87-.948-2.534-1.725-.663-.787-.994-1.787-.994-2.999h2.875c0 .508.16.989.481 1.445.322.456.767.824 1.337 1.104.58.279 1.248.419 2.005.419.808 0 1.481-.124 2.02-.373.539-.248.943-.58 1.212-.994.28-.415.42-.865.42-1.352 0-.632-.125-1.14-.373-1.523-.249-.384-.632-.663-1.15-.84-.508-.186-1.16-.279-1.958-.279h-2.86v-1.756zm16.17-4.461v20.048h-2.891v-23.28h2.642l.249 3.232zm11.329 5.036v.326c0 1.222-.145 2.357-.435 3.403-.29 1.036-.715 1.938-1.275 2.704a5.797 5.797 0 01-2.035 1.788c-.809.424-1.736.637-2.782.637-1.067 0-2.01-.176-2.829-.529a5.583 5.583 0 01-2.082-1.538c-.57-.674-1.026-1.482-1.368-2.425-.331-.942-.559-2.004-.683-3.185v-1.741c.124-1.243.357-2.357.699-3.341.342-.984.793-1.823 1.352-2.518a5.55 5.55 0 012.067-1.6c.808-.373 1.74-.56 2.797-.56 1.057 0 1.995.207 2.813.622a5.67 5.67 0 012.067 1.74c.559.757.979 1.663 1.259 2.72.29 1.046.435 2.212.435 3.497zm-2.891.326v-.326c0-.84-.088-1.627-.264-2.363a5.979 5.979 0 00-.824-1.958 3.92 3.92 0 00-1.398-1.336c-.57-.332-1.249-.497-2.036-.497-.725 0-1.357.124-1.896.373a4.09 4.09 0 00-1.352 1.01 5.354 5.354 0 00-.917 1.429 8.227 8.227 0 00-.513 1.648v4.025c.208.725.498 1.409.871 2.051.373.632.87 1.145 1.491 1.539.622.383 1.404.575 2.347.575.777 0 1.445-.161 2.005-.482a4.053 4.053 0 001.398-1.352c.373-.57.648-1.223.824-1.958.176-.746.264-1.539.264-2.378zm13.854 8.532c-1.17 0-2.232-.197-3.185-.591a7.216 7.216 0 01-2.44-1.694 7.516 7.516 0 01-1.554-2.579c-.363-.995-.544-2.083-.544-3.264v-.653c0-1.367.202-2.585.606-3.652.404-1.077.953-1.989 1.647-2.735a7.07 7.07 0 012.362-1.694 6.794 6.794 0 012.735-.575c1.202 0 2.238.207 3.108.622a5.665 5.665 0 012.161 1.74c.559.736.973 1.606 1.243 2.611.269.995.404 2.083.404 3.264v1.29h-12.557v-2.347h9.682v-.218a7.19 7.19 0 00-.466-2.175 3.911 3.911 0 00-1.244-1.741c-.569-.456-1.346-.684-2.331-.684a3.91 3.91 0 00-1.802.42 3.838 3.838 0 00-1.415 1.212c-.393.539-.699 1.197-.916 1.974-.218.777-.327 1.673-.327 2.688v.653c0 .798.109 1.549.327 2.253.228.695.554 1.306.979 1.834.435.529.958.943 1.569 1.243.622.301 1.326.451 2.114.451 1.015 0 1.875-.207 2.579-.622a6.385 6.385 0 001.85-1.662l1.74 1.383a7.997 7.997 0 01-1.383 1.569c-.559.498-1.248.902-2.067 1.212-.808.311-1.766.467-2.875.467zm10.467-17.126h2.875v14.453h6.154v-14.453h2.89v14.453h6.139v-14.453h2.875v16.815h-20.933v-16.815zm28.943 12.262l7.755-12.262h2.891v16.815h-2.891v-12.262l-7.755 12.262h-2.859v-16.815h2.859v12.262zm22.433-12.262v16.815h-2.891v-16.815h2.891zm5.641 0v2.331h-14.064v-2.331h14.064zm5.509 5.781h5.051c1.357 0 2.502.238 3.434.715.932.466 1.637 1.114 2.114 1.943.486.818.73 1.75.73 2.797 0 .777-.135 1.507-.404 2.191a4.933 4.933 0 01-1.212 1.772c-.529.507-1.187.906-1.974 1.196-.777.28-1.673.42-2.688.42h-7.149v-16.815h2.875v14.453h4.274c.828 0 1.491-.15 1.989-.451.497-.3.855-.689 1.072-1.165.218-.477.326-.974.326-1.492 0-.508-.108-1.005-.326-1.492-.217-.487-.575-.891-1.072-1.212-.498-.332-1.161-.498-1.989-.498h-5.051v-2.362zm34.655-5.781v2.378h-8.501v-2.378h8.501zm-8.081 0v16.815h-2.875v-16.815h2.875zm10.629 0v16.815h-2.89v-16.815h2.89zm7.809 3.232v20.048h-2.89v-23.28h2.641l.249 3.232zm11.329 5.036v.326c0 1.222-.145 2.357-.435 3.403-.29 1.036-.715 1.938-1.274 2.704a5.8 5.8 0 01-2.036 1.788c-.808.424-1.735.637-2.782.637-1.067 0-2.01-.176-2.828-.529a5.579 5.579 0 01-2.083-1.538c-.569-.674-1.025-1.482-1.367-2.425-.332-.942-.56-2.004-.684-3.185v-1.741c.124-1.243.357-2.357.699-3.341.342-.984.793-1.823 1.352-2.518a5.55 5.55 0 012.067-1.6c.808-.373 1.741-.56 2.798-.56 1.056 0 1.994.207 2.812.622a5.653 5.653 0 012.067 1.74c.56.757.979 1.663 1.259 2.72.29 1.046.435 2.212.435 3.497zm-2.89.326v-.326c0-.84-.088-1.627-.265-2.363-.176-.745-.45-1.398-.823-1.958a3.93 3.93 0 00-1.399-1.336c-.57-.332-1.248-.497-2.036-.497-.725 0-1.357.124-1.896.373a4.09 4.09 0 00-1.352 1.01 5.379 5.379 0 00-.917 1.429 8.29 8.29 0 00-.512 1.648v4.025c.207.725.497 1.409.87 2.051.373.632.87 1.145 1.492 1.539.621.383 1.404.575 2.346.575.777 0 1.446-.161 2.005-.482a4.064 4.064 0 001.399-1.352c.373-.57.647-1.223.823-1.958.177-.746.265-1.539.265-2.378zm9.984 3.668l7.755-12.262h2.89v16.815h-2.89v-12.262l-7.755 12.262h-2.859v-16.815h2.859v12.262zm26.815-12.262v2.378h-8.128v-2.378h8.128zm2.533 0v16.815h-2.875v-16.815h2.875zm-11.36 0h2.89l-.435 8.112a29.887 29.887 0 01-.357 3.326c-.155.953-.373 1.771-.653 2.455-.269.684-.611 1.244-1.025 1.679-.405.424-.891.74-1.461.948-.57.196-1.228.295-1.974.295h-.901v-2.533l.621-.047c.446-.031.824-.135 1.135-.311.321-.176.59-.435.808-.777.217-.352.394-.803.528-1.352a12.43 12.43 0 00.327-1.958c.083-.756.145-1.637.186-2.642l.311-7.195zm15.548 8.594v-.357c0-1.213.176-2.337.528-3.373.353-1.046.86-1.953 1.523-2.719a6.797 6.797 0 012.409-1.803c.943-.435 2-.653 3.17-.653 1.181 0 2.243.218 3.186.653a6.764 6.764 0 012.424 1.803c.674.766 1.187 1.673 1.539 2.719.352 1.036.528 2.16.528 3.373v.357c0 1.212-.176 2.336-.528 3.372a8.058 8.058 0 01-1.539 2.72 7.06 7.06 0 01-2.408 1.803c-.933.424-1.99.637-3.171.637-1.181 0-2.243-.213-3.185-.637a7.223 7.223 0 01-2.425-1.803 8.23 8.23 0 01-1.523-2.72c-.352-1.036-.528-2.16-.528-3.372zm2.875-.357v.357c0 .839.098 1.632.295 2.378.197.735.492 1.388.886 1.958.404.57.907 1.02 1.507 1.352.601.321 1.301.482 2.098.482.788 0 1.477-.161 2.067-.482a4.344 4.344 0 001.492-1.352c.394-.57.689-1.223.886-1.958a8.86 8.86 0 00.311-2.378v-.357c0-.829-.104-1.612-.311-2.347a6.05 6.05 0 00-.901-1.974 4.28 4.28 0 00-1.492-1.367c-.591-.332-1.285-.498-2.083-.498-.787 0-1.481.166-2.082.498a4.462 4.462 0 00-1.492 1.367 6.24 6.24 0 00-.886 1.974 9.037 9.037 0 00-.295 2.347zm21.111 1.258l-6.371-9.495h3.465l4.352 6.962h3.356l-.419 2.533h-4.383zm1.57-.295l-4.88 7.615h-3.636l6.698-9.697 1.818 2.082zm4.709-9.2v16.815H326.7v-16.815h2.875zm9.806 0l-6.372 9.495h-4.382l-.451-2.533h3.372l4.352-6.962h3.481zm-3.077 16.815l-4.895-7.615 1.849-2.082 6.682 9.697h-3.636zm13.279.311c-1.171 0-2.233-.197-3.186-.591a7.226 7.226 0 01-2.44-1.694 7.547 7.547 0 01-1.554-2.579c-.362-.995-.544-2.083-.544-3.264v-.653c0-1.367.202-2.585.606-3.652.404-1.077.953-1.989 1.648-2.735a7.06 7.06 0 012.362-1.694 6.787 6.787 0 012.735-.575c1.202 0 2.238.207 3.108.622a5.654 5.654 0 012.16 1.74c.56.736.974 1.606 1.243 2.611.27.995.404 2.083.404 3.264v1.29h-12.556v-2.347h9.681v-.218a7.13 7.13 0 00-.466-2.175 3.909 3.909 0 00-1.243-1.741c-.57-.456-1.347-.684-2.331-.684a3.91 3.91 0 00-1.803.42 3.835 3.835 0 00-1.414 1.212c-.394.539-.699 1.197-.917 1.974-.217.777-.326 1.673-.326 2.688v.653c0 .798.109 1.549.326 2.253.228.695.554 1.306.979 1.834.435.529.959.943 1.57 1.243.621.301 1.326.451 2.113.451 1.016 0 1.876-.207 2.58-.622a6.369 6.369 0 001.849-1.662l1.741 1.383a8.063 8.063 0 01-1.383 1.569c-.56.498-1.249.902-2.067 1.212-.808.311-1.767.467-2.875.467zm21.624-9.837v2.331h-8.889v-2.331h8.889zm-8.283-7.289v16.815h-2.875v-16.815h2.875zm10.614 0v16.815h-2.89v-16.815h2.89zm8.058 12.262l7.754-12.262h2.891v16.815h-2.891v-12.262l-7.754 12.262h-2.86v-16.815h2.86v12.262zm18.982-3.466h3.108l-4.864 8.019h-3.108l4.864-8.019zm2.409-8.796h7.024v16.815h-2.875v-14.484h-4.149c-.819 0-1.487.14-2.005.42-.518.269-.896.621-1.134 1.056a2.776 2.776 0 00-.031 2.673c.217.415.559.757 1.025 1.026.467.269 1.067.404 1.803.404h5.268v2.362h-5.268c-.963 0-1.818-.129-2.564-.388s-1.378-.617-1.896-1.072a4.687 4.687 0 01-1.181-1.632 5.167 5.167 0 01-.404-2.052c0-.735.14-1.414.419-2.035a4.852 4.852 0 011.244-1.632c.549-.466 1.217-.824 2.004-1.072.798-.259 1.705-.389 2.72-.389zm23.295 12.262l7.754-12.262h2.891v16.815h-2.891v-12.262l-7.754 12.262h-2.86v-16.815h2.86v12.262zm21.857-3.482h-3.093v-1.771h2.86c.798 0 1.43-.099 1.896-.295.466-.208.798-.493.994-.855.197-.363.296-.788.296-1.274a2.36 2.36 0 00-.342-1.228c-.218-.394-.57-.71-1.057-.948-.487-.249-1.14-.373-1.958-.373-.663 0-1.264.119-1.803.357-.539.228-.968.544-1.29.948-.31.394-.466.839-.466 1.337h-2.875c0-1.026.29-1.907.87-2.642.591-.746 1.373-1.321 2.347-1.725.984-.404 2.057-.606 3.217-.606.974 0 1.844.109 2.611.326.777.207 1.435.518 1.973.933.539.404.948.911 1.228 1.523.29.6.435 1.3.435 2.098 0 .569-.134 1.108-.404 1.616a4.223 4.223 0 01-1.165 1.352c-.508.383-1.124.684-1.85.901-.715.218-1.523.326-2.424.326zm-3.093-1.087h3.093c1.005 0 1.891.098 2.657.295.767.186 1.409.466 1.927.839a3.56 3.56 0 011.166 1.383c.269.539.404 1.161.404 1.865 0 .787-.161 1.497-.482 2.129a4.452 4.452 0 01-1.336 1.585c-.58.435-1.275.767-2.083.995-.797.228-1.683.342-2.657.342a9.202 9.202 0 01-3.17-.56c-1.026-.373-1.87-.948-2.533-1.725-.664-.787-.995-1.787-.995-2.999h2.875c0 .508.161.989.482 1.445.321.456.766.824 1.336 1.104.58.279 1.249.419 2.005.419.808 0 1.481-.124 2.02-.373.539-.248.943-.58 1.212-.994.28-.415.42-.865.42-1.352 0-.632-.124-1.14-.373-1.523-.249-.384-.632-.663-1.15-.84-.508-.186-1.16-.279-1.958-.279h-2.86v-1.756zM55.748 331.605a4.14 4.14 0 00-1.819.42 3.87 3.87 0 00-1.414 1.166 2.756 2.756 0 00-.544 1.693h-2.75c0-1.005.31-1.932.932-2.781a6.837 6.837 0 012.424-2.067 6.654 6.654 0 013.17-.793c1.182 0 2.228.223 3.14.668a6.643 6.643 0 012.3 1.834 8.067 8.067 0 011.43 2.689 10.49 10.49 0 01.481 3.201v.653a10.29 10.29 0 01-.497 3.217 8.27 8.27 0 01-1.43 2.688 6.63 6.63 0 01-2.3 1.834c-.901.445-1.937.668-3.108.668-1.253 0-2.377-.269-3.372-.808a6.206 6.206 0 01-2.331-2.176c-.56-.922-.84-1.958-.84-3.108h2.751a3.7 3.7 0 00.498 1.896c.341.56.797 1.005 1.367 1.337.57.331 1.212.497 1.927.497.777 0 1.446-.176 2.005-.528a4.306 4.306 0 001.399-1.399c.362-.58.626-1.228.792-1.943a9.19 9.19 0 00.264-2.175v-.653a9.07 9.07 0 00-.264-2.176 6.34 6.34 0 00-.792-1.942 4.019 4.019 0 00-1.384-1.383c-.559-.352-1.238-.529-2.035-.529zm5.874 5.02v2.347h-7.755v-2.347h7.755zm11.29-7.071v16.815h-2.89v-16.815h2.89zm5.641 0v2.331H64.49v-2.331h14.064zm1.733 8.594v-.357c0-1.213.176-2.337.528-3.373.352-1.046.86-1.953 1.523-2.719a6.8 6.8 0 012.409-1.803c.943-.435 2-.653 3.17-.653 1.181 0 2.243.218 3.186.653a6.765 6.765 0 012.424 1.803c.674.766 1.186 1.673 1.539 2.719.352 1.036.528 2.16.528 3.373v.357c0 1.212-.176 2.336-.528 3.372a8.072 8.072 0 01-1.539 2.72 7.057 7.057 0 01-2.409 1.803c-.932.424-1.989.637-3.17.637-1.181 0-2.243-.213-3.186-.637a7.216 7.216 0 01-2.424-1.803 8.217 8.217 0 01-1.523-2.72c-.352-1.036-.528-2.16-.528-3.372zm2.875-.357v.357c0 .839.098 1.632.295 2.378.197.735.492 1.388.886 1.958.404.57.906 1.02 1.507 1.352.601.321 1.3.482 2.098.482.787 0 1.476-.161 2.067-.482a4.342 4.342 0 001.492-1.352c.394-.57.689-1.223.886-1.958a8.86 8.86 0 00.31-2.378v-.357c0-.829-.103-1.612-.31-2.347a6.046 6.046 0 00-.902-1.974 4.279 4.279 0 00-1.492-1.367c-.59-.332-1.284-.498-2.082-.498-.787 0-1.482.166-2.082.498a4.467 4.467 0 00-1.492 1.367 6.244 6.244 0 00-.886 1.974 9.045 9.045 0 00-.295 2.347zm27.218-8.237v2.378h-7.77v14.437h-2.875v-16.815h10.645zm1.748 8.594v-.357c0-1.213.177-2.337.529-3.373.352-1.046.86-1.953 1.523-2.719a6.797 6.797 0 012.409-1.803c.942-.435 1.999-.653 3.17-.653 1.181 0 2.243.218 3.186.653a6.764 6.764 0 012.424 1.803c.673.766 1.186 1.673 1.538 2.719.353 1.036.529 2.16.529 3.373v.357c0 1.212-.176 2.336-.529 3.372a8.073 8.073 0 01-1.538 2.72 7.055 7.055 0 01-2.409 1.803c-.932.424-1.989.637-3.17.637-1.181 0-2.243-.213-3.186-.637a7.209 7.209 0 01-2.424-1.803 8.213 8.213 0 01-1.523-2.72c-.352-1.036-.529-2.16-.529-3.372zm2.875-.357v.357c0 .839.099 1.632.296 2.378.197.735.492 1.388.886 1.958.404.57.906 1.02 1.507 1.352.601.321 1.3.482 2.098.482.787 0 1.476-.161 2.067-.482a4.344 4.344 0 001.492-1.352c.393-.57.689-1.223.886-1.958a8.86 8.86 0 00.31-2.378v-.357c0-.829-.103-1.612-.31-2.347a6.051 6.051 0 00-.902-1.974 4.28 4.28 0 00-1.492-1.367c-.59-.332-1.284-.498-2.082-.498-.788 0-1.482.166-2.083.498a4.468 4.468 0 00-1.491 1.367 6.24 6.24 0 00-.886 1.974 9.037 9.037 0 00-.296 2.347zm27.677 4.025l7.755-12.262h2.891v16.815h-2.891v-12.262l-7.755 12.262h-2.859v-16.815h2.859v12.262zm22.309 2.502a4.31 4.31 0 001.896-.42 3.907 3.907 0 001.429-1.15 3.194 3.194 0 00.637-1.694h2.736c-.052.995-.389 1.922-1.011 2.782-.611.849-1.414 1.538-2.408 2.067-.995.518-2.088.777-3.279.777-1.264 0-2.368-.223-3.311-.669a6.56 6.56 0 01-2.331-1.833 8.2 8.2 0 01-1.383-2.673c-.3-1.016-.45-2.088-.45-3.217v-.653c0-1.129.15-2.196.45-3.201a8.172 8.172 0 011.383-2.689 6.574 6.574 0 012.331-1.834c.943-.445 2.047-.668 3.311-.668 1.315 0 2.465.27 3.45.808a5.935 5.935 0 012.315 2.176c.57.912.881 1.948.933 3.108h-2.736a4.127 4.127 0 00-.59-1.88 3.681 3.681 0 00-1.368-1.337c-.569-.342-1.238-.513-2.004-.513-.881 0-1.622.177-2.223.529a3.9 3.9 0 00-1.414 1.398 6.553 6.553 0 00-.746 1.943 10.687 10.687 0 00-.217 2.16v.653c0 .735.072 1.461.217 2.175.145.715.389 1.363.731 1.943.352.58.823 1.046 1.414 1.399.601.342 1.347.513 2.238.513zm17.102-14.764v16.815h-2.891v-16.815h2.891zm5.641 0v2.331h-14.064v-2.331h14.064zm1.732 8.594v-.357c0-1.213.176-2.337.529-3.373.352-1.046.86-1.953 1.523-2.719a6.802 6.802 0 012.408-1.803c.943-.435 2-.653 3.171-.653 1.181 0 2.243.218 3.185.653a6.759 6.759 0 012.425 1.803c.673.766 1.186 1.673 1.538 2.719.353 1.036.529 2.16.529 3.373v.357c0 1.212-.176 2.336-.529 3.372a8.073 8.073 0 01-1.538 2.72 7.055 7.055 0 01-2.409 1.803c-.932.424-1.989.637-3.17.637-1.181 0-2.243-.213-3.186-.637a7.209 7.209 0 01-2.424-1.803 8.213 8.213 0 01-1.523-2.72c-.353-1.036-.529-2.16-.529-3.372zm2.875-.357v.357c0 .839.099 1.632.296 2.378.196.735.492 1.388.885 1.958.404.57.907 1.02 1.508 1.352.601.321 1.3.482 2.098.482.787 0 1.476-.161 2.067-.482a4.344 4.344 0 001.492-1.352c.393-.57.689-1.223.885-1.958a8.82 8.82 0 00.311-2.378v-.357c0-.829-.103-1.612-.311-2.347a6.029 6.029 0 00-.901-1.974 4.28 4.28 0 00-1.492-1.367c-.59-.332-1.285-.498-2.082-.498-.788 0-1.482.166-2.083.498a4.471 4.471 0 00-1.492 1.367 6.239 6.239 0 00-.885 1.974 9.037 9.037 0 00-.296 2.347zm29.037-8.237v16.815H218.5v-16.815h2.875zm-.979 7.724v2.362c-.58.217-1.17.414-1.771.59a16.09 16.09 0 01-1.881.404 14.97 14.97 0 01-2.129.14c-1.326 0-2.476-.228-3.45-.683a5.025 5.025 0 01-2.253-2.098c-.528-.943-.793-2.129-.793-3.559v-4.911h2.875v4.911c0 .932.14 1.689.42 2.269.28.58.689 1.01 1.228 1.29.538.269 1.196.404 1.973.404.746 0 1.446-.047 2.098-.14a17.267 17.267 0 001.896-.404 20.248 20.248 0 001.787-.575zm17.336-.435v2.331h-8.89v-2.331h8.89zm-8.284-7.289v16.815h-2.875v-16.815h2.875zm10.615 0v16.815h-2.891v-16.815h2.891zm8.057 12.262l7.755-12.262h2.89v16.815h-2.89v-12.262l-7.755 12.262h-2.859v-16.815h2.859v12.262zm18.703-12.262v16.815h-2.875v-16.815h2.875zm11.034 0l-7.973 9.635h-4.025l-.435-2.517h3.295l5.641-7.118h3.497zm-3.093 16.815l-6.185-7.615 1.849-2.082 7.988 9.697h-3.652zm16.387-2.875v-8.656c0-.663-.135-1.238-.404-1.725a2.646 2.646 0 00-1.181-1.15c-.528-.27-1.181-.404-1.958-.404-.725 0-1.362.124-1.912.373-.538.248-.963.575-1.274.979-.3.404-.451.839-.451 1.305h-2.875c0-.601.156-1.196.467-1.787.31-.59.756-1.124 1.336-1.601.591-.487 1.295-.87 2.114-1.15.828-.29 1.751-.435 2.766-.435 1.222 0 2.3.207 3.232.622.943.414 1.679 1.041 2.207 1.88.539.829.808 1.87.808 3.124v7.832c0 .56.047 1.156.14 1.787.104.632.254 1.176.451 1.632v.249h-3c-.145-.332-.259-.772-.342-1.321a10.787 10.787 0 01-.124-1.554zm.497-7.32l.032 2.021h-2.907c-.818 0-1.548.067-2.191.202-.642.124-1.181.316-1.616.575a2.734 2.734 0 00-.995.979c-.228.383-.341.834-.341 1.352 0 .528.119 1.01.357 1.445.238.435.596.782 1.072 1.041.487.249 1.083.373 1.787.373.881 0 1.658-.186 2.331-.559.674-.373 1.207-.829 1.601-1.368.404-.539.622-1.062.653-1.569l1.228 1.383c-.073.435-.27.917-.591 1.445a6.91 6.91 0 01-1.29 1.523 6.959 6.959 0 01-1.896 1.196c-.725.311-1.543.467-2.455.467-1.14 0-2.14-.223-2.999-.669-.85-.445-1.513-1.041-1.99-1.787-.466-.756-.699-1.6-.699-2.533 0-.901.176-1.694.528-2.377.353-.695.86-1.27 1.523-1.725.663-.467 1.461-.819 2.394-1.057.932-.239 1.973-.358 3.123-.358h3.341z" fill="#222"/><path d="M66.812 47.543H44.033l9.952-9.651a1.95 1.95 0 000-2.808 2.076 2.076 0 00-2.875 0L37.67 48.117a1.928 1.928 0 000 2.789l13.44 13.033c.795.771 2.08.771 2.875 0a1.928 1.928 0 000-2.789l-9.952-9.65h22.78c1.121 0 2.039-.89 2.039-1.978s-.918-1.978-2.04-1.978zm40.874 2.705l5.422-13.907h4.059l-7.415 17.468c-.234.538-.503 1.06-.806 1.568a5.863 5.863 0 01-1.07 1.334c-.42.39-.928.703-1.524.938-.596.224-1.318.337-2.168.337-.225 0-.499-.01-.821-.03-.313-.02-.542-.039-.689-.058l.029-2.887c.118.02.313.034.587.044.283.01.488.014.615.014.567 0 1.016-.092 1.348-.278.333-.195.596-.454.792-.777.205-.332.386-.693.542-1.084l1.099-2.682zm-4.074-13.907l5.364 11.812 1.055 3.84-2.858.102-7.576-15.754h4.015zm22.384 18.816c.576 0 1.094-.112 1.553-.337a2.949 2.949 0 001.129-.967c.293-.41.454-.884.483-1.421h3.327a4.958 4.958 0 01-.909 2.799c-.586.84-1.363 1.51-2.33 2.007-.967.489-2.037.733-3.209.733-1.212 0-2.267-.205-3.166-.615a6.266 6.266 0 01-2.242-1.73 7.613 7.613 0 01-1.348-2.535 10.464 10.464 0 01-.44-3.077V49.5c0-1.094.147-2.12.44-3.078a7.59 7.59 0 011.348-2.55 6.124 6.124 0 012.242-1.714c.899-.42 1.949-.63 3.151-.63 1.27 0 2.384.254 3.341.762a5.624 5.624 0 012.257 2.095c.557.89.845 1.925.865 3.107h-3.327a3.547 3.547 0 00-.439-1.583 2.905 2.905 0 00-1.085-1.143c-.459-.283-1.011-.425-1.656-.425-.713 0-1.304.147-1.773.44a2.958 2.958 0 00-1.099 1.172 5.73 5.73 0 00-.572 1.656 10.85 10.85 0 00-.161 1.89v.514c0 .654.054 1.29.161 1.905.108.615.293 1.167.557 1.656a3.25 3.25 0 001.114 1.157c.469.284 1.065.425 1.788.425zm17.46-13.335v15.856h-3.547V41.822h3.547zm5.202 0v2.784h-13.863v-2.784h13.863zm11.965 12.676v-7.562c0-.566-.103-1.055-.308-1.465a2.155 2.155 0 00-.938-.953c-.41-.224-.928-.337-1.553-.337-.577 0-1.075.098-1.495.293-.42.196-.748.46-.982.792a1.906 1.906 0 00-.352 1.128h-3.517c0-.625.152-1.23.454-1.817.303-.586.743-1.109 1.319-1.568.577-.46 1.265-.82 2.067-1.084.801-.264 1.7-.396 2.696-.396 1.192 0 2.247.2 3.165.6.928.401 1.656 1.007 2.184 1.818.537.8.806 1.807.806 3.019v7.048c0 .723.049 1.373.146 1.95a6.29 6.29 0 00.455 1.48v.234h-3.62c-.166-.381-.298-.865-.396-1.45a11.834 11.834 0 01-.131-1.73zm.512-6.463l.03 2.184h-2.535c-.655 0-1.231.063-1.73.19-.498.118-.913.294-1.245.528a2.284 2.284 0 00-.748.85 2.49 2.49 0 00-.249 1.128c0 .42.098.806.293 1.158.196.342.479.61.85.806.381.195.84.293 1.378.293.723 0 1.353-.146 1.89-.44.547-.302.977-.669 1.29-1.099.312-.44.478-.855.498-1.245L162 53.956c-.117.4-.317.83-.601 1.29a6.212 6.212 0 01-1.114 1.318c-.449.41-.991.748-1.626 1.011-.625.264-1.348.396-2.169.396-1.036 0-1.959-.205-2.77-.615-.811-.42-1.446-.982-1.905-1.686-.459-.713-.689-1.519-.689-2.418 0-.84.157-1.582.469-2.227a4.375 4.375 0 011.407-1.641c.625-.44 1.387-.772 2.286-.997.899-.234 1.925-.352 3.078-.352h2.769zm18.457.41v2.785h-8.207v-2.784h8.207zm-7.181-6.623v15.856h-3.532V41.822h3.532zm9.731 0v15.856h-3.532V41.822h3.532zm3.992 8.104v-.337c0-1.143.166-2.203.498-3.18.333-.987.811-1.842 1.437-2.565a6.476 6.476 0 012.315-1.7c.918-.41 1.954-.615 3.107-.615 1.162 0 2.198.205 3.106.615.919.4 1.695.968 2.33 1.7a7.423 7.423 0 011.451 2.565c.332.977.498 2.037.498 3.18v.337c0 1.143-.166 2.203-.498 3.18a7.606 7.606 0 01-1.451 2.564 6.715 6.715 0 01-2.315 1.7c-.909.4-1.939.601-3.092.601-1.163 0-2.203-.2-3.121-.6a6.719 6.719 0 01-2.316-1.7 7.623 7.623 0 01-1.451-2.565c-.332-.977-.498-2.037-.498-3.18zm3.532-.337v.337c0 .713.073 1.387.22 2.022.146.635.376 1.192.688 1.67.313.48.714.855 1.202 1.13.489.273 1.07.41 1.744.41.655 0 1.221-.137 1.7-.41.488-.274.889-.65 1.202-1.13a5.142 5.142 0 00.688-1.67 8.4 8.4 0 00.235-2.022v-.337a8.16 8.16 0 00-.235-1.993 5.115 5.115 0 00-.703-1.685 3.363 3.363 0 00-1.202-1.144c-.478-.283-1.05-.425-1.714-.425-.665 0-1.241.142-1.73.425a3.412 3.412 0 00-1.187 1.143 5.316 5.316 0 00-.688 1.686 8.688 8.688 0 00-.22 1.993zm22.779 1.304h-5.07l-.029-2.491h4.161c.684 0 1.246-.069 1.686-.205.449-.137.781-.342.996-.616.215-.283.323-.625.323-1.026 0-.332-.064-.62-.191-.864a1.476 1.476 0 00-.586-.616c-.254-.166-.577-.283-.967-.352a6.701 6.701 0 00-1.334-.117h-2.887v13.072h-3.532V41.822h6.419c1.016 0 1.93.088 2.741.264.82.175 1.519.444 2.095.806a3.7 3.7 0 011.319 1.377c.313.547.469 1.192.469 1.935 0 .488-.108.947-.322 1.377a3.3 3.3 0 01-.924 1.143c-.41.332-.913.606-1.509.82-.596.206-1.28.333-2.052.382l-.806.967zm0 6.785h-6.096l1.407-2.784h4.689c.626 0 1.143-.078 1.554-.235.41-.156.713-.38.908-.674.205-.303.308-.66.308-1.07 0-.42-.098-.781-.293-1.084-.196-.303-.498-.533-.909-.689-.4-.166-.923-.249-1.568-.249h-4.03l.03-2.491h4.792l1.011.967c1.006.068 1.841.283 2.506.645.664.361 1.162.816 1.494 1.363.333.547.499 1.143.499 1.787 0 .743-.142 1.398-.425 1.964a3.656 3.656 0 01-1.231 1.422c-.538.37-1.197.654-1.979.85-.781.185-1.67.278-2.667.278zm14.06-15.856v15.856h-3.531V41.822h3.531zm10.346 0l-7.136 9.54h-4.03l-.469-3.195h2.945l4.279-6.345h4.411zm-4.132 15.856l-4.778-6.917 2.785-2.008 6.638 8.925h-4.645zm16.405-3.18v-7.562c0-.566-.103-1.055-.308-1.465a2.155 2.155 0 00-.938-.953c-.41-.224-.928-.337-1.553-.337-.577 0-1.075.098-1.495.293-.42.196-.748.46-.982.792a1.913 1.913 0 00-.352 1.128h-3.517c0-.625.152-1.23.455-1.817.302-.586.742-1.109 1.318-1.568.577-.46 1.266-.82 2.067-1.084.801-.264 1.7-.396 2.696-.396 1.192 0 2.247.2 3.165.6.929.401 1.656 1.007 2.184 1.818.537.8.806 1.807.806 3.019v7.048c0 .723.049 1.373.147 1.95a6.25 6.25 0 00.454 1.48v.234h-3.62c-.166-.381-.298-.865-.396-1.45a11.975 11.975 0 01-.131-1.73zm.512-6.463l.03 2.184h-2.535c-.655 0-1.231.063-1.73.19-.498.118-.913.294-1.245.528a2.293 2.293 0 00-.748.85 2.49 2.49 0 00-.249 1.128c0 .42.098.806.293 1.158.196.342.479.61.85.806.381.195.84.293 1.378.293.723 0 1.353-.146 1.89-.44.547-.302.977-.669 1.29-1.099.312-.44.479-.855.498-1.245l1.143 1.568c-.117.4-.317.83-.601 1.29a6.236 6.236 0 01-1.113 1.318c-.45.41-.992.748-1.627 1.011-.625.264-1.348.396-2.169.396-1.036 0-1.959-.205-2.77-.615-.811-.42-1.446-.982-1.905-1.686-.459-.713-.688-1.519-.688-2.418 0-.84.156-1.582.468-2.227a4.375 4.375 0 011.407-1.641c.626-.44 1.388-.772 2.286-.997.899-.234 1.925-.352 3.078-.352h2.769zm26.641-6.213v2.813h-7.826v-2.813h7.826zm-6.991 0v15.856h-3.531V41.822h3.531zm9.76 0v15.856H275.5V41.822h3.546zm8.184 3.048v18.904h-3.532V41.822h3.253l.279 3.048zm10.331 4.733v.308c0 1.153-.137 2.223-.41 3.21-.264.976-.66 1.831-1.187 2.564a5.47 5.47 0 01-1.92 1.685c-.762.4-1.641.601-2.638.601-.986 0-1.851-.18-2.594-.542a5.322 5.322 0 01-1.861-1.568c-.508-.674-.918-1.466-1.231-2.374a15.303 15.303 0 01-.644-3.019v-1.187a16.22 16.22 0 01.644-3.165c.313-.948.723-1.764 1.231-2.448a5.262 5.262 0 011.861-1.582c.733-.372 1.588-.557 2.565-.557.997 0 1.881.195 2.652.586a5.342 5.342 0 011.95 1.641c.527.704.923 1.554 1.187 2.55.263.987.395 2.086.395 3.297zm-3.532.308v-.308c0-.732-.068-1.411-.205-2.037a5.302 5.302 0 00-.644-1.67 3.168 3.168 0 00-1.129-1.114c-.449-.273-.991-.41-1.627-.41-.625 0-1.162.107-1.612.322a3.093 3.093 0 00-1.128.865 4.078 4.078 0 00-.703 1.304 7.795 7.795 0 00-.352 1.597v2.843a7.07 7.07 0 00.601 1.935 3.515 3.515 0 001.201 1.407c.528.341 1.202.512 2.023.512.635 0 1.177-.136 1.626-.41.45-.273.816-.65 1.1-1.128.293-.489.508-1.05.644-1.686a9.572 9.572 0 00.205-2.022zm11.086 2.609l6.228-10.698h3.532v15.856h-3.532V46.966l-6.228 10.712h-3.532V41.822h3.532V52.52zm25.051-10.698v2.813h-7.738v-2.813h7.738zm2.769 0v15.856h-3.531V41.822h3.531zm-11.372 0h3.488l-.425 7.84c-.058 1.163-.176 2.188-.352 3.077-.166.88-.39 1.637-.674 2.272-.283.625-.63 1.133-1.04 1.524-.41.39-.889.679-1.436.865-.547.185-1.163.278-1.847.278h-1.099l-.014-2.902.556-.044c.362-.029.675-.122.938-.278.264-.166.489-.4.674-.703.196-.303.352-.694.469-1.173.127-.479.225-1.045.293-1.7.079-.654.137-1.416.176-2.286l.293-6.77zm15.35 8.104v-.337c0-1.143.166-2.203.498-3.18.332-.987.811-1.842 1.436-2.565a6.48 6.48 0 012.316-1.7c.918-.41 1.954-.615 3.107-.615 1.162 0 2.198.205 3.106.615.919.4 1.695.968 2.33 1.7a7.423 7.423 0 011.451 2.565c.332.977.498 2.037.498 3.18v.337c0 1.143-.166 2.203-.498 3.18a7.606 7.606 0 01-1.451 2.564 6.715 6.715 0 01-2.315 1.7c-.909.4-1.939.601-3.092.601-1.163 0-2.203-.2-3.122-.6a6.725 6.725 0 01-2.315-1.7 7.606 7.606 0 01-1.451-2.565c-.332-.977-.498-2.037-.498-3.18zm3.532-.337v.337c0 .713.073 1.387.22 2.022.146.635.376 1.192.688 1.67.313.48.714.855 1.202 1.13.488.273 1.07.41 1.744.41.654 0 1.221-.137 1.7-.41a3.4 3.4 0 001.201-1.13 5.122 5.122 0 00.689-1.67 8.4 8.4 0 00.235-2.022v-.337a8.16 8.16 0 00-.235-1.993 5.115 5.115 0 00-.703-1.685 3.363 3.363 0 00-1.202-1.144c-.479-.283-1.05-.425-1.714-.425-.665 0-1.241.142-1.73.425a3.412 3.412 0 00-1.187 1.143 5.316 5.316 0 00-.688 1.686 8.688 8.688 0 00-.22 1.993zm20.01 1.685l-6.331-9.452h4.338l3.692 6.243h3.093l-.455 3.209h-4.337zm1.787-.513l-4.059 6.917h-4.338l5.745-8.925 2.652 2.008zm5.129-8.94v15.857h-3.517V41.822h3.517zm9.775 0l-6.331 9.453h-4.352l-.469-3.21h3.107l3.693-6.242h4.352zm-4.074 15.857l-4.074-6.917 2.74-2.008 5.716 8.925h-4.382zm14.221.293c-1.172 0-2.232-.19-3.18-.571a7.014 7.014 0 01-2.403-1.627 7.192 7.192 0 01-1.509-2.447 8.563 8.563 0 01-.528-3.034v-.586c0-1.24.181-2.364.542-3.37.362-1.007.865-1.867 1.51-2.58a6.472 6.472 0 012.286-1.656 7.105 7.105 0 012.857-.571c1.134 0 2.125.19 2.975.571.85.381 1.553.919 2.11 1.612.567.684.987 1.5 1.261 2.448.283.947.425 1.993.425 3.136v1.509h-12.251V48.27h8.763v-.279a4.979 4.979 0 00-.381-1.787 3.041 3.041 0 00-1.041-1.349c-.469-.342-1.094-.513-1.875-.513-.587 0-1.109.127-1.568.382a3.1 3.1 0 00-1.129 1.07c-.303.468-.537 1.035-.703 1.7-.157.654-.235 1.391-.235 2.212v.586c0 .694.093 1.339.279 1.934.195.587.478 1.1.85 1.54.371.439.82.786 1.348 1.04.527.244 1.128.366 1.802.366.85 0 1.608-.17 2.272-.513a5.205 5.205 0 001.729-1.45l1.861 1.802a7.26 7.26 0 01-1.333 1.436c-.547.45-1.217.816-2.008 1.1-.782.282-1.69.424-2.726.424zm20.831-9.525v2.784h-8.207v-2.784h8.207zm-7.181-6.624v15.856h-3.532V41.822h3.532zm9.731 0v15.856h-3.532V41.822h3.532zm8.315 10.698l6.228-10.698h3.532v15.856h-3.532V46.966l-6.228 10.712h-3.532V41.822h3.532V52.52zm18.046 0l6.228-10.698h3.532v15.856h-3.532V46.966l-6.228 10.712h-3.532V41.822h3.532V52.52zm5.29-16.794h2.624c0 .81-.196 1.529-.587 2.154-.381.615-.928 1.099-1.641 1.45-.703.352-1.544.528-2.521.528-1.475 0-2.642-.38-3.502-1.143-.85-.772-1.275-1.768-1.275-2.99h2.623c0 .548.161 1.031.484 1.451.332.41.889.616 1.67.616.772 0 1.319-.205 1.642-.616a2.32 2.32 0 00.483-1.45zm21.13 16.794l6.228-10.698h3.532v15.856h-3.532V46.966l-6.228 10.712h-3.531V41.822h3.531V52.52zm20.963-2.418h-3.049v-1.788h2.462c.626 0 1.124-.083 1.495-.25.381-.165.65-.395.806-.688a2.16 2.16 0 00.249-1.055c0-.352-.083-.684-.249-.997-.156-.322-.425-.586-.806-.791-.381-.205-.899-.308-1.553-.308a3.8 3.8 0 00-1.451.264c-.42.176-.752.42-.997.733a1.713 1.713 0 00-.366 1.084h-3.532c0-.987.279-1.837.836-2.55.566-.713 1.324-1.26 2.271-1.641.948-.381 1.988-.572 3.122-.572.967 0 1.836.103 2.608.308.772.196 1.426.489 1.964.88.547.38.962.86 1.245 1.436.293.566.44 1.226.44 1.978 0 .537-.127 1.045-.381 1.524-.254.479-.62.904-1.099 1.275-.479.361-1.06.645-1.744.85-.674.205-1.431.308-2.271.308zm-3.049-1.026h3.049c.937 0 1.768.093 2.491.278.723.176 1.329.44 1.817.792a3.35 3.35 0 011.099 1.304c.254.508.381 1.094.381 1.758 0 .743-.161 1.412-.484 2.008a4.262 4.262 0 01-1.348 1.495c-.576.41-1.265.723-2.066.938-.801.215-1.685.322-2.652.322a9.183 9.183 0 01-3.078-.527c-.987-.352-1.802-.894-2.447-1.627-.635-.743-.953-1.685-.953-2.828h3.532c0 .4.122.776.366 1.128.245.352.596.64 1.055.865.46.215 1.012.322 1.656.322.665 0 1.207-.103 1.627-.308.42-.215.733-.493.938-.835a2.18 2.18 0 00.308-1.114c0-.527-.103-.952-.308-1.275-.205-.322-.518-.557-.938-.703-.42-.157-.948-.235-1.583-.235h-2.462v-1.758zm-369.858 42.37v2.784h-8.207v-2.784h8.207zm-7.181-6.624v15.856h-3.532V84.822h3.532zm9.731 0v15.856h-3.532V84.822h3.532zm11.656 16.149c-1.172 0-2.232-.19-3.18-.571a7.02 7.02 0 01-2.403-1.627 7.192 7.192 0 01-1.509-2.447 8.563 8.563 0 01-.528-3.034v-.586c0-1.24.181-2.364.542-3.37.362-1.007.865-1.867 1.51-2.58a6.49 6.49 0 012.286-1.656 7.108 7.108 0 012.857-.571c1.134 0 2.125.19 2.975.571.85.381 1.554.919 2.111 1.612.566.684.986 1.5 1.26 2.448.283.947.425 1.993.425 3.136v1.509h-12.251V91.27h8.763v-.279a4.979 4.979 0 00-.381-1.787 3.047 3.047 0 00-1.04-1.349c-.469-.342-1.095-.513-1.876-.513-.586 0-1.109.127-1.568.382a3.1 3.1 0 00-1.129 1.07c-.303.468-.537 1.035-.703 1.7a9.569 9.569 0 00-.235 2.212v.586c0 .694.093 1.339.279 1.934.195.587.479 1.1.85 1.54.371.439.82.786 1.348 1.04.528.244 1.128.366 1.803.366.85 0 1.607-.17 2.271-.513a5.205 5.205 0 001.729-1.45l1.861 1.802a7.26 7.26 0 01-1.333 1.436c-.547.45-1.217.816-2.008 1.099-.781.283-1.69.425-2.726.425zm13.65-5.451l6.228-10.698h3.532v15.856h-3.532V89.966l-6.228 10.712h-3.532V84.822h3.532V95.52zm20.962-2.418h-3.048v-1.788h2.462c.625 0 1.124-.083 1.495-.25.381-.165.65-.395.806-.688a2.16 2.16 0 00.249-1.055c0-.352-.083-.684-.249-.997-.156-.322-.425-.586-.806-.791-.381-.205-.899-.308-1.553-.308a3.8 3.8 0 00-1.451.264c-.42.176-.752.42-.997.733a1.713 1.713 0 00-.366 1.084h-3.532c0-.987.279-1.837.836-2.55.566-.713 1.323-1.26 2.271-1.641s1.988-.572 3.121-.572c.968 0 1.837.103 2.609.308.772.196 1.426.489 1.964.88.547.38.962.86 1.245 1.436.293.566.44 1.226.44 1.978 0 .537-.127 1.045-.381 1.524a3.98 3.98 0 01-1.099 1.275c-.479.361-1.06.645-1.744.85-.674.205-1.431.308-2.272.308zm-3.048-1.026h3.048c.938 0 1.769.093 2.492.278.723.176 1.328.44 1.817.792a3.35 3.35 0 011.099 1.304c.254.508.381 1.094.381 1.758 0 .743-.161 1.412-.484 2.008a4.262 4.262 0 01-1.348 1.495c-.576.41-1.265.723-2.066.938-.801.215-1.685.322-2.653.322a9.194 9.194 0 01-3.077-.527c-.987-.352-1.803-.894-2.447-1.627-.635-.743-.953-1.685-.953-2.828h3.532c0 .4.122.776.366 1.128.244.352.596.64 1.055.865.459.215 1.011.322 1.656.322.665 0 1.207-.103 1.627-.308.42-.215.733-.493.938-.835a2.18 2.18 0 00.308-1.114c0-.527-.103-.952-.308-1.275-.205-.322-.518-.557-.938-.703-.42-.157-.948-.235-1.583-.235h-2.462v-1.758zm20.45 1.817h-5.071l-.029-2.491h4.162c.684 0 1.245-.069 1.685-.205.449-.137.782-.342.997-.616.214-.283.322-.625.322-1.026 0-.332-.064-.62-.191-.864a1.476 1.476 0 00-.586-.616c-.254-.166-.576-.283-.967-.352a6.69 6.69 0 00-1.333-.117h-2.887v13.072h-3.532V84.822h6.419c1.016 0 1.929.088 2.74.264.821.175 1.519.444 2.095.806.577.361 1.017.82 1.319 1.377.313.547.469 1.192.469 1.935 0 .488-.107.947-.322 1.377-.205.43-.513.81-.923 1.143-.411.332-.914.606-1.51.82-.596.206-1.28.333-2.051.382l-.806.967zm0 6.785h-6.097l1.407-2.784h4.69c.625 0 1.143-.079 1.553-.235.41-.156.713-.38.909-.674.205-.303.307-.66.307-1.07 0-.42-.097-.781-.293-1.084-.195-.303-.498-.533-.908-.689-.401-.166-.924-.249-1.568-.249h-4.03l.029-2.491h4.792l1.011.967c1.006.068 1.842.283 2.506.645.664.361 1.163.816 1.495 1.363.332.547.498 1.143.498 1.787 0 .743-.142 1.397-.425 1.964a3.647 3.647 0 01-1.231 1.422c-.537.37-1.197.654-1.978.85-.782.185-1.671.278-2.667.278zm17.24.293c-1.173 0-2.233-.19-3.18-.571a7.034 7.034 0 01-2.404-1.627 7.223 7.223 0 01-1.509-2.447 8.563 8.563 0 01-.528-3.034v-.586c0-1.24.181-2.364.543-3.37.361-1.007.864-1.867 1.509-2.58a6.49 6.49 0 012.286-1.656 7.11 7.11 0 012.858-.571c1.133 0 2.125.19 2.975.571.85.381 1.553.919 2.11 1.612.566.684.987 1.5 1.26 2.448.283.947.425 1.993.425 3.136v1.509h-12.251V91.27h8.763v-.279a4.936 4.936 0 00-.381-1.787 3.032 3.032 0 00-1.04-1.349c-.469-.342-1.094-.513-1.876-.513-.586 0-1.109.127-1.568.382-.449.244-.825.6-1.128 1.07-.303.468-.538 1.035-.704 1.7-.156.654-.234 1.391-.234 2.212v.586c0 .694.093 1.339.278 1.934.196.587.479 1.1.85 1.54.371.439.821.786 1.348 1.04.528.244 1.129.366 1.803.366.85 0 1.607-.17 2.271-.513a5.209 5.209 0 001.73-1.45l1.861 1.802a7.266 7.266 0 01-1.334 1.436c-.547.45-1.216.816-2.008 1.099-.781.283-1.69.425-2.725.425zm16.478-2.814c.576 0 1.094-.112 1.553-.337a2.949 2.949 0 001.129-.967c.293-.41.454-.884.483-1.421h3.327a4.958 4.958 0 01-.909 2.799c-.586.84-1.363 1.51-2.33 2.007-.967.489-2.037.733-3.209.733-1.212 0-2.267-.205-3.166-.615a6.272 6.272 0 01-2.242-1.73 7.613 7.613 0 01-1.348-2.535 10.464 10.464 0 01-.44-3.077V92.5c0-1.094.147-2.12.44-3.078a7.59 7.59 0 011.348-2.55 6.124 6.124 0 012.242-1.714c.899-.42 1.949-.63 3.151-.63 1.27 0 2.384.254 3.341.762a5.624 5.624 0 012.257 2.095c.557.89.845 1.925.865 3.107h-3.327a3.547 3.547 0 00-.439-1.582 2.905 2.905 0 00-1.085-1.144c-.459-.283-1.011-.425-1.656-.425-.713 0-1.304.147-1.773.44a2.958 2.958 0 00-1.099 1.172 5.73 5.73 0 00-.572 1.656 10.85 10.85 0 00-.161 1.89v.514c0 .654.054 1.29.161 1.905.108.615.293 1.167.557 1.656a3.25 3.25 0 001.114 1.157c.469.284 1.065.425 1.788.425zm17.46-13.335v15.856h-3.547V84.822h3.547zm5.202 0v2.784h-13.863v-2.784h13.863zm14.089 6.624v2.784h-8.206v-2.784h8.206zm-7.18-6.624v15.856h-3.532V84.822h3.532zm9.73 0v15.856h-3.531V84.822h3.531zm7.29 5.041h4.675c1.367 0 2.53.23 3.487.689.958.459 1.686 1.099 2.184 1.92.508.81.762 1.739.762 2.784 0 .772-.142 1.49-.425 2.154a4.788 4.788 0 01-1.26 1.715c-.547.488-1.221.87-2.023 1.143-.791.273-1.699.41-2.725.41h-7.02V84.822h3.547v13.057h3.473c.703 0 1.265-.122 1.685-.366.42-.245.723-.562.909-.953.195-.39.293-.806.293-1.246 0-.449-.098-.874-.293-1.274-.186-.401-.489-.728-.909-.982-.42-.254-.982-.381-1.685-.381h-4.675v-2.814zm17.351-5.041v15.856h-3.532V84.822h3.532zm7.773 0l3.019 5.26 3.077-5.26h3.884l-4.807 7.781 4.997 8.075h-3.883l-3.224-5.48-3.224 5.48h-3.898l4.982-8.075-4.792-7.781h3.869zm25.321 10.698l6.228-10.698h3.532v15.856h-3.532V89.966l-6.228 10.712h-3.532V84.822h3.532V95.52zm20.875 2.637c.576 0 1.094-.112 1.553-.337a2.939 2.939 0 001.128-.967c.293-.41.455-.884.484-1.421h3.326a4.95 4.95 0 01-.908 2.799c-.586.84-1.363 1.51-2.33 2.007-.967.489-2.037.733-3.209.733-1.212 0-2.267-.205-3.166-.615a6.263 6.263 0 01-2.242-1.73 7.613 7.613 0 01-1.348-2.535 10.464 10.464 0 01-.44-3.077V92.5c0-1.094.147-2.12.44-3.078a7.59 7.59 0 011.348-2.55 6.116 6.116 0 012.242-1.714c.899-.42 1.949-.63 3.151-.63 1.27 0 2.384.254 3.341.762a5.624 5.624 0 012.257 2.095c.557.89.845 1.925.864 3.107h-3.326a3.535 3.535 0 00-.44-1.582 2.902 2.902 0 00-1.084-1.144c-.459-.283-1.011-.425-1.656-.425-.713 0-1.304.147-1.773.44a2.951 2.951 0 00-1.099 1.172 5.7 5.7 0 00-.572 1.656 10.85 10.85 0 00-.161 1.89v.514c0 .654.054 1.29.161 1.905.108.615.293 1.167.557 1.656a3.25 3.25 0 001.114 1.157c.469.284 1.065.425 1.788.425zm17.459-13.335v15.856h-3.546V84.822h3.546zm5.203 0v2.784h-13.863v-2.784h13.863zm2.029 8.104v-.337c0-1.143.166-2.203.498-3.18.332-.987.811-1.842 1.436-2.565a6.485 6.485 0 012.315-1.7c.919-.41 1.954-.615 3.107-.615 1.163 0 2.198.205 3.107.615.918.4 1.695.968 2.33 1.7.635.723 1.118 1.578 1.451 2.565.332.977.498 2.037.498 3.18v.337c0 1.143-.166 2.203-.498 3.18a7.623 7.623 0 01-1.451 2.564 6.716 6.716 0 01-2.316 1.7c-.908.401-1.939.601-3.092.601-1.162 0-2.203-.2-3.121-.601a6.712 6.712 0 01-2.315-1.7 7.606 7.606 0 01-1.451-2.564c-.332-.977-.498-2.037-.498-3.18zm3.531-.337v.337c0 .713.074 1.387.22 2.022.147.635.376 1.192.689 1.67a3.4 3.4 0 001.201 1.13c.489.273 1.07.41 1.744.41.655 0 1.222-.137 1.7-.41.489-.275.889-.65 1.202-1.13a5.143 5.143 0 00.689-1.67 8.451 8.451 0 00.234-2.022v-.337a8.21 8.21 0 00-.234-1.993 5.116 5.116 0 00-.704-1.686 3.36 3.36 0 00-1.201-1.143c-.479-.283-1.051-.425-1.715-.425-.664 0-1.241.142-1.729.425a3.395 3.395 0 00-1.187 1.144 5.318 5.318 0 00-.689 1.685 8.744 8.744 0 00-.22 1.993zm27.806-7.767v15.856h-3.532V84.822h3.532zm-1.495 7.02v2.798a12.25 12.25 0 01-1.45.513c-.528.147-1.085.269-1.671.367-.586.088-1.177.132-1.773.132-1.397 0-2.604-.215-3.62-.645-1.006-.43-1.783-1.09-2.33-1.979-.537-.898-.806-2.037-.806-3.414v-4.807h3.517v4.807c0 .791.117 1.421.352 1.89.244.47.606.806 1.084 1.011.479.206 1.08.308 1.803.308.606 0 1.177-.039 1.714-.117.538-.088 1.07-.205 1.598-.352a19.909 19.909 0 001.582-.513zm16.991-.396v2.784h-8.206v-2.784h8.206zm-7.18-6.624v15.856h-3.532V84.822h3.532zm9.73 0v15.856h-3.531V84.822h3.531zm8.316 10.698l6.228-10.698h3.532v15.856h-3.532V89.966l-6.228 10.712h-3.532V84.822h3.532V95.52zm18.207-10.698v15.856h-3.532V84.822h3.532zm10.346 0l-7.137 9.54h-4.03l-.469-3.195h2.946l4.279-6.345h4.411zm-4.133 15.856l-4.777-6.917 2.784-2.008 6.639 8.925h-4.646zm6.264-7.752v-.337c0-1.143.166-2.203.499-3.18.332-.987.811-1.842 1.436-2.565a6.485 6.485 0 012.315-1.7c.919-.41 1.954-.615 3.107-.615 1.163 0 2.198.205 3.107.615.918.4 1.695.968 2.33 1.7.635.723 1.118 1.578 1.451 2.565.332.977.498 2.037.498 3.18v.337c0 1.143-.166 2.203-.498 3.18a7.623 7.623 0 01-1.451 2.564 6.716 6.716 0 01-2.316 1.7c-.908.401-1.939.601-3.092.601-1.162 0-2.203-.2-3.121-.601a6.716 6.716 0 01-2.316-1.7 7.604 7.604 0 01-1.45-2.564c-.333-.977-.499-2.037-.499-3.18zm3.532-.337v.337c0 .713.073 1.387.22 2.022.146.635.376 1.192.689 1.67a3.4 3.4 0 001.201 1.13c.489.273 1.07.41 1.744.41.655 0 1.221-.137 1.7-.41.489-.275.889-.65 1.202-1.13a5.165 5.165 0 00.689-1.67 8.451 8.451 0 00.234-2.022v-.337a8.21 8.21 0 00-.234-1.993 5.116 5.116 0 00-.704-1.686 3.355 3.355 0 00-1.202-1.143c-.478-.283-1.05-.425-1.714-.425-.664 0-1.241.142-1.729.425a3.395 3.395 0 00-1.187 1.144 5.295 5.295 0 00-.689 1.685 8.688 8.688 0 00-.22 1.993zm22.78 1.304h-5.071l-.029-2.491h4.162c.684 0 1.245-.069 1.685-.205.449-.137.781-.342.996-.616.215-.283.323-.625.323-1.026 0-.332-.064-.62-.191-.864a1.476 1.476 0 00-.586-.616c-.254-.166-.576-.283-.967-.352a6.701 6.701 0 00-1.334-.117h-2.887v13.072h-3.531V84.822h6.418c1.016 0 1.93.088 2.741.264.82.175 1.519.444 2.095.806a3.7 3.7 0 011.319 1.377c.313.547.469 1.192.469 1.935 0 .488-.107.947-.322 1.377-.205.43-.513.81-.923 1.143-.411.332-.914.606-1.51.82-.596.206-1.28.333-2.051.382l-.806.967zm0 6.785h-6.097l1.407-2.784h4.69c.625 0 1.143-.079 1.553-.235.41-.156.713-.38.908-.674.206-.303.308-.66.308-1.07 0-.42-.097-.781-.293-1.084-.195-.303-.498-.533-.908-.689-.401-.166-.924-.249-1.568-.249h-4.03l.029-2.491h4.792l1.011.967c1.006.068 1.842.283 2.506.645.664.361 1.163.816 1.495 1.363.332.547.498 1.143.498 1.787 0 .743-.142 1.397-.425 1.964a3.656 3.656 0 01-1.231 1.422c-.537.37-1.197.654-1.978.85-.782.185-1.671.278-2.667.278z" fill="#404040"/></svg>