<svg width="630" height="403" fill="none" xmlns="http://www.w3.org/2000/svg"><rect width="629.051" height="402.518" rx="18.722" fill="#fff"/><path d="M82.351 44.932c-13.434 0-24.314 10.904-24.314 24.338 0 13.435 10.88 24.339 24.314 24.339 13.46 0 24.363-10.904 24.363-24.339 0-13.434-10.904-24.338-24.363-24.338zm16.867 14.603h-7.18c-.779-3.042-1.898-5.963-3.359-8.664a19.543 19.543 0 0110.539 8.664zm-16.842-9.638a34.283 34.283 0 014.648 9.638h-9.297a34.288 34.288 0 014.649-9.638zM63.538 74.138c-.39-1.558-.633-3.188-.633-4.868 0-1.679.243-3.31.633-4.867h8.226c-.195 1.606-.34 3.212-.34 4.867 0 1.655.145 3.262.34 4.868h-8.226zm1.996 4.868h7.18c.778 3.042 1.898 5.963 3.358 8.664a19.44 19.44 0 01-10.538-8.664zm7.18-19.47h-7.18a19.439 19.439 0 0110.538-8.665c-1.46 2.701-2.58 5.622-3.359 8.664zm9.662 29.108a34.288 34.288 0 01-4.649-9.638h9.297a34.283 34.283 0 01-4.648 9.638zm5.695-14.506H76.68c-.22-1.606-.39-3.213-.39-4.868 0-1.655.17-3.285.39-4.867h11.39c.219 1.582.39 3.212.39 4.867 0 1.655-.171 3.262-.39 4.868zm.608 13.532c1.46-2.701 2.58-5.622 3.359-8.664h7.18a19.543 19.543 0 01-10.539 8.664zm4.308-13.532c.195-1.606.34-3.213.34-4.868 0-1.655-.145-3.26-.34-4.867h8.226c.39 1.557.633 3.188.633 4.867 0 1.68-.243 3.31-.633 4.868h-8.226z" fill="#404040"/><path d="M145.13 71.825h-7.521l-.041-4.143h6.315c1.113 0 2.025-.14 2.735-.422.711-.295 1.241-.717 1.589-1.267.362-.563.543-1.247.543-2.051 0-.912-.174-1.65-.523-2.213-.335-.563-.865-.972-1.589-1.226-.71-.255-1.629-.383-2.755-.383H139.7v24.556h-6.033V55.394h10.216c1.703 0 3.225.161 4.565.483 1.355.322 2.501.811 3.44 1.468a6.534 6.534 0 012.151 2.494c.496.992.745 2.172.745 3.54 0 1.206-.275 2.32-.825 3.338-.536 1.019-1.388 1.85-2.554 2.494-1.153.643-2.662.999-4.525 1.066l-1.75 1.548zm-.261 12.851h-8.91l2.353-4.706h6.557c1.059 0 1.924-.167 2.594-.502.67-.349 1.166-.818 1.488-1.408.322-.59.483-1.267.483-2.032 0-.858-.148-1.602-.443-2.232a2.982 2.982 0 00-1.367-1.448c-.63-.348-1.461-.523-2.494-.523h-5.812l.04-4.143h7.24l1.388 1.63c1.783-.027 3.218.288 4.304.945 1.099.643 1.897 1.481 2.393 2.513a7.404 7.404 0 01.764 3.319c0 1.877-.409 3.459-1.227 4.746-.817 1.274-2.017 2.233-3.599 2.876-1.569.644-3.486.965-5.752.965zm21.769-17.014v17.014h-5.792v-21.76h5.45l.342 4.746zm6.556-4.887l-.1 5.37c-.282-.04-.624-.074-1.026-.1-.389-.04-.744-.061-1.066-.061-.818 0-1.528.107-2.132.322a3.8 3.8 0 00-1.488.905 3.948 3.948 0 00-.885 1.468c-.188.576-.295 1.233-.322 1.97l-1.166-.361c0-1.408.141-2.702.422-3.882.282-1.193.691-2.232 1.227-3.117.55-.885 1.22-1.569 2.011-2.051.791-.483 1.696-.724 2.715-.724.322 0 .65.027.986.08.335.04.61.1.824.181zm2.442 11.242v-.422c0-1.595.228-3.064.684-4.404.456-1.354 1.12-2.528 1.991-3.52.872-.992 1.944-1.763 3.218-2.313 1.274-.563 2.735-.844 4.384-.844 1.649 0 3.118.281 4.405.844 1.287.55 2.366 1.321 3.238 2.313.885.992 1.555 2.166 2.011 3.52.456 1.34.684 2.809.684 4.404v.422c0 1.583-.228 3.05-.684 4.405-.456 1.34-1.126 2.514-2.011 3.52-.872.991-1.944 1.762-3.218 2.312-1.274.55-2.735.825-4.384.825-1.65 0-3.118-.275-4.405-.825a9.115 9.115 0 01-3.238-2.313c-.871-1.005-1.535-2.178-1.991-3.52-.456-1.353-.684-2.822-.684-4.404zm5.793-.422v.422c0 .912.08 1.764.241 2.555.161.79.416 1.488.764 2.091a3.98 3.98 0 001.408 1.388c.576.335 1.28.503 2.112.503.804 0 1.495-.168 2.071-.503a3.825 3.825 0 001.388-1.388c.348-.603.603-1.3.764-2.091.174-.791.261-1.643.261-2.555v-.422c0-.885-.087-1.716-.261-2.494-.161-.79-.422-1.488-.784-2.091a3.903 3.903 0 00-1.388-1.448c-.577-.349-1.274-.523-2.092-.523-.818 0-1.515.174-2.091.523a4.117 4.117 0 00-1.388 1.448c-.348.603-.603 1.3-.764 2.091a12.29 12.29 0 00-.241 2.494zm25.831 5.45l4.525-16.129h3.681l-1.187 6.335-4.525 15.425h-3.077l.583-5.63zm-2.292-16.129l3.237 16.11.302 5.65h-3.62l-5.51-21.76h5.591zm14.641 15.848l3.157-15.848h5.611l-5.51 21.76h-3.6l.342-5.912zm-3.641-15.848l4.505 16.009.624 5.751H218l-4.525-15.405-1.147-6.355h3.64zm28.326 15.747c0-.415-.121-.79-.362-1.126-.241-.335-.691-.644-1.348-.925-.643-.295-1.575-.563-2.795-.805a21.819 21.819 0 01-3.077-.905c-.939-.375-1.756-.824-2.454-1.347a5.856 5.856 0 01-1.608-1.85c-.389-.724-.584-1.549-.584-2.474 0-.912.195-1.77.584-2.574a6.64 6.64 0 011.709-2.132c.751-.63 1.662-1.12 2.735-1.468 1.086-.362 2.306-.543 3.66-.543 1.891 0 3.513.301 4.867.905 1.368.603 2.414 1.434 3.138 2.494.737 1.045 1.106 2.239 1.106 3.58h-5.792c0-.564-.121-1.066-.362-1.509-.228-.456-.59-.811-1.086-1.066-.483-.268-1.113-.402-1.891-.402-.643 0-1.2.114-1.669.342-.469.214-.831.51-1.086.885a2.13 2.13 0 00-.362 1.206c0 .336.067.637.201.905.148.255.382.49.704.704.322.215.737.416 1.247.604a15.47 15.47 0 001.931.482c1.568.322 2.969.744 4.203 1.267 1.233.51 2.212 1.207 2.936 2.092.724.871 1.086 2.018 1.086 3.439 0 .965-.214 1.85-.643 2.655-.43.804-1.046 1.508-1.851 2.111-.804.59-1.77 1.053-2.896 1.388-1.113.322-2.366.483-3.761.483-2.024 0-3.74-.362-5.148-1.086-1.394-.724-2.454-1.643-3.178-2.756-.71-1.126-1.065-2.279-1.065-3.459h5.49c.027.791.228 1.428.603 1.91.389.483.878.832 1.468 1.047a5.787 5.787 0 001.951.321c.751 0 1.374-.1 1.87-.301.497-.215.872-.496 1.127-.845a2.04 2.04 0 00.402-1.247zm20.643 6.416c-1.689 0-3.204-.268-4.545-.805-1.341-.55-2.481-1.307-3.419-2.272a10.1 10.1 0 01-2.132-3.359 11.31 11.31 0 01-.744-4.103v-.804c0-1.65.235-3.158.704-4.525.469-1.368 1.139-2.554 2.011-3.56a8.83 8.83 0 013.218-2.313c1.26-.55 2.681-.824 4.263-.824 1.542 0 2.91.255 4.103.764 1.193.51 2.192 1.233 2.997 2.172.818.939 1.434 2.065 1.85 3.379.416 1.3.623 2.748.623 4.344v2.413h-17.295v-3.861h11.604v-.443c0-.804-.148-1.522-.443-2.152a3.409 3.409 0 00-1.287-1.528c-.576-.376-1.314-.563-2.212-.563-.764 0-1.421.167-1.971.503a3.88 3.88 0 00-1.347 1.407c-.336.604-.59 1.314-.765 2.132a13.63 13.63 0 00-.241 2.655v.804c0 .872.121 1.676.362 2.414a5.88 5.88 0 001.066 1.91 4.86 4.86 0 001.689 1.247c.671.295 1.428.443 2.273.443a7.05 7.05 0 002.916-.604c.912-.415 1.696-1.039 2.353-1.87l2.816 3.057c-.456.657-1.08 1.287-1.871 1.89-.777.604-1.716 1.1-2.815 1.489-1.1.375-2.353.563-3.761.563zm19.255-17.417v17.014H278.4v-21.76h5.45l.342 4.746zm6.557-4.887l-.101 5.37a13.7 13.7 0 00-1.026-.1c-.389-.04-.744-.061-1.066-.061-.817 0-1.528.107-2.131.322a3.811 3.811 0 00-1.489.905 3.974 3.974 0 00-.885 1.468c-.187.576-.294 1.233-.321 1.97l-1.167-.361c0-1.408.141-2.702.423-3.882.281-1.193.69-2.232 1.226-3.117.55-.885 1.22-1.569 2.011-2.051.792-.483 1.697-.724 2.716-.724.321 0 .65.027.985.08.335.04.61.1.825.181z" fill="#000"/><path d="M262.777 340.997v1.009c0 1.619-.219 3.072-.658 4.359-.439 1.287-1.058 2.384-1.857 3.291a8.066 8.066 0 01-2.867 2.062c-1.102.478-2.326.717-3.671.717-1.336 0-2.56-.239-3.672-.717a8.233 8.233 0 01-2.866-2.062c-.81-.907-1.439-2.004-1.887-3.291-.439-1.287-.658-2.74-.658-4.359v-1.009c0-1.629.219-3.081.658-4.359.439-1.287 1.058-2.384 1.857-3.291a8.151 8.151 0 012.867-2.077c1.112-.478 2.336-.716 3.671-.716 1.346 0 2.57.238 3.672.716a7.972 7.972 0 012.866 2.077c.81.907 1.434 2.004 1.873 3.291.448 1.278.672 2.73.672 4.359zm-4.431 1.009v-1.038c0-1.132-.103-2.126-.308-2.984-.204-.858-.507-1.58-.906-2.165-.4-.585-.888-1.024-1.463-1.316-.575-.303-1.234-.454-1.975-.454-.741 0-1.399.151-1.974.454-.566.292-1.048.731-1.448 1.316-.39.585-.688 1.307-.892 2.165-.205.858-.308 1.852-.308 2.984v1.038c0 1.121.103 2.116.308 2.984.204.858.507 1.584.906 2.179.4.585.888 1.029 1.463 1.331.575.302 1.234.454 1.975.454.741 0 1.399-.152 1.974-.454a3.919 3.919 0 001.448-1.331c.39-.595.688-1.321.892-2.179.205-.868.308-1.863.308-2.984zm15.219-11.16v21.296h-4.373v-21.296h4.373zm6.553 0v3.437h-17.376v-3.437h17.376zm3.606 0h3.715l5.47 15.636 5.471-15.636h3.715l-7.694 21.296h-2.983l-7.694-21.296zm-2.004 0h3.701l.673 15.241v6.055h-4.374v-21.296zm18.678 0h3.715v21.296h-4.388v-6.055l.673-15.241zm20.953 17.874v3.422h-11.335v-3.422h11.335zm-9.902-17.874v21.296h-4.388v-21.296h4.388zm8.425 8.674v3.334h-9.858v-3.334h9.858zm1.463-8.674v3.437h-11.321v-3.437h11.321zm15.877 8.674v3.422h-11.116v-3.422h11.116zm-9.814-8.674v21.296h-4.388v-21.296h4.388zm12.945 0v21.296h-4.374v-21.296h4.374zm11.84 3.642l-5.792 17.654h-4.665l7.912-21.296h2.97l-.425 3.642zm4.813 17.654l-5.807-17.654-.468-3.642h2.998l7.957 21.296h-4.68zm-.264-7.927v3.437h-11.247v-3.437h11.247zm69.376-4.695v3.422h-11.116v-3.422h11.116zm-9.814-8.674v21.296h-4.388v-21.296h4.388zm12.944 0v21.296h-4.373v-21.296h4.373zm11.841 3.642l-5.792 17.654h-4.666l7.913-21.296h2.969l-.424 3.642zm4.812 17.654l-5.806-17.654-.468-3.642h2.998l7.957 21.296h-4.681zm-.263-7.927v3.437h-11.248v-3.437h11.248zm18.101.863h4.373c-.087 1.433-.482 2.705-1.184 3.817-.693 1.112-1.663 1.979-2.911 2.604-1.238.624-2.73.936-4.476.936-1.365 0-2.589-.234-3.671-.702a7.82 7.82 0 01-2.779-2.048c-.761-.887-1.341-1.96-1.741-3.218-.399-1.258-.599-2.667-.599-4.227v-1.477c0-1.56.205-2.969.614-4.227.419-1.268 1.014-2.345 1.785-3.233a7.945 7.945 0 012.793-2.047c1.083-.478 2.292-.717 3.627-.717 1.775 0 3.272.322 4.491.965 1.228.644 2.179 1.531 2.852 2.662.682 1.131 1.092 2.419 1.229 3.862h-4.388c-.049-.858-.22-1.585-.512-2.18a2.906 2.906 0 00-1.331-1.36c-.585-.312-1.365-.468-2.341-.468-.731 0-1.37.137-1.916.41-.546.273-1.004.687-1.374 1.243-.371.556-.649 1.258-.834 2.106-.176.839-.263 1.823-.263 2.955v1.506c0 1.102.082 2.072.248 2.911.166.829.42 1.531.761 2.106.351.565.799.994 1.345 1.287.556.283 1.224.424 2.004.424.917 0 1.673-.146 2.267-.439a3.028 3.028 0 001.361-1.301c.321-.576.512-1.292.57-2.15zm15.439-14.232v21.296h-4.373v-21.296h4.373zm6.553 0v3.437h-17.376v-3.437h17.376zm9.895 13.705h-5.426v-3.423h5.426c.839 0 1.521-.136 2.048-.409.526-.283.912-.673 1.155-1.17.244-.498.366-1.058.366-1.682 0-.634-.122-1.224-.366-1.77a2.949 2.949 0 00-1.155-1.316c-.527-.332-1.209-.498-2.048-.498h-3.905v17.859h-4.388v-21.296h8.293c1.668 0 3.096.302 4.286.907 1.199.595 2.116 1.419 2.75 2.472.633 1.053.95 2.257.95 3.612 0 1.375-.317 2.565-.95 3.569-.634 1.005-1.551 1.78-2.75 2.326-1.19.546-2.618.819-4.286.819zm27.608-3.554v1.009c0 1.619-.219 3.072-.658 4.359-.439 1.287-1.058 2.384-1.857 3.291a8.057 8.057 0 01-2.867 2.062c-1.102.478-2.326.717-3.671.717-1.336 0-2.56-.239-3.672-.717a8.233 8.233 0 01-2.866-2.062c-.81-.907-1.439-2.004-1.887-3.291-.439-1.287-.658-2.74-.658-4.359v-1.009c0-1.629.219-3.081.658-4.359.439-1.287 1.058-2.384 1.857-3.291a8.151 8.151 0 012.867-2.077c1.112-.478 2.336-.716 3.671-.716 1.346 0 2.57.238 3.672.716a7.972 7.972 0 012.866 2.077c.81.907 1.434 2.004 1.873 3.291.448 1.278.672 2.73.672 4.359zm-4.431 1.009v-1.038c0-1.132-.103-2.126-.308-2.984-.204-.858-.507-1.58-.906-2.165-.4-.585-.888-1.024-1.463-1.316-.575-.303-1.233-.454-1.975-.454-.741 0-1.399.151-1.974.454-.566.292-1.048.731-1.448 1.316-.39.585-.688 1.307-.892 2.165-.205.858-.308 1.852-.308 2.984v1.038c0 1.121.103 2.116.308 2.984.204.858.507 1.584.906 2.179.4.585.888 1.029 1.463 1.331.575.302 1.234.454 1.975.454.741 0 1.399-.152 1.974-.454a3.919 3.919 0 001.448-1.331c.39-.595.688-1.321.892-2.179.205-.868.308-1.863.308-2.984zm10.919 3.232l8.557-14.392h4.387v21.296h-4.387V337.75l-8.557 14.392h-4.388v-21.296h4.388v14.392zm6.406-19.979h2.999c0 .838-.21 1.584-.629 2.238-.41.643-.995 1.15-1.755 1.521-.761.361-1.658.541-2.692.541-1.569 0-2.813-.4-3.729-1.199-.907-.8-1.36-1.834-1.36-3.101h2.983c0 .507.156.96.468 1.36.322.4.868.6 1.638.6.761 0 1.297-.2 1.609-.6.312-.4.468-.853.468-1.36zm13.845 5.587v21.296h-4.388v-21.296h4.388zm12.55 0l-8.162 12.506h-5.368l-.556-3.906h3.584l5.178-8.6h5.324zm-4.52 21.296l-5.968-9.522 3.043-3.13 8.132 12.652h-5.207zm10.261-6.904l8.557-14.392h4.388v21.296h-4.388V337.75l-8.557 14.392h-4.388v-21.296h4.388v14.392z" fill="#1A7868"/><path d="M59.368 142.108h-5.734l-.031-2.409h5.206c.86 0 1.611-.145 2.253-.435.643-.29 1.14-.704 1.492-1.243.363-.549.544-1.202.544-1.958 0-.829-.16-1.502-.482-2.02-.31-.529-.792-.912-1.445-1.15-.642-.249-1.46-.373-2.455-.373h-4.414v20.171h-3v-22.627h7.414c1.16 0 2.196.119 3.108.358.912.228 1.683.59 2.315 1.088a4.623 4.623 0 011.461 1.864c.332.757.497 1.663.497 2.72 0 .932-.238 1.777-.714 2.533-.477.746-1.14 1.357-1.99 1.834-.839.476-1.823.782-2.952.917l-1.073.73zm-.14 10.583h-6.775l1.694-2.44h5.081c.954 0 1.762-.165 2.425-.497.673-.331 1.186-.798 1.538-1.399.353-.611.529-1.331.529-2.16 0-.839-.15-1.564-.45-2.175-.301-.612-.773-1.083-1.415-1.415-.642-.331-1.471-.497-2.487-.497h-4.273l.03-2.409h5.844l.637.871c1.088.093 2.01.404 2.766.932a5.067 5.067 0 011.725 1.989c.404.808.607 1.699.607 2.673 0 1.409-.311 2.601-.933 3.575-.611.963-1.476 1.699-2.595 2.206-1.12.498-2.435.746-3.948.746zm20.25 0v-16.815h2.874v14.453h7.74v-14.453h2.89v16.815H79.477zm15.493-2.362l-.28 7.351h-2.564v-4.989h-2.191v-2.362h5.035zm10.42 2.673c-1.171 0-2.233-.197-3.186-.59a7.226 7.226 0 01-2.44-1.694 7.54 7.54 0 01-1.554-2.58c-.363-.995-.544-2.083-.544-3.264v-.652c0-1.368.202-2.585.606-3.652.404-1.078.953-1.99 1.647-2.735a7.054 7.054 0 012.363-1.694 6.77 6.77 0 012.735-.575c1.202 0 2.238.207 3.108.621.88.415 1.601.995 2.16 1.741.559.735.974 1.606 1.243 2.611.27.994.404 2.082.404 3.263v1.29H99.376v-2.347h9.682v-.217a7.173 7.173 0 00-.466-2.176 3.906 3.906 0 00-1.243-1.74c-.57-.456-1.347-.684-2.331-.684-.653 0-1.254.14-1.803.419-.549.27-1.02.674-1.414 1.213-.394.538-.699 1.196-.917 1.973-.218.777-.326 1.673-.326 2.689v.652c0 .798.108 1.549.326 2.254.228.694.554 1.305.979 1.834.435.528.958.942 1.57 1.243.621.3 1.326.45 2.113.45 1.015 0 1.875-.207 2.58-.621a6.4 6.4 0 001.849-1.663l1.741 1.383a8.097 8.097 0 01-1.383 1.57c-.56.497-1.249.901-2.067 1.212-.808.311-1.767.466-2.875.466zm21.453-17.126v2.378h-8.128v-2.378h8.128zm2.533 0v16.815h-2.875v-16.815h2.875zm-11.36 0h2.891l-.436 8.113a29.867 29.867 0 01-.357 3.325c-.155.953-.373 1.772-.653 2.456-.269.683-.611 1.243-1.025 1.678a3.751 3.751 0 01-1.461.948c-.57.197-1.228.295-1.974.295h-.901v-2.533l.621-.046c.446-.032.824-.135 1.135-.311.321-.176.59-.435.808-.777.218-.353.394-.803.528-1.352a12.45 12.45 0 00.327-1.958c.083-.757.145-1.637.186-2.642l.311-7.196zm19.713 8.796h3.108l-4.864 8.019h-3.108l4.864-8.019zm2.409-8.796h7.024v16.815h-2.875v-14.483h-4.149c-.819 0-1.487.139-2.005.419-.518.269-.896.622-1.134 1.057a2.773 2.773 0 00-.358 1.352c0 .456.109.896.326 1.321.218.414.56.756 1.026 1.026.466.269 1.067.404 1.803.404h5.268v2.362h-5.268c-.964 0-1.818-.13-2.564-.389s-1.378-.616-1.896-1.072a4.669 4.669 0 01-1.181-1.632 5.166 5.166 0 01-.404-2.051 4.9 4.9 0 01.419-2.036 4.862 4.862 0 011.243-1.632c.549-.466 1.218-.823 2.005-1.072.798-.259 1.704-.389 2.72-.389zm13.916 0l3.683 6.123 3.73-6.123h3.372l-5.501 8.299 5.672 8.516h-3.326l-3.885-6.309-3.885 6.309h-3.341l5.657-8.516-5.486-8.299h3.31zm33.163-7.319h2.362c0 1.015-.155 1.823-.466 2.424a3.387 3.387 0 01-1.275 1.368 6.392 6.392 0 01-1.802.73c-.663.166-1.352.326-2.067.482a9.452 9.452 0 00-2.487.886 5.801 5.801 0 00-1.958 1.678c-.539.725-.937 1.668-1.196 2.828-.249 1.161-.316 2.596-.202 4.305v1.43h-2.363v-1.43c0-1.916.182-3.59.544-5.019.373-1.43.896-2.637 1.57-3.621.673-.985 1.471-1.767 2.393-2.347a9.051 9.051 0 013.077-1.197 20.803 20.803 0 002.083-.497c.58-.186 1.02-.435 1.321-.746.31-.311.466-.735.466-1.274zm-3.404 8.283c1.099 0 2.078.192 2.938.575.859.383 1.59.917 2.191 1.601a6.937 6.937 0 011.367 2.424c.321.922.482 1.927.482 3.015v.342c0 1.17-.171 2.258-.513 3.263a7.518 7.518 0 01-1.476 2.611 6.695 6.695 0 01-2.362 1.725c-.922.414-1.974.622-3.155.622-1.181 0-2.238-.208-3.17-.622a6.88 6.88 0 01-2.362-1.725 7.731 7.731 0 01-1.492-2.611c-.332-1.005-.498-2.093-.498-3.263v-.342c0-.259.047-.513.14-.762.094-.248.207-.502.342-.761.145-.259.275-.534.389-.824a9.98 9.98 0 011.569-2.595 7.927 7.927 0 012.409-1.927c.943-.497 2.01-.746 3.201-.746zm-.559 2.347c-1.057 0-1.927.243-2.611.73a4.397 4.397 0 00-1.507 1.943 6.681 6.681 0 00-.498 2.595v.342c0 .787.094 1.533.28 2.238.187.704.466 1.331.839 1.88.384.539.865.963 1.446 1.274.59.311 1.284.466 2.082.466.798 0 1.487-.155 2.067-.466a4.028 4.028 0 001.43-1.274 6.103 6.103 0 00.839-1.88 8.74 8.74 0 00.28-2.238v-.342c0-.705-.094-1.373-.28-2.005a4.96 4.96 0 00-.855-1.678 3.871 3.871 0 00-1.445-1.15c-.58-.29-1.269-.435-2.067-.435zm18.097 13.815c-1.171 0-2.233-.197-3.186-.59a7.226 7.226 0 01-2.44-1.694 7.52 7.52 0 01-1.554-2.58c-.363-.995-.544-2.083-.544-3.264v-.652c0-1.368.202-2.585.606-3.652.404-1.078.953-1.99 1.647-2.735a7.056 7.056 0 012.362-1.694 6.778 6.778 0 012.736-.575c1.201 0 2.237.207 3.108.621.88.415 1.6.995 2.16 1.741.559.735.974 1.606 1.243 2.611.269.994.404 2.082.404 3.263v1.29h-12.557v-2.347h9.682v-.217a7.173 7.173 0 00-.466-2.176 3.914 3.914 0 00-1.243-1.74c-.57-.456-1.347-.684-2.331-.684-.653 0-1.254.14-1.803.419a3.84 3.84 0 00-1.414 1.213c-.394.538-.7 1.196-.917 1.973-.218.777-.327 1.673-.327 2.689v.652c0 .798.109 1.549.327 2.254.228.694.554 1.305.979 1.834.435.528.958.942 1.569 1.243.622.3 1.327.45 2.114.45 1.015 0 1.875-.207 2.58-.621a6.4 6.4 0 001.849-1.663l1.741 1.383a8.07 8.07 0 01-1.384 1.57c-.559.497-1.248.901-2.066 1.212-.809.311-1.767.466-2.875.466zm16.495-8.345h-3.092v-1.772h2.859c.798 0 1.43-.098 1.896-.295.467-.207.798-.492.995-.855.197-.362.295-.787.295-1.274 0-.435-.114-.844-.342-1.228-.217-.393-.57-.709-1.056-.948-.487-.248-1.14-.373-1.959-.373-.663 0-1.264.119-1.802.358-.539.228-.969.544-1.29.948a2.097 2.097 0 00-.466 1.336h-2.875c0-1.026.29-1.906.87-2.642.59-.746 1.373-1.321 2.347-1.725.984-.404 2.056-.606 3.216-.606.974 0 1.845.109 2.611.327.777.207 1.435.518 1.974.932a3.91 3.91 0 011.228 1.523c.29.601.435 1.3.435 2.098 0 .57-.135 1.108-.404 1.616-.27.508-.658.958-1.166 1.352-.508.383-1.124.684-1.849.901-.715.218-1.523.327-2.425.327zm-3.092-1.088h3.092c1.005 0 1.891.098 2.658.295.767.187 1.409.466 1.927.839.518.373.906.834 1.165 1.384.27.538.405 1.16.405 1.864 0 .788-.161 1.497-.482 2.129a4.466 4.466 0 01-1.337 1.586c-.58.435-1.274.766-2.082.994-.798.228-1.684.342-2.658.342a9.21 9.21 0 01-3.17-.559c-1.025-.373-1.87-.948-2.533-1.725-.663-.788-.995-1.788-.995-3h2.875c0 .508.161.99.482 1.446.321.455.767.823 1.337 1.103.58.28 1.248.42 2.004.42.809 0 1.482-.125 2.021-.373.538-.249.943-.581 1.212-.995.28-.414.419-.865.419-1.352 0-.632-.124-1.14-.373-1.523-.248-.383-.631-.663-1.15-.839-.507-.187-1.16-.28-1.958-.28h-2.859v-1.756zm12.533.901v-.357c0-1.212.176-2.336.528-3.372.353-1.047.86-1.953 1.523-2.72a6.797 6.797 0 012.409-1.803c.943-.435 2-.652 3.17-.652 1.182 0 2.243.217 3.186.652a6.767 6.767 0 012.425 1.803c.673.767 1.186 1.673 1.538 2.72.352 1.036.528 2.16.528 3.372v.357c0 1.213-.176 2.337-.528 3.373a8.068 8.068 0 01-1.538 2.719 7.042 7.042 0 01-2.409 1.803c-.933.425-1.989.637-3.17.637-1.182 0-2.243-.212-3.186-.637a7.21 7.21 0 01-2.425-1.803 8.226 8.226 0 01-1.523-2.719c-.352-1.036-.528-2.16-.528-3.373zm2.875-.357v.357c0 .84.098 1.632.295 2.378.197.736.492 1.388.886 1.958.404.57.907 1.021 1.508 1.352.6.321 1.3.482 2.098.482.787 0 1.476-.161 2.066-.482a4.325 4.325 0 001.492-1.352c.394-.57.689-1.222.886-1.958a8.854 8.854 0 00.311-2.378v-.357a8.63 8.63 0 00-.311-2.347 6.035 6.035 0 00-.901-1.973 4.284 4.284 0 00-1.492-1.368c-.591-.331-1.285-.497-2.083-.497-.787 0-1.481.166-2.082.497a4.465 4.465 0 00-1.492 1.368 6.225 6.225 0 00-.886 1.973 9.042 9.042 0 00-.295 2.347zm27.561-8.237v2.378h-8.501v-2.378h8.501zm-8.081 0v16.815h-2.875v-16.815h2.875zm10.629 0v16.815h-2.89v-16.815h2.89zm14.849 13.94v-8.656c0-.663-.135-1.238-.404-1.725a2.65 2.65 0 00-1.181-1.15c-.528-.269-1.181-.404-1.958-.404-.725 0-1.362.124-1.912.373-.538.249-.963.575-1.274.979-.3.404-.451.839-.451 1.306h-2.875c0-.601.156-1.197.467-1.788.31-.59.756-1.124 1.336-1.6.591-.487 1.295-.871 2.114-1.15.828-.29 1.751-.435 2.766-.435 1.222 0 2.3.207 3.232.621.943.415 1.679 1.041 2.207 1.881.539.828.808 1.87.808 3.123v7.833c0 .559.047 1.155.14 1.787.104.632.254 1.176.451 1.632v.248h-3c-.145-.331-.259-.772-.342-1.321a10.765 10.765 0 01-.124-1.554zm.497-7.319l.032 2.02h-2.907c-.818 0-1.548.067-2.191.202-.642.124-1.181.316-1.616.575a2.734 2.734 0 00-.995.979c-.227.383-.341.834-.341 1.352 0 .528.119 1.01.357 1.445.238.435.596.783 1.072 1.042.487.248 1.083.373 1.787.373.881 0 1.658-.187 2.332-.56.673-.373 1.206-.829 1.6-1.367.404-.539.622-1.062.653-1.57l1.228 1.383c-.073.435-.27.917-.591 1.445a6.888 6.888 0 01-1.29 1.523 6.937 6.937 0 01-1.896 1.197c-.725.311-1.543.466-2.455.466-1.14 0-2.14-.223-2.999-.668-.85-.446-1.513-1.041-1.99-1.787a4.735 4.735 0 01-.699-2.533c0-.902.176-1.694.528-2.378a4.6 4.6 0 011.523-1.725c.663-.466 1.461-.819 2.394-1.057.932-.238 1.973-.357 3.123-.357h3.341zm13.948 8.143c.684 0 1.316-.14 1.896-.42a3.897 3.897 0 001.429-1.15 3.204 3.204 0 00.638-1.694h2.735c-.052.995-.389 1.922-1.01 2.782-.612.85-1.415 1.539-2.409 2.067-.995.518-2.088.777-3.279.777-1.264 0-2.368-.223-3.31-.668a6.557 6.557 0 01-2.331-1.834 8.184 8.184 0 01-1.384-2.673c-.3-1.015-.45-2.088-.45-3.217v-.652c0-1.13.15-2.197.45-3.202a8.16 8.16 0 011.384-2.688 6.546 6.546 0 012.331-1.834c.942-.446 2.046-.668 3.31-.668 1.316 0 2.466.269 3.45.808a5.925 5.925 0 012.315 2.175c.57.912.881 1.948.933 3.109h-2.735a4.145 4.145 0 00-.591-1.881 3.671 3.671 0 00-1.368-1.336c-.569-.342-1.238-.513-2.004-.513-.881 0-1.622.176-2.223.528a3.902 3.902 0 00-1.414 1.399 6.546 6.546 0 00-.746 1.942 10.696 10.696 0 00-.217 2.161v.652c0 .736.072 1.461.217 2.176a6.23 6.23 0 00.731 1.942 4.048 4.048 0 001.414 1.399c.601.342 1.347.513 2.238.513zm21.655-7.475v2.331h-8.889v-2.331h8.889zm-8.283-7.289v16.815h-2.875v-16.815h2.875zm10.614 0v16.815h-2.89v-16.815h2.89zm4.188 8.594v-.357c0-1.212.176-2.336.528-3.372.353-1.047.86-1.953 1.523-2.72a6.806 6.806 0 012.409-1.803c.943-.435 2-.652 3.17-.652 1.182 0 2.244.217 3.186.652a6.767 6.767 0 012.425 1.803c.673.767 1.186 1.673 1.538 2.72.352 1.036.529 2.16.529 3.372v.357c0 1.213-.177 2.337-.529 3.373a8.068 8.068 0 01-1.538 2.719 7.042 7.042 0 01-2.409 1.803c-.933.425-1.989.637-3.17.637-1.182 0-2.243-.212-3.186-.637a7.21 7.21 0 01-2.425-1.803 8.226 8.226 0 01-1.523-2.719c-.352-1.036-.528-2.16-.528-3.373zm2.875-.357v.357c0 .84.099 1.632.295 2.378.197.736.492 1.388.886 1.958.404.57.907 1.021 1.508 1.352.6.321 1.3.482 2.098.482.787 0 1.476-.161 2.066-.482a4.325 4.325 0 001.492-1.352c.394-.57.689-1.222.886-1.958a8.854 8.854 0 00.311-2.378v-.357a8.63 8.63 0 00-.311-2.347 6.035 6.035 0 00-.901-1.973 4.284 4.284 0 00-1.492-1.368c-.591-.331-1.285-.497-2.083-.497-.787 0-1.481.166-2.082.497a4.474 4.474 0 00-1.492 1.368 6.225 6.225 0 00-.886 1.973 9.086 9.086 0 00-.295 2.347zm23.085 6.527c.684 0 1.316-.14 1.896-.42a3.9 3.9 0 001.43-1.15 3.203 3.203 0 00.637-1.694h2.735c-.052.995-.388 1.922-1.01 2.782-.611.85-1.414 1.539-2.409 2.067-.994.518-2.087.777-3.279.777-1.264 0-2.367-.223-3.31-.668a6.574 6.574 0 01-2.331-1.834 8.2 8.2 0 01-1.383-2.673 11.261 11.261 0 01-.451-3.217v-.652c0-1.13.15-2.197.451-3.202a8.176 8.176 0 011.383-2.688 6.563 6.563 0 012.331-1.834c.943-.446 2.046-.668 3.31-.668 1.316 0 2.466.269 3.45.808a5.935 5.935 0 012.316 2.175c.57.912.88 1.948.932 3.109h-2.735a4.156 4.156 0 00-.59-1.881 3.686 3.686 0 00-1.368-1.336c-.57-.342-1.238-.513-2.005-.513-.88 0-1.621.176-2.222.528a3.886 3.886 0 00-1.414 1.399 6.52 6.52 0 00-.746 1.942 10.697 10.697 0 00-.218 2.161v.652c0 .736.073 1.461.218 2.176.145.715.388 1.362.73 1.942a4.056 4.056 0 001.414 1.399c.601.342 1.347.513 2.238.513zm17.102-14.764v16.815h-2.89v-16.815h2.89zm5.641 0v2.332h-14.064v-2.332h14.064zm6.255 12.262l7.755-12.262h2.89v16.815h-2.89V140.43l-7.755 12.261h-2.859v-16.815h2.859v12.262zm31.687-2.844h-5.517l-.031-2.3h4.507c.89 0 1.631-.088 2.222-.264.601-.176 1.051-.441 1.352-.793.3-.352.45-.787.45-1.305 0-.404-.088-.756-.264-1.057a1.907 1.907 0 00-.761-.761c-.342-.208-.767-.358-1.275-.451-.497-.104-1.082-.155-1.756-.155h-3.683v14.483h-2.875v-16.815h6.558c1.068 0 2.026.094 2.875.28.86.187 1.591.472 2.192.855a3.844 3.844 0 011.398 1.43c.321.58.482 1.264.482 2.051 0 .508-.104.989-.311 1.445-.207.456-.513.86-.917 1.212-.404.353-.901.643-1.492.871-.59.217-1.269.357-2.035.419l-1.119.855zm0 7.397h-6.558l1.429-2.331h5.129c.797 0 1.461-.098 1.989-.295.528-.207.922-.497 1.181-.87.269-.384.404-.84.404-1.368 0-.528-.135-.979-.404-1.352-.259-.383-.653-.673-1.181-.87-.528-.207-1.192-.311-1.989-.311h-4.367l.031-2.3h5.455l1.041.87c.922.073 1.704.301 2.346.684.643.383 1.13.87 1.461 1.461a3.75 3.75 0 01.498 1.896c0 .787-.151 1.481-.451 2.082a3.968 3.968 0 01-1.274 1.508c-.56.393-1.238.694-2.036.901-.798.197-1.699.295-2.704.295zm20.552-2.875v-8.656c0-.663-.135-1.238-.404-1.725a2.65 2.65 0 00-1.181-1.15c-.529-.269-1.181-.404-1.958-.404-.726 0-1.363.124-1.912.373-.539.249-.963.575-1.274.979a2.142 2.142 0 00-.451 1.306h-2.875c0-.601.155-1.197.466-1.788.311-.59.757-1.124 1.337-1.6.59-.487 1.295-.871 2.113-1.15.829-.29 1.751-.435 2.766-.435 1.223 0 2.3.207 3.233.621.943.415 1.678 1.041 2.207 1.881.538.828.808 1.87.808 3.123v7.833c0 .559.046 1.155.14 1.787.103.632.253 1.176.45 1.632v.248h-2.999c-.145-.331-.259-.772-.342-1.321a10.624 10.624 0 01-.124-1.554zm.497-7.319l.031 2.02h-2.906c-.818 0-1.549.067-2.191.202-.643.124-1.181.316-1.616.575a2.726 2.726 0 00-.995.979c-.228.383-.342.834-.342 1.352 0 .528.119 1.01.358 1.445.238.435.595.783 1.072 1.042.487.248 1.083.373 1.787.373.881 0 1.658-.187 2.331-.56.674-.373 1.207-.829 1.601-1.367.404-.539.621-1.062.652-1.57l1.228 1.383c-.072.435-.269.917-.59 1.445a6.915 6.915 0 01-1.29 1.523 6.967 6.967 0 01-1.896 1.197c-.725.311-1.544.466-2.456.466-1.139 0-2.139-.223-2.999-.668-.849-.446-1.512-1.041-1.989-1.787a4.735 4.735 0 01-.699-2.533c0-.902.176-1.694.528-2.378a4.591 4.591 0 011.523-1.725c.663-.466 1.461-.819 2.393-1.057.933-.238 1.974-.357 3.124-.357h3.341zm7.467-6.621h2.875v14.453h6.154v-14.453h2.891v14.453h6.138v-14.453h2.875v16.815h-20.933v-16.815zm-375.18 39v16.815h-2.89v-16.815h2.89zm5.641 0v2.332H49.298v-2.332h14.064zm8.881 17.126c-1.17 0-2.232-.197-3.185-.59a7.225 7.225 0 01-2.44-1.694 7.54 7.54 0 01-1.554-2.58c-.363-.995-.544-2.083-.544-3.264v-.652c0-1.368.202-2.585.606-3.652.404-1.078.953-1.99 1.647-2.735a7.052 7.052 0 012.362-1.694 6.773 6.773 0 012.735-.575c1.202 0 2.238.207 3.108.621a5.665 5.665 0 012.16 1.741c.56.735.974 1.606 1.244 2.611.27.994.404 2.082.404 3.263v1.29H66.229v-2.347h9.682v-.217a7.176 7.176 0 00-.466-2.176 3.908 3.908 0 00-1.243-1.74c-.57-.456-1.347-.684-2.332-.684-.652 0-1.253.14-1.802.419a3.85 3.85 0 00-1.415 1.213c-.393.538-.699 1.196-.916 1.973-.218.777-.327 1.673-.327 2.689v.652a7.6 7.6 0 00.327 2.254c.228.694.554 1.305.979 1.834.435.528.958.942 1.57 1.243.62.3 1.325.45 2.113.45 1.015 0 1.875-.207 2.58-.621a6.4 6.4 0 001.849-1.663l1.74 1.383a8.07 8.07 0 01-1.383 1.57c-.56.497-1.248.901-2.067 1.212-.808.311-1.766.466-2.875.466zm21.454-17.126v2.378h-8.128v-2.378h8.128zm2.533 0v16.815h-2.875v-16.815h2.875zm-11.36 0h2.89l-.435 8.113a30.05 30.05 0 01-.357 3.325c-.156.953-.373 1.772-.653 2.456-.27.683-.611 1.243-1.026 1.678a3.752 3.752 0 01-1.46.948c-.57.197-1.228.295-1.974.295h-.901v-2.533l.621-.046c.446-.032.824-.135 1.135-.311.32-.176.59-.435.808-.777.217-.353.393-.803.528-1.352.145-.549.254-1.202.326-1.958.083-.757.145-1.637.187-2.642l.31-7.196zm23.287 17.126c-1.171 0-2.233-.197-3.186-.59a7.226 7.226 0 01-2.44-1.694 7.552 7.552 0 01-1.554-2.58c-.362-.995-.544-2.083-.544-3.264v-.652c0-1.368.202-2.585.606-3.652.404-1.078.954-1.99 1.648-2.735a7.046 7.046 0 012.362-1.694 6.77 6.77 0 012.735-.575c1.202 0 2.238.207 3.108.621a5.665 5.665 0 012.16 1.741c.56.735.974 1.606 1.243 2.611.27.994.404 2.082.404 3.263v1.29h-12.556v-2.347h9.681v-.217a7.143 7.143 0 00-.466-2.176 3.906 3.906 0 00-1.243-1.74c-.57-.456-1.347-.684-2.331-.684-.653 0-1.254.14-1.803.419-.549.27-1.02.674-1.414 1.213-.394.538-.699 1.196-.917 1.973-.217.777-.326 1.673-.326 2.689v.652c0 .798.109 1.549.326 2.254.228.694.554 1.305.979 1.834.435.528.959.942 1.57 1.243.621.3 1.326.45 2.113.45 1.016 0 1.876-.207 2.58-.621a6.387 6.387 0 001.849-1.663l1.741 1.383a8.097 8.097 0 01-1.383 1.57c-.56.497-1.249.901-2.067 1.212-.808.311-1.767.466-2.875.466zm29.55-8.423v.326c0 1.182-.13 2.269-.389 3.264-.259.984-.647 1.839-1.165 2.564a5.401 5.401 0 01-1.896 1.694c-.756.394-1.632.591-2.626.591-.819 0-1.539-.109-2.161-.327a4.408 4.408 0 01-1.585-.979 4.935 4.935 0 01-1.025-1.523 7.772 7.772 0 01-.513-2.02v-7.459a8.54 8.54 0 01.513-2.145 5.138 5.138 0 011.025-1.616 4.386 4.386 0 011.57-1.026c.611-.238 1.326-.357 2.144-.357.809 0 1.534.145 2.176.435a4.951 4.951 0 011.71 1.212 6.51 6.51 0 011.227 1.911c.332.736.58 1.565.746 2.487.166.922.249 1.911.249 2.968zm-2.875.326v-.326c0-.725-.052-1.414-.155-2.067a8.545 8.545 0 00-.451-1.818 5.182 5.182 0 00-.777-1.461 3.366 3.366 0 00-1.166-.963c-.445-.228-.958-.342-1.538-.342-.622 0-1.14.077-1.554.233-.404.155-.72.363-.948.622a2.412 2.412 0 00-.498.792v9.744c.125.228.306.445.544.653.239.197.56.362.964.497.404.124.912.186 1.523.186.725 0 1.342-.145 1.849-.435.518-.3.938-.715 1.259-1.243.331-.528.57-1.14.715-1.834.155-.694.233-1.44.233-2.238zm-17.095 0v-.326c0-1.057.083-2.046.249-2.968.166-.922.414-1.751.746-2.487a6.944 6.944 0 011.228-1.911 5.152 5.152 0 011.709-1.212c.653-.29 1.383-.435 2.191-.435.798 0 1.492.119 2.083.357.601.238 1.108.58 1.523 1.026.414.445.746.984.994 1.616a9.03 9.03 0 01.529 2.145v7.164a8.615 8.615 0 01-.513 2.129 5.26 5.26 0 01-.995 1.632 4.096 4.096 0 01-1.538 1.025c-.601.238-1.306.358-2.114.358-.994 0-1.87-.197-2.626-.591a5.538 5.538 0 01-1.912-1.694c-.507-.725-.896-1.58-1.165-2.564-.259-.995-.389-2.082-.389-3.264zm2.891-.326v.326c0 .798.067 1.544.202 2.238.145.694.368 1.306.668 1.834a3.49 3.49 0 001.212 1.243c.498.29 1.109.435 1.834.435.622 0 1.135-.077 1.539-.233.404-.155.725-.357.963-.606.238-.248.42-.507.544-.777v-9.464a2.307 2.307 0 00-.513-.792c-.228-.259-.544-.467-.948-.622-.404-.156-.922-.233-1.554-.233-.725 0-1.341.176-1.849.528-.508.352-.917.834-1.228 1.445-.3.612-.523 1.321-.668 2.129a15.287 15.287 0 00-.202 2.549zm5.532 14.577v-30.335h2.891v30.335h-2.891zm14.865-14.686v-.357c0-1.212.176-2.336.528-3.372.352-1.047.86-1.953 1.523-2.72a6.797 6.797 0 012.409-1.803c.942-.435 1.999-.652 3.17-.652 1.181 0 2.243.217 3.186.652a6.764 6.764 0 012.424 1.803c.673.767 1.186 1.673 1.539 2.72.352 1.036.528 2.16.528 3.372v.357c0 1.213-.176 2.337-.528 3.373a8.087 8.087 0 01-1.539 2.719 7.042 7.042 0 01-2.409 1.803c-.932.425-1.989.637-3.17.637-1.181 0-2.243-.212-3.186-.637a7.196 7.196 0 01-2.424-1.803 8.208 8.208 0 01-1.523-2.719c-.352-1.036-.528-2.16-.528-3.373zm2.874-.357v.357c0 .84.099 1.632.296 2.378.197.736.492 1.388.886 1.958.404.57.906 1.021 1.507 1.352.601.321 1.3.482 2.098.482.787 0 1.476-.161 2.067-.482a4.334 4.334 0 001.492-1.352c.393-.57.689-1.222.886-1.958.207-.746.31-1.538.31-2.378v-.357a8.63 8.63 0 00-.31-2.347 6.036 6.036 0 00-.902-1.973 4.275 4.275 0 00-1.492-1.368c-.59-.331-1.284-.497-2.082-.497-.787 0-1.482.166-2.083.497a4.471 4.471 0 00-1.491 1.368 6.225 6.225 0 00-.886 1.973 9.042 9.042 0 00-.296 2.347zm27.763-.948v2.331h-8.889v-2.331h8.889zm-8.283-7.289v16.815h-2.875v-16.815h2.875zm10.614 0v16.815h-2.89v-16.815h2.89zm23.948-7.319h2.362c0 1.015-.156 1.823-.466 2.424a3.387 3.387 0 01-1.275 1.368 6.392 6.392 0 01-1.802.73c-.663.166-1.352.326-2.067.482a9.452 9.452 0 00-2.487.886 5.801 5.801 0 00-1.958 1.678c-.539.725-.937 1.668-1.196 2.828-.249 1.161-.316 2.596-.202 4.305v1.43h-2.363v-1.43c0-1.916.182-3.59.544-5.019.373-1.43.896-2.637 1.57-3.621.673-.985 1.471-1.767 2.393-2.347a9.051 9.051 0 013.077-1.197 20.803 20.803 0 002.083-.497c.58-.186 1.02-.435 1.321-.746.31-.311.466-.735.466-1.274zm-3.404 8.283c1.099 0 2.078.192 2.938.575.859.383 1.59.917 2.191 1.601.601.683 1.056 1.492 1.367 2.424.321.922.482 1.927.482 3.015v.342c0 1.17-.171 2.258-.513 3.263a7.518 7.518 0 01-1.476 2.611 6.695 6.695 0 01-2.362 1.725c-.922.414-1.974.622-3.155.622-1.181 0-2.238-.208-3.17-.622a6.88 6.88 0 01-2.362-1.725 7.731 7.731 0 01-1.492-2.611c-.332-1.005-.498-2.093-.498-3.263v-.342c0-.259.047-.513.14-.762.093-.248.207-.502.342-.761.145-.259.275-.534.389-.824a9.98 9.98 0 011.569-2.595 7.927 7.927 0 012.409-1.927c.943-.497 2.01-.746 3.201-.746zm-.559 2.347c-1.057 0-1.927.243-2.611.73a4.397 4.397 0 00-1.507 1.943 6.681 6.681 0 00-.498 2.595v.342c0 .787.094 1.533.28 2.238.187.704.466 1.331.839 1.88.384.539.865.963 1.446 1.274.59.311 1.284.466 2.082.466.798 0 1.487-.155 2.067-.466a4.028 4.028 0 001.43-1.274 6.103 6.103 0 00.839-1.88 8.74 8.74 0 00.28-2.238v-.342c0-.705-.094-1.373-.28-2.005a4.96 4.96 0 00-.855-1.678 3.871 3.871 0 00-1.445-1.15c-.58-.29-1.269-.435-2.067-.435zm22.355-3.311v2.378h-8.128v-2.378h8.128zm2.533 0v16.815h-2.875v-16.815h2.875zm-11.36 0h2.89l-.435 8.113a30.351 30.351 0 01-.357 3.325c-.156.953-.373 1.772-.653 2.456-.269.683-.611 1.243-1.026 1.678a3.751 3.751 0 01-1.461.948c-.569.197-1.227.295-1.973.295h-.902v-2.533l.622-.046c.446-.032.824-.135 1.134-.311.322-.176.591-.435.809-.777.217-.353.393-.803.528-1.352.145-.549.254-1.202.326-1.958.083-.757.145-1.637.187-2.642l.311-7.196zm15.548 8.594v-.357c0-1.212.176-2.336.528-3.372.352-1.047.86-1.953 1.523-2.72a6.797 6.797 0 012.409-1.803c.943-.435 1.999-.652 3.17-.652 1.181 0 2.243.217 3.186.652a6.764 6.764 0 012.424 1.803c.674.767 1.186 1.673 1.539 2.72.352 1.036.528 2.16.528 3.372v.357c0 1.213-.176 2.337-.528 3.373a8.07 8.07 0 01-1.539 2.719 7.042 7.042 0 01-2.409 1.803c-.932.425-1.989.637-3.17.637-1.181 0-2.243-.212-3.186-.637a7.196 7.196 0 01-2.424-1.803 8.208 8.208 0 01-1.523-2.719c-.352-1.036-.528-2.16-.528-3.373zm2.875-.357v.357c0 .84.098 1.632.295 2.378.197.736.492 1.388.886 1.958.404.57.906 1.021 1.507 1.352.601.321 1.3.482 2.098.482.787 0 1.476-.161 2.067-.482a4.334 4.334 0 001.492-1.352c.394-.57.689-1.222.886-1.958.207-.746.31-1.538.31-2.378v-.357a8.63 8.63 0 00-.31-2.347 6.036 6.036 0 00-.902-1.973 4.275 4.275 0 00-1.492-1.368c-.59-.331-1.284-.497-2.082-.497-.787 0-1.482.166-2.082.497a4.465 4.465 0 00-1.492 1.368 6.225 6.225 0 00-.886 1.973 9.042 9.042 0 00-.295 2.347zm19.479-8.237v16.815h-2.875v-16.815h2.875zm11.034 0l-7.972 9.636h-4.025l-.435-2.518h3.294l5.641-7.118h3.497zm-3.092 16.815l-6.186-7.615 1.85-2.082 7.988 9.697h-3.652zm9.58-4.553l7.755-12.262h2.89v16.815h-2.89V179.43l-7.755 12.261h-2.86v-16.815h2.86v12.262zm18.454-9.029v20.047h-2.891v-23.28h2.642l.249 3.233zm11.329 5.035v.326c0 1.223-.145 2.357-.435 3.404-.29 1.036-.715 1.937-1.274 2.704a5.815 5.815 0 01-2.036 1.787c-.808.425-1.736.637-2.782.637-1.067 0-2.01-.176-2.828-.528a5.581 5.581 0 01-2.083-1.539c-.57-.673-1.025-1.481-1.367-2.424-.332-.943-.56-2.005-.684-3.186v-1.74c.124-1.244.357-2.357.699-3.342.342-.984.793-1.823 1.352-2.517a5.554 5.554 0 012.067-1.601c.808-.373 1.741-.559 2.797-.559 1.057 0 1.995.207 2.813.621a5.646 5.646 0 012.067 1.741c.56.756.979 1.663 1.259 2.719.29 1.047.435 2.212.435 3.497zm-2.891.326v-.326c0-.839-.088-1.627-.264-2.362-.176-.746-.45-1.399-.823-1.958a3.924 3.924 0 00-1.399-1.337c-.57-.331-1.248-.497-2.036-.497-.725 0-1.357.124-1.896.373a4.105 4.105 0 00-1.352 1.01 5.369 5.369 0 00-.917 1.43 8.132 8.132 0 00-.512 1.647v4.025c.207.725.497 1.409.87 2.051.373.632.87 1.145 1.492 1.539.621.383 1.403.575 2.346.575.777 0 1.446-.161 2.005-.482a4.055 4.055 0 001.399-1.352c.373-.57.647-1.222.823-1.958.176-.746.264-1.538.264-2.378zm11.415 6.481l4.677-15.075h3.077l-6.744 19.411c-.156.414-.363.859-.622 1.336-.248.487-.57.948-.963 1.383a4.594 4.594 0 01-1.43 1.057c-.549.28-1.207.419-1.974.419-.228 0-.518-.031-.87-.093a8.612 8.612 0 01-.746-.155l-.015-2.331c.082.01.212.02.388.031.187.021.316.031.389.031.652 0 1.207-.088 1.662-.264.456-.166.84-.451 1.15-.855.322-.394.596-.938.824-1.632l1.197-3.263zm-3.435-15.075l4.367 13.054.746 3.031-2.067 1.057-6.185-17.142h3.139zm20.863 17.126c-1.171 0-2.233-.197-3.186-.59a7.226 7.226 0 01-2.44-1.694 7.552 7.552 0 01-1.554-2.58c-.362-.995-.544-2.083-.544-3.264v-.652c0-1.368.202-2.585.607-3.652.404-1.078.953-1.99 1.647-2.735a7.046 7.046 0 012.362-1.694 6.774 6.774 0 012.735-.575c1.202 0 2.238.207 3.108.621a5.665 5.665 0 012.16 1.741c.56.735.974 1.606 1.244 2.611.269.994.404 2.082.404 3.263v1.29h-12.557v-2.347h9.682v-.217a7.174 7.174 0 00-.467-2.176 3.906 3.906 0 00-1.243-1.74c-.57-.456-1.347-.684-2.331-.684-.653 0-1.254.14-1.803.419-.549.27-1.02.674-1.414 1.213-.393.538-.699 1.196-.917 1.973-.217.777-.326 1.673-.326 2.689v.652c0 .798.109 1.549.326 2.254.228.694.555 1.305.979 1.834.435.528.959.942 1.57 1.243.622.3 1.326.45 2.113.45 1.016 0 1.876-.207 2.58-.621a6.403 6.403 0 001.85-1.663l1.74 1.383a8.097 8.097 0 01-1.383 1.57c-.56.497-1.248.901-2.067 1.212-.808.311-1.766.466-2.875.466zm16.885-17.126v16.815h-2.891v-16.815h2.891zm5.641 0v2.332h-14.064v-2.332h14.064zm16.084 15.075l4.677-15.075h3.077l-6.744 19.411c-.156.414-.363.859-.622 1.336-.249.487-.57.948-.963 1.383a4.594 4.594 0 01-1.43 1.057c-.549.28-1.207.419-1.974.419-.228 0-.518-.031-.87-.093a8.612 8.612 0 01-.746-.155l-.016-2.331c.083.01.213.02.389.031.186.021.316.031.388.031.653 0 1.207-.088 1.663-.264a2.518 2.518 0 001.15-.855c.321-.394.596-.938.824-1.632l1.197-3.263zm-3.435-15.075l4.367 13.054.746 3.031-2.067 1.057-6.185-17.142h3.139zm20.614 14.764c.684 0 1.316-.14 1.896-.42a3.9 3.9 0 001.43-1.15 3.203 3.203 0 00.637-1.694h2.735c-.052.995-.388 1.922-1.01 2.782-.611.85-1.414 1.539-2.409 2.067-.994.518-2.087.777-3.279.777-1.264 0-2.367-.223-3.31-.668a6.574 6.574 0 01-2.331-1.834 8.2 8.2 0 01-1.383-2.673 11.296 11.296 0 01-.451-3.217v-.652c0-1.13.151-2.197.451-3.202a8.176 8.176 0 011.383-2.688 6.563 6.563 0 012.331-1.834c.943-.446 2.046-.668 3.31-.668 1.316 0 2.466.269 3.45.808a5.928 5.928 0 012.316 2.175c.57.912.88 1.948.932 3.109h-2.735a4.156 4.156 0 00-.59-1.881 3.686 3.686 0 00-1.368-1.336c-.57-.342-1.238-.513-2.005-.513-.88 0-1.621.176-2.222.528a3.886 3.886 0 00-1.414 1.399 6.52 6.52 0 00-.746 1.942 10.697 10.697 0 00-.218 2.161v.652c0 .736.073 1.461.218 2.176.145.715.388 1.362.73 1.942a4.065 4.065 0 001.414 1.399c.601.342 1.347.513 2.238.513zm17.102-14.764v16.815h-2.89v-16.815h2.89zm5.642 0v2.332h-14.065v-2.332h14.065zm12.812 13.94v-8.656c0-.663-.134-1.238-.404-1.725a2.646 2.646 0 00-1.181-1.15c-.528-.269-1.181-.404-1.958-.404-.725 0-1.362.124-1.911.373-.539.249-.964.575-1.275.979-.3.404-.45.839-.45 1.306h-2.875c0-.601.155-1.197.466-1.788a5.229 5.229 0 011.336-1.6c.591-.487 1.295-.871 2.114-1.15.829-.29 1.751-.435 2.766-.435 1.223 0 2.3.207 3.233.621.942.415 1.678 1.041 2.206 1.881.539.828.808 1.87.808 3.123v7.833c0 .559.047 1.155.14 1.787.104.632.254 1.176.451 1.632v.248h-2.999c-.145-.331-.259-.772-.342-1.321a10.633 10.633 0 01-.125-1.554zm.498-7.319l.031 2.02h-2.906c-.819 0-1.549.067-2.192.202-.642.124-1.181.316-1.616.575a2.73 2.73 0 00-.994.979c-.228.383-.342.834-.342 1.352 0 .528.119 1.01.357 1.445.239.435.596.783 1.073 1.042.486.248 1.082.373 1.787.373.88 0 1.657-.187 2.331-.56.673-.373 1.207-.829 1.6-1.367.404-.539.622-1.062.653-1.57l1.228 1.383c-.073.435-.27.917-.591 1.445a6.888 6.888 0 01-1.29 1.523 6.937 6.937 0 01-1.896 1.197c-.725.311-1.543.466-2.455.466-1.14 0-2.139-.223-2.999-.668-.85-.446-1.513-1.041-1.989-1.787a4.727 4.727 0 01-.7-2.533c0-.902.176-1.694.529-2.378a4.591 4.591 0 011.523-1.725c.663-.466 1.46-.819 2.393-1.057.932-.238 1.973-.357 3.123-.357h3.342zm18.625.668v2.331h-8.889v-2.331h8.889zm-8.283-7.289v16.815h-2.875v-16.815h2.875zm10.614 0v16.815h-2.891v-16.815h2.891zm4.188 8.594v-.357c0-1.212.176-2.336.528-3.372.352-1.047.86-1.953 1.523-2.72a6.797 6.797 0 012.409-1.803c.943-.435 1.999-.652 3.17-.652 1.181 0 2.243.217 3.186.652a6.764 6.764 0 012.424 1.803c.674.767 1.186 1.673 1.539 2.72.352 1.036.528 2.16.528 3.372v.357c0 1.213-.176 2.337-.528 3.373a8.07 8.07 0 01-1.539 2.719 7.042 7.042 0 01-2.409 1.803c-.932.425-1.989.637-3.17.637-1.181 0-2.243-.212-3.186-.637a7.196 7.196 0 01-2.424-1.803 8.208 8.208 0 01-1.523-2.719c-.352-1.036-.528-2.16-.528-3.373zm2.875-.357v.357c0 .84.098 1.632.295 2.378.197.736.492 1.388.886 1.958.404.57.906 1.021 1.507 1.352.601.321 1.3.482 2.098.482.787 0 1.476-.161 2.067-.482a4.334 4.334 0 001.492-1.352c.394-.57.689-1.222.886-1.958.207-.746.31-1.538.31-2.378v-.357a8.63 8.63 0 00-.31-2.347 6.036 6.036 0 00-.902-1.973 4.275 4.275 0 00-1.492-1.368c-.59-.331-1.284-.497-2.082-.497-.787 0-1.482.166-2.082.497a4.465 4.465 0 00-1.492 1.368 6.225 6.225 0 00-.886 1.973 9.042 9.042 0 00-.295 2.347zm24.25 1.181h-5.517l-.031-2.3h4.507c.891 0 1.632-.088 2.222-.264.601-.176 1.052-.441 1.352-.793.301-.352.451-.787.451-1.305 0-.404-.088-.756-.264-1.057a1.916 1.916 0 00-.762-.761c-.341-.208-.766-.358-1.274-.451-.497-.104-1.083-.155-1.756-.155h-3.683v14.483h-2.875v-16.815h6.558c1.067 0 2.025.094 2.875.28.86.187 1.59.472 2.191.855.611.373 1.078.849 1.399 1.43.321.58.482 1.264.482 2.051 0 .508-.104.989-.311 1.445-.207.456-.513.86-.917 1.212-.404.353-.901.643-1.492.871-.591.217-1.269.357-2.036.419l-1.119.855zm0 7.397h-6.558l1.43-2.331h5.128c.798 0 1.461-.098 1.989-.295.529-.207.923-.497 1.182-.87.269-.384.404-.84.404-1.368 0-.528-.135-.979-.404-1.352-.259-.383-.653-.673-1.182-.87-.528-.207-1.191-.311-1.989-.311h-4.367l.031-2.3h5.455l1.041.87c.922.073 1.705.301 2.347.684.642.383 1.129.87 1.461 1.461a3.76 3.76 0 01.497 1.896c0 .787-.15 1.481-.451 2.082a3.959 3.959 0 01-1.274 1.508c-.559.393-1.238.694-2.036.901-.797.197-1.699.295-2.704.295zm13.761-16.815v16.815h-2.875v-16.815h2.875zm11.034 0l-7.972 9.636h-4.025l-.436-2.518h3.295l5.641-7.118h3.497zm-3.093 16.815l-6.185-7.615 1.849-2.082 7.988 9.697h-3.652zm11.197-1.74l4.678-15.075h3.077l-6.745 19.411c-.155.414-.363.859-.622 1.336a6.357 6.357 0 01-.963 1.383c-.394.435-.87.788-1.43 1.057-.549.28-1.207.419-1.973.419a5.23 5.23 0 01-.871-.093 8.612 8.612 0 01-.746-.155l-.015-2.331c.083.01.212.02.388.031.187.021.316.031.389.031.653 0 1.207-.088 1.663-.264a2.518 2.518 0 001.15-.855c.321-.394.595-.938.823-1.632l1.197-3.263zm-3.435-15.075l4.367 13.054.746 3.031-2.067 1.057-6.185-17.142h3.139zm-430.169 39v2.378h-8.5v-2.378h8.5zm-8.08 0v16.815h-2.876v-16.815h2.875zm10.63 0v16.815H61.73v-16.815h2.89zm7.808 3.233v20.047h-2.89v-23.28h2.641l.249 3.233zm11.329 5.035v.326c0 1.223-.145 2.357-.435 3.404-.29 1.036-.715 1.937-1.275 2.704a5.806 5.806 0 01-2.035 1.787c-.808.425-1.736.637-2.782.637-1.067 0-2.01-.176-2.829-.528a5.582 5.582 0 01-2.082-1.539c-.57-.673-1.026-1.481-1.367-2.424-.332-.943-.56-2.005-.684-3.186v-1.74c.124-1.244.357-2.357.7-3.342.341-.984.792-1.823 1.351-2.517a5.55 5.55 0 012.067-1.601c.808-.373 1.74-.559 2.797-.559 1.057 0 1.995.207 2.813.621a5.653 5.653 0 012.067 1.741c.56.756.98 1.663 1.259 2.719.29 1.047.435 2.212.435 3.497zm-2.89.326v-.326c0-.839-.089-1.627-.265-2.362-.176-.746-.45-1.399-.823-1.958a3.923 3.923 0 00-1.4-1.337c-.569-.331-1.248-.497-2.035-.497-.725 0-1.357.124-1.896.373a4.1 4.1 0 00-1.352 1.01 5.353 5.353 0 00-.917 1.43 8.204 8.204 0 00-.513 1.647v4.025c.208.725.498 1.409.87 2.051.374.632.87 1.145 1.493 1.539.621.383 1.403.575 2.346.575.777 0 1.445-.161 2.005-.482a4.054 4.054 0 001.399-1.352c.372-.57.647-1.222.823-1.958.176-.746.264-1.538.264-2.378zm9.984 3.668l7.755-12.262h2.89v16.815h-2.89V218.43l-7.755 12.261h-2.86v-16.815h2.86v12.262zm26.815-12.262v2.378h-8.128v-2.378h8.128zm2.533 0v16.815h-2.875v-16.815h2.875zm-11.36 0h2.89l-.435 8.113a30.107 30.107 0 01-.357 3.325c-.156.953-.373 1.772-.653 2.456-.269.683-.611 1.243-1.026 1.678a3.751 3.751 0 01-1.461.948c-.569.197-1.227.295-1.973.295h-.902v-2.533l.622-.046c.446-.032.824-.135 1.135-.311.321-.176.59-.435.808-.777.217-.353.393-.803.528-1.352.145-.549.254-1.202.326-1.958.083-.757.145-1.637.187-2.642l.311-7.196zm15.548 8.594v-.357c0-1.212.176-2.336.528-3.372.352-1.047.86-1.953 1.523-2.72a6.797 6.797 0 012.409-1.803c.943-.435 1.999-.652 3.17-.652 1.181 0 2.243.217 3.186.652a6.764 6.764 0 012.424 1.803c.674.767 1.186 1.673 1.539 2.72.352 1.036.528 2.16.528 3.372v.357c0 1.213-.176 2.337-.528 3.373a8.07 8.07 0 01-1.539 2.719 7.042 7.042 0 01-2.409 1.803c-.932.425-1.989.637-3.17.637-1.181 0-2.243-.212-3.186-.637a7.206 7.206 0 01-2.424-1.803 8.208 8.208 0 01-1.523-2.719c-.352-1.036-.528-2.16-.528-3.373zm2.875-.357v.357c0 .84.098 1.632.295 2.378.197.736.492 1.388.886 1.958.404.57.906 1.021 1.507 1.352.601.321 1.3.482 2.098.482.788 0 1.477-.161 2.067-.482a4.334 4.334 0 001.492-1.352c.394-.57.689-1.222.886-1.958a8.854 8.854 0 00.311-2.378v-.357a8.63 8.63 0 00-.311-2.347 6.036 6.036 0 00-.902-1.973 4.28 4.28 0 00-1.491-1.368c-.591-.331-1.285-.497-2.083-.497-.787 0-1.481.166-2.082.497a4.465 4.465 0 00-1.492 1.368 6.225 6.225 0 00-.886 1.973 9.042 9.042 0 00-.295 2.347zm21.111 1.259l-6.371-9.496h3.465l4.351 6.963h3.357l-.419 2.533h-4.383zm1.57-.296l-4.88 7.615h-3.636l6.698-9.697 1.818 2.082zm4.709-9.2v16.815h-2.875v-16.815h2.875zm9.806 0l-6.372 9.496h-4.382l-.451-2.533h3.372l4.352-6.963h3.481zm-3.077 16.815l-4.896-7.615 1.85-2.082 6.682 9.697h-3.636zm13.279.311c-1.171 0-2.233-.197-3.186-.59a7.226 7.226 0 01-2.44-1.694 7.552 7.552 0 01-1.554-2.58c-.363-.995-.544-2.083-.544-3.264v-.652c0-1.368.202-2.585.606-3.652.404-1.078.953-1.99 1.647-2.735a7.06 7.06 0 012.363-1.694 6.77 6.77 0 012.735-.575c1.201 0 2.238.207 3.108.621.88.415 1.6.995 2.16 1.741.559.735.974 1.606 1.243 2.611.27.994.404 2.082.404 3.263v1.29h-12.557v-2.347h9.682v-.217a7.173 7.173 0 00-.466-2.176 3.906 3.906 0 00-1.243-1.74c-.57-.456-1.347-.684-2.331-.684-.653 0-1.254.14-1.803.419a3.84 3.84 0 00-1.414 1.213c-.394.538-.7 1.196-.917 1.973-.218.777-.326 1.673-.326 2.689v.652c0 .798.108 1.549.326 2.254.228.694.554 1.305.979 1.834.435.528.958.942 1.57 1.243.621.3 1.326.45 2.113.45 1.015 0 1.875-.207 2.58-.621a6.4 6.4 0 001.849-1.663l1.741 1.383a8.097 8.097 0 01-1.383 1.57c-.56.497-1.249.901-2.067 1.212-.808.311-1.767.466-2.875.466zm21.624-9.837v2.331h-8.889v-2.331h8.889zm-8.283-7.289v16.815h-2.875v-16.815h2.875zm10.614 0v16.815h-2.891v-16.815h2.891zm8.057 12.262l7.755-12.262h2.891v16.815h-2.891V218.43l-7.755 12.261h-2.859v-16.815h2.859v12.262zm18.688 0l7.754-12.262h2.891v16.815h-2.891V218.43l-7.754 12.261h-2.86v-16.815h2.86v12.262zm6.185-18.353h2.331c0 .808-.187 1.528-.56 2.16-.373.621-.906 1.108-1.6 1.46-.694.353-1.518.529-2.471.529-1.44 0-2.58-.383-3.419-1.15-.829-.777-1.243-1.777-1.243-2.999h2.331c0 .611.176 1.15.528 1.616.352.466.953.699 1.803.699.829 0 1.419-.233 1.771-.699a2.603 2.603 0 00.529-1.616zm20.715 18.353l7.754-12.262h2.891v16.815h-2.891V218.43l-7.754 12.261h-2.86v-16.815h2.86v12.262zm21.857-3.481h-3.092v-1.772h2.859c.798 0 1.43-.098 1.896-.295.466-.207.798-.492.995-.855.196-.362.295-.787.295-1.274 0-.435-.114-.844-.342-1.228-.218-.393-.57-.709-1.057-.948-.487-.248-1.139-.373-1.958-.373a4.4 4.4 0 00-1.803.358c-.538.228-.968.544-1.29.948-.31.393-.466.839-.466 1.336h-2.875c0-1.026.29-1.906.871-2.642.59-.746 1.372-1.321 2.346-1.725.984-.404 2.057-.606 3.217-.606.974 0 1.844.109 2.611.327.777.207 1.435.518 1.974.932.538.404.947.912 1.227 1.523.29.601.435 1.3.435 2.098 0 .57-.134 1.108-.404 1.616a4.213 4.213 0 01-1.165 1.352c-.508.383-1.124.684-1.85.901-.714.218-1.523.327-2.424.327zm-3.092-1.088h3.092c1.005 0 1.891.098 2.658.295.766.187 1.409.466 1.927.839.518.373.906.834 1.165 1.384.269.538.404 1.16.404 1.864 0 .788-.16 1.497-.482 2.129a4.453 4.453 0 01-1.336 1.586c-.58.435-1.274.766-2.083.994-.797.228-1.683.342-2.657.342a9.201 9.201 0 01-3.17-.559c-1.026-.373-1.87-.948-2.533-1.725-.663-.788-.995-1.788-.995-3h2.875c0 .508.161.99.482 1.446.321.455.767.823 1.336 1.103.581.28 1.249.42 2.005.42.808 0 1.482-.125 2.02-.373.539-.249.943-.581 1.212-.995.28-.414.42-.865.42-1.352 0-.632-.124-1.14-.373-1.523s-.632-.663-1.15-.839c-.508-.187-1.16-.28-1.958-.28h-2.859v-1.756zm32.914-.404v2.331h-8.889v-2.331h8.889zm-8.283-7.289v16.815h-2.875v-16.815h2.875zm10.614 0v16.815h-2.891v-16.815h2.891zm11.927 17.126c-1.171 0-2.233-.197-3.186-.59a7.226 7.226 0 01-2.44-1.694 7.552 7.552 0 01-1.554-2.58c-.362-.995-.544-2.083-.544-3.264v-.652c0-1.368.202-2.585.606-3.652.404-1.078.953-1.99 1.648-2.735a7.046 7.046 0 012.362-1.694 6.77 6.77 0 012.735-.575c1.202 0 2.238.207 3.108.621a5.665 5.665 0 012.16 1.741c.56.735.974 1.606 1.243 2.611.27.994.404 2.082.404 3.263v1.29h-12.556v-2.347h9.681v-.217a7.143 7.143 0 00-.466-2.176 3.906 3.906 0 00-1.243-1.74c-.57-.456-1.347-.684-2.331-.684-.653 0-1.254.14-1.803.419-.549.27-1.02.674-1.414 1.213-.394.538-.699 1.196-.917 1.973-.217.777-.326 1.673-.326 2.689v.652c0 .798.109 1.549.326 2.254.228.694.554 1.305.979 1.834.435.528.958.942 1.57 1.243.621.3 1.326.45 2.113.45 1.016 0 1.875-.207 2.58-.621a6.4 6.4 0 001.849-1.663l1.741 1.383a8.097 8.097 0 01-1.383 1.57c-.56.497-1.249.901-2.067 1.212-.808.311-1.767.466-2.875.466zm13.326-4.864l7.754-12.262h2.891v16.815h-2.891V218.43l-7.754 12.261h-2.86v-16.815h2.86v12.262zm21.857-3.481h-3.093v-1.772h2.86c.798 0 1.43-.098 1.896-.295.466-.207.798-.492.994-.855.197-.362.296-.787.296-1.274 0-.435-.114-.844-.342-1.228-.218-.393-.57-.709-1.057-.948-.487-.248-1.14-.373-1.958-.373a4.4 4.4 0 00-1.803.358c-.539.228-.968.544-1.29.948-.31.393-.466.839-.466 1.336h-2.875c0-1.026.29-1.906.87-2.642.591-.746 1.373-1.321 2.347-1.725.984-.404 2.057-.606 3.217-.606.974 0 1.844.109 2.611.327.777.207 1.435.518 1.973.932a3.91 3.91 0 011.228 1.523c.29.601.435 1.3.435 2.098 0 .57-.134 1.108-.404 1.616a4.213 4.213 0 01-1.165 1.352c-.508.383-1.124.684-1.85.901-.715.218-1.523.327-2.424.327zm-3.093-1.088h3.093c1.005 0 1.891.098 2.657.295.767.187 1.409.466 1.927.839.518.373.907.834 1.166 1.384.269.538.404 1.16.404 1.864 0 .788-.161 1.497-.482 2.129a4.463 4.463 0 01-1.336 1.586c-.58.435-1.275.766-2.083.994-.797.228-1.683.342-2.657.342a9.201 9.201 0 01-3.17-.559c-1.026-.373-1.87-.948-2.533-1.725-.664-.788-.995-1.788-.995-3h2.875c0 .508.161.99.482 1.446.321.455.766.823 1.336 1.103.58.28 1.249.42 2.005.42.808 0 1.481-.125 2.02-.373.539-.249.943-.581 1.212-.995.28-.414.42-.865.42-1.352 0-.632-.124-1.14-.373-1.523s-.632-.663-1.15-.839c-.508-.187-1.16-.28-1.958-.28h-2.86v-1.756zm21.19 1.725h-5.517l-.031-2.3h4.506c.891 0 1.632-.088 2.223-.264.601-.176 1.051-.441 1.352-.793.3-.352.45-.787.45-1.305 0-.404-.088-.756-.264-1.057a1.913 1.913 0 00-.761-.761c-.342-.208-.767-.358-1.275-.451-.497-.104-1.082-.155-1.756-.155h-3.683v14.483h-2.875v-16.815h6.558c1.067 0 2.026.094 2.875.28.86.187 1.591.472 2.192.855a3.844 3.844 0 011.398 1.43c.321.58.482 1.264.482 2.051 0 .508-.104.989-.311 1.445-.207.456-.513.86-.917 1.212-.404.353-.901.643-1.492.871-.59.217-1.269.357-2.035.419l-1.119.855zm0 7.397h-6.559l1.43-2.331h5.129c.797 0 1.46-.098 1.989-.295.528-.207.922-.497 1.181-.87.269-.384.404-.84.404-1.368 0-.528-.135-.979-.404-1.352-.259-.383-.653-.673-1.181-.87-.529-.207-1.192-.311-1.989-.311h-4.367l.031-2.3h5.455l1.041.87c.922.073 1.704.301 2.346.684.643.383 1.13.87 1.461 1.461a3.75 3.75 0 01.497 1.896c0 .787-.15 1.481-.45 2.082a3.961 3.961 0 01-1.275 1.508c-.559.393-1.238.694-2.035.901-.798.197-1.699.295-2.704.295zm17.614.311c-1.17 0-2.232-.197-3.185-.59a7.226 7.226 0 01-2.44-1.694 7.52 7.52 0 01-1.554-2.58c-.363-.995-.544-2.083-.544-3.264v-.652c0-1.368.202-2.585.606-3.652.404-1.078.953-1.99 1.647-2.735a7.056 7.056 0 012.362-1.694 6.777 6.777 0 012.735-.575c1.202 0 2.238.207 3.109.621.88.415 1.6.995 2.16 1.741.559.735.974 1.606 1.243 2.611.269.994.404 2.082.404 3.263v1.29h-12.557v-2.347h9.682v-.217a7.173 7.173 0 00-.466-2.176 3.914 3.914 0 00-1.243-1.74c-.57-.456-1.347-.684-2.332-.684-.652 0-1.253.14-1.802.419a3.84 3.84 0 00-1.414 1.213c-.394.538-.7 1.196-.917 1.973-.218.777-.327 1.673-.327 2.689v.652c0 .798.109 1.549.327 2.254.228.694.554 1.305.979 1.834.435.528.958.942 1.569 1.243.622.3 1.326.45 2.114.45 1.015 0 1.875-.207 2.58-.621a6.4 6.4 0 001.849-1.663l1.74 1.383a8.03 8.03 0 01-1.383 1.57c-.559.497-1.248.901-2.067 1.212-.808.311-1.766.466-2.875.466zm16.947-2.362c.684 0 1.316-.14 1.896-.42a3.9 3.9 0 001.43-1.15 3.203 3.203 0 00.637-1.694h2.735c-.052.995-.388 1.922-1.01 2.782-.611.85-1.414 1.539-2.409 2.067-.994.518-2.087.777-3.279.777-1.264 0-2.367-.223-3.31-.668a6.574 6.574 0 01-2.331-1.834 8.2 8.2 0 01-1.383-2.673 11.261 11.261 0 01-.451-3.217v-.652c0-1.13.15-2.197.451-3.202a8.176 8.176 0 011.383-2.688 6.563 6.563 0 012.331-1.834c.943-.446 2.046-.668 3.31-.668 1.316 0 2.466.269 3.45.808a5.935 5.935 0 012.316 2.175c.569.912.88 1.948.932 3.109h-2.735a4.145 4.145 0 00-.591-1.881 3.676 3.676 0 00-1.367-1.336c-.57-.342-1.238-.513-2.005-.513-.881 0-1.621.176-2.222.528a3.886 3.886 0 00-1.414 1.399 6.52 6.52 0 00-.746 1.942 10.697 10.697 0 00-.218 2.161v.652c0 .736.073 1.461.218 2.176.145.715.388 1.362.73 1.942a4.056 4.056 0 001.414 1.399c.601.342 1.347.513 2.238.513zm17.102-14.764v16.815h-2.89v-16.815h2.89zm5.641 0v2.332h-14.064v-2.332h14.064zm14.554 7.289v2.331h-8.889v-2.331h8.889zm-8.283-7.289v16.815h-2.875v-16.815h2.875zm10.614 0v16.815h-2.891v-16.815h2.891zm7.311 5.782h5.051c1.357 0 2.502.238 3.434.714.933.467 1.637 1.114 2.114 1.943.487.818.73 1.751.73 2.797 0 .777-.134 1.508-.404 2.191a4.912 4.912 0 01-1.212 1.772c-.528.508-1.186.907-1.974 1.197-.777.279-1.673.419-2.688.419h-7.149v-16.815h2.875v14.453h4.274c.829 0 1.492-.15 1.989-.451.497-.3.855-.689 1.072-1.165.218-.477.327-.974.327-1.492 0-.508-.109-1.005-.327-1.492-.217-.487-.575-.891-1.072-1.212-.497-.332-1.16-.497-1.989-.497h-5.051v-2.362zm17.312-5.782v16.815h-2.875v-16.815h2.875zm7.296 0l3.683 6.123 3.73-6.123h3.373l-5.502 8.299 5.672 8.516h-3.325l-3.885-6.309-3.885 6.309h-3.342l5.657-8.516-5.486-8.299h3.31zM53.976 265.138l7.755-12.262h2.89v16.815h-2.89V257.43l-7.755 12.261h-2.86v-16.815h2.86v12.262zm22.308 2.502c.684 0 1.316-.14 1.896-.42a3.898 3.898 0 001.43-1.15 3.201 3.201 0 00.637-1.694h2.735c-.052.995-.389 1.922-1.01 2.782-.611.85-1.414 1.539-2.409 2.067-.995.518-2.088.777-3.28.777-1.263 0-2.366-.223-3.31-.668a6.568 6.568 0 01-2.33-1.834 8.193 8.193 0 01-1.383-2.673 11.296 11.296 0 01-.451-3.217v-.652c0-1.13.15-2.197.45-3.202a8.169 8.169 0 011.384-2.688 6.556 6.556 0 012.33-1.834c.944-.446 2.047-.668 3.31-.668 1.317 0 2.467.269 3.45.808a5.928 5.928 0 012.316 2.175c.57.912.881 1.948.933 3.109h-2.735a4.143 4.143 0 00-.59-1.881 3.68 3.68 0 00-1.368-1.336c-.57-.342-1.238-.513-2.005-.513-.88 0-1.622.176-2.222.528a3.892 3.892 0 00-1.415 1.399 6.533 6.533 0 00-.746 1.942 10.697 10.697 0 00-.217 2.161v.652c0 .736.073 1.461.218 2.176.145.715.388 1.362.73 1.942a4.055 4.055 0 001.414 1.399c.601.342 1.347.513 2.238.513zm17.102-14.764v16.815h-2.89v-16.815h2.89zm5.641 0v2.332H84.963v-2.332h14.064zm1.733 8.594v-.357c0-1.212.176-2.336.528-3.372.352-1.047.86-1.953 1.523-2.72a6.797 6.797 0 012.409-1.803c.943-.435 1.999-.652 3.17-.652 1.181 0 2.243.217 3.186.652a6.764 6.764 0 012.424 1.803c.674.767 1.186 1.673 1.539 2.72.352 1.036.528 2.16.528 3.372v.357c0 1.213-.176 2.337-.528 3.373a8.07 8.07 0 01-1.539 2.719 7.042 7.042 0 01-2.409 1.803c-.932.425-1.989.637-3.17.637-1.181 0-2.243-.212-3.186-.637a7.206 7.206 0 01-2.424-1.803 8.208 8.208 0 01-1.523-2.719c-.352-1.036-.528-2.16-.528-3.373zm2.875-.357v.357c0 .84.098 1.632.295 2.378.197.736.492 1.388.886 1.958.404.57.906 1.021 1.507 1.352.601.321 1.3.482 2.098.482.787 0 1.476-.161 2.067-.482a4.334 4.334 0 001.492-1.352c.394-.57.689-1.222.886-1.958a8.854 8.854 0 00.311-2.378v-.357a8.63 8.63 0 00-.311-2.347 6.036 6.036 0 00-.902-1.973 4.275 4.275 0 00-1.492-1.368c-.59-.331-1.284-.497-2.082-.497-.787 0-1.482.166-2.082.497a4.465 4.465 0 00-1.492 1.368 6.225 6.225 0 00-.886 1.973 9.042 9.042 0 00-.295 2.347zm29.037-8.237v16.815h-2.875v-16.815h2.875zm-.979 7.724v2.362c-.58.218-1.171.415-1.772.591-.59.166-1.217.3-1.88.404a15.14 15.14 0 01-2.129.14c-1.326 0-2.476-.228-3.45-.684a5.026 5.026 0 01-2.254-2.098c-.528-.943-.792-2.129-.792-3.559v-4.911h2.875v4.911c0 .933.14 1.689.419 2.269.28.58.689 1.01 1.228 1.29.539.269 1.197.404 1.974.404.746 0 1.445-.047 2.098-.14a16.814 16.814 0 001.896-.404 19.921 19.921 0 001.787-.575zm17.335-.435v2.331h-8.889v-2.331h8.889zm-8.283-7.289v16.815h-2.875v-16.815h2.875zm10.614 0v16.815h-2.891v-16.815h2.891zm8.057 12.262l7.755-12.262h2.891v16.815h-2.891V257.43l-7.755 12.261h-2.859v-16.815h2.859v12.262zm18.703-12.262v16.815h-2.875v-16.815h2.875zm11.034 0l-7.972 9.636h-4.025l-.436-2.518h3.295l5.641-7.118h3.497zm-3.093 16.815l-6.185-7.615 1.849-2.082 7.988 9.697h-3.652zm5.369-8.221v-.357c0-1.212.176-2.336.529-3.372.352-1.047.86-1.953 1.523-2.72a6.802 6.802 0 012.408-1.803c.943-.435 2-.652 3.171-.652 1.181 0 2.243.217 3.185.652a6.759 6.759 0 012.425 1.803c.673.767 1.186 1.673 1.538 2.72.353 1.036.529 2.16.529 3.372v.357c0 1.213-.176 2.337-.529 3.373a8.068 8.068 0 01-1.538 2.719 7.042 7.042 0 01-2.409 1.803c-.932.425-1.989.637-3.17.637-1.181 0-2.243-.212-3.186-.637a7.196 7.196 0 01-2.424-1.803 8.208 8.208 0 01-1.523-2.719c-.353-1.036-.529-2.16-.529-3.373zm2.875-.357v.357c0 .84.099 1.632.296 2.378.196.736.492 1.388.885 1.958.404.57.907 1.021 1.508 1.352.601.321 1.3.482 2.098.482.787 0 1.476-.161 2.067-.482a4.322 4.322 0 001.491-1.352c.394-.57.689-1.222.886-1.958a8.814 8.814 0 00.311-2.378v-.357c0-.829-.103-1.611-.311-2.347a6.035 6.035 0 00-.901-1.973 4.284 4.284 0 00-1.492-1.368c-.59-.331-1.285-.497-2.082-.497-.788 0-1.482.166-2.083.497a4.474 4.474 0 00-1.492 1.368 6.223 6.223 0 00-.885 1.973 9.042 9.042 0 00-.296 2.347zm24.251 1.181h-5.517l-.031-2.3h4.507c.891 0 1.631-.088 2.222-.264.601-.176 1.052-.441 1.352-.793.3-.352.451-.787.451-1.305 0-.404-.088-.756-.264-1.057a1.916 1.916 0 00-.762-.761c-.342-.208-.767-.358-1.274-.451-.498-.104-1.083-.155-1.756-.155H213.8v14.483h-2.875v-16.815h6.558c1.067 0 2.025.094 2.875.28.86.187 1.59.472 2.191.855a3.844 3.844 0 011.398 1.43c.322.58.482 1.264.482 2.051 0 .508-.103.989-.311 1.445a3.54 3.54 0 01-.916 1.212c-.405.353-.902.643-1.492.871-.591.217-1.27.357-2.036.419l-1.119.855zm0 7.397h-6.558l1.43-2.331h5.128c.798 0 1.461-.098 1.989-.295.528-.207.922-.497 1.181-.87.27-.384.404-.84.404-1.368 0-.528-.134-.979-.404-1.352-.259-.383-.653-.673-1.181-.87-.528-.207-1.191-.311-1.989-.311h-4.367l.031-2.3h5.455l1.041.87c.922.073 1.704.301 2.347.684.642.383 1.129.87 1.46 1.461a3.75 3.75 0 01.498 1.896c0 .787-.15 1.481-.451 2.082a3.968 3.968 0 01-1.274 1.508c-.56.393-1.238.694-2.036.901-.798.197-1.699.295-2.704.295zm10.684-1.523c0-.487.15-.896.45-1.227.311-.342.757-.513 1.337-.513s1.02.171 1.321.513c.311.331.466.74.466 1.227 0 .477-.155.881-.466 1.212-.301.332-.741.498-1.321.498s-1.026-.166-1.337-.498c-.3-.331-.45-.735-.45-1.212z" fill="#222"/></svg>