<svg width="633" height="184" fill="none" xmlns="http://www.w3.org/2000/svg"><rect x=".778" y=".369" width="632.023" height="183.24" rx="15.529" fill="#fff"/><path d="M36.232 32.33v13.948h-2.398V32.33h2.398zm4.679 0v1.934H29.245V32.33h11.666zm1.965 7.129v-.297c0-1.005.146-1.938.438-2.797a6.646 6.646 0 011.263-2.256 5.635 5.635 0 011.998-1.495c.782-.361 1.659-.541 2.63-.541.98 0 1.86.18 2.642.54.79.353 1.461.852 2.011 1.496a6.533 6.533 0 011.276 2.256c.292.86.438 1.792.438 2.797v.297a8.636 8.636 0 01-.438 2.797 6.694 6.694 0 01-1.276 2.255 5.848 5.848 0 01-1.998 1.496c-.773.352-1.65.528-2.63.528s-1.86-.176-2.642-.528a5.98 5.98 0 01-2.01-1.495 6.813 6.813 0 01-1.264-2.256 8.636 8.636 0 01-.438-2.797zm2.384-.297v.297c0 .696.082 1.353.245 1.972a5.19 5.19 0 00.735 1.624c.335.473.752.846 1.25 1.121.499.267 1.079.4 1.74.4.654 0 1.225-.133 1.715-.4a3.6 3.6 0 001.237-1.121 5.19 5.19 0 00.735-1.624 7.342 7.342 0 00.258-1.972v-.297a7.15 7.15 0 00-.258-1.946 5.013 5.013 0 00-.748-1.637 3.553 3.553 0 00-1.237-1.135c-.49-.275-1.066-.412-1.727-.412-.653 0-1.23.137-1.728.412-.49.275-.902.653-1.237 1.135a5.177 5.177 0 00-.735 1.637 7.505 7.505 0 00-.245 1.946zm23.208-6.832v1.973h-6.741V32.33h6.741zm2.101 0v13.948h-2.384V32.33h2.384zm-9.422 0h2.397l-.36 6.729a25 25 0 01-.297 2.759c-.13.79-.31 1.469-.542 2.036-.223.567-.507 1.031-.85 1.392a3.117 3.117 0 01-1.212.787c-.473.163-1.018.245-1.637.245h-.748v-2.102l.516-.038c.37-.026.683-.112.94-.258.267-.146.49-.361.671-.645.18-.292.327-.666.439-1.121.12-.456.21-.997.27-1.624.069-.628.12-1.358.155-2.192l.258-5.968zm16.015 4.796h4.19c1.125 0 2.075.197 2.848.592.773.387 1.358.924 1.753 1.612.404.679.606 1.452.606 2.32a4.92 4.92 0 01-.335 1.817 4.082 4.082 0 01-1.006 1.47c-.438.421-.984.752-1.637.992-.644.232-1.388.349-2.23.349h-5.93V32.33h2.385v11.988h3.545c.688 0 1.238-.124 1.65-.374.413-.249.71-.571.89-.966.18-.396.27-.808.27-1.238 0-.42-.09-.833-.27-1.237a2.315 2.315 0 00-.89-1.006c-.412-.275-.962-.412-1.65-.412h-4.19v-1.96zm15.757-4.796v13.948h-2.384V32.33h2.384zm9.152 0l-6.612 7.992H92.12l-.36-2.088h2.732l4.679-5.904h2.9zm-2.565 13.948l-5.13-6.317 1.534-1.727 6.625 8.044h-3.029zm4.981-6.82v-.296c0-1.005.147-1.938.439-2.797a6.642 6.642 0 011.263-2.256 5.636 5.636 0 011.998-1.495c.782-.361 1.658-.541 2.63-.541.979 0 1.86.18 2.642.54a5.62 5.62 0 012.011 1.496 6.537 6.537 0 011.276 2.256c.292.86.438 1.792.438 2.797v.297a8.641 8.641 0 01-.438 2.797 6.699 6.699 0 01-1.276 2.255 5.848 5.848 0 01-1.998 1.496c-.774.352-1.65.528-2.63.528-.979 0-1.86-.176-2.642-.528a5.985 5.985 0 01-2.011-1.495 6.809 6.809 0 01-1.263-2.256 8.641 8.641 0 01-.439-2.797zm2.385-.296v.297c0 .696.082 1.353.245 1.972a5.18 5.18 0 00.735 1.624 3.72 3.72 0 001.25 1.121c.499.267 1.079.4 1.74.4.653 0 1.225-.133 1.715-.4a3.596 3.596 0 001.237-1.121 5.175 5.175 0 00.735-1.624 7.334 7.334 0 00.258-1.972v-.297c0-.687-.086-1.336-.258-1.946a5.011 5.011 0 00-.748-1.637 3.55 3.55 0 00-1.237-1.135c-.49-.275-1.066-.412-1.727-.412-.654 0-1.229.137-1.728.412-.49.275-.902.653-1.237 1.135a5.161 5.161 0 00-.735 1.637 7.514 7.514 0 00-.245 1.946zm31.953-6.832v13.948h-2.384V32.33h2.384zm-.812 6.407v1.959c-.481.18-.971.344-1.469.49-.49.137-1.01.25-1.56.335-.541.077-1.13.116-1.766.116-1.1 0-2.054-.189-2.862-.567a4.172 4.172 0 01-1.869-1.74c-.438-.782-.657-1.766-.657-2.952v-4.074h2.385v4.074c0 .773.116 1.4.348 1.882a2.28 2.28 0 001.018 1.07c.447.223.993.335 1.637.335.619 0 1.199-.039 1.74-.116a14.12 14.12 0 001.573-.335 16.532 16.532 0 001.482-.477zm11.13-6.407v13.948h-2.398V32.33h2.398zm4.679 0v1.934h-11.665V32.33h11.665zm1.965 7.129v-.297c0-1.005.146-1.938.438-2.797a6.661 6.661 0 011.264-2.256 5.636 5.636 0 011.998-1.495c.782-.361 1.658-.541 2.629-.541.98 0 1.861.18 2.643.54.79.353 1.461.852 2.011 1.496a6.553 6.553 0 011.276 2.256c.292.86.438 1.792.438 2.797v.297a8.641 8.641 0 01-.438 2.797 6.716 6.716 0 01-1.276 2.255 5.848 5.848 0 01-1.998 1.496c-.774.352-1.65.528-2.63.528s-1.861-.176-2.643-.528a5.972 5.972 0 01-2.01-1.495 6.829 6.829 0 01-1.264-2.256 8.641 8.641 0 01-.438-2.797zm2.385-.297v.297c0 .696.081 1.353.245 1.972a5.2 5.2 0 00.734 1.624c.336.473.752.846 1.251 1.121.498.267 1.078.4 1.74.4.653 0 1.225-.133 1.714-.4a3.6 3.6 0 001.238-1.121 5.22 5.22 0 00.735-1.624 7.375 7.375 0 00.257-1.972v-.297c0-.687-.086-1.336-.257-1.946a5.032 5.032 0 00-.748-1.637 3.554 3.554 0 00-1.238-1.135c-.489-.275-1.065-.412-1.727-.412-.653 0-1.229.137-1.727.412-.49.275-.902.653-1.238 1.135a5.182 5.182 0 00-.734 1.637 7.47 7.47 0 00-.245 1.946zm-28.722 62.361h-5.014v-2.024h5.014c.971 0 1.758-.155 2.359-.464.602-.31 1.04-.74 1.315-1.29.283-.55.425-1.177.425-1.881a4.02 4.02 0 00-.425-1.818c-.275-.567-.713-1.022-1.315-1.366-.601-.352-1.388-.529-2.359-.529h-4.434v16.732h-2.488V90.115h6.922c1.418 0 2.617.245 3.597.735.979.49 1.723 1.168 2.23 2.036.507.86.76 1.844.76 2.952 0 1.203-.253 2.23-.76 3.08-.507.852-1.251 1.5-2.23 1.947-.98.439-2.179.658-3.597.658zm9.351.541v-.296c0-1.006.146-1.938.438-2.798a6.663 6.663 0 011.264-2.255 5.636 5.636 0 011.998-1.496c.782-.36 1.658-.541 2.629-.541.98 0 1.861.18 2.643.541.79.353 1.461.851 2.011 1.496a6.539 6.539 0 011.276 2.255c.292.86.438 1.792.438 2.798v.296a8.641 8.641 0 01-.438 2.797 6.699 6.699 0 01-1.276 2.256 5.846 5.846 0 01-1.998 1.495c-.774.353-1.65.529-2.63.529s-1.86-.176-2.642-.529a5.973 5.973 0 01-2.011-1.495 6.829 6.829 0 01-1.264-2.256 8.641 8.641 0 01-.438-2.797zm2.385-.296v.296c0 .696.082 1.354.245 1.972a5.17 5.17 0 00.735 1.624c.335.473.751.847 1.25 1.122.498.266 1.078.399 1.74.399.653 0 1.225-.133 1.714-.399a3.598 3.598 0 001.238-1.122 5.215 5.215 0 00.735-1.624 7.369 7.369 0 00.257-1.972v-.296a7.18 7.18 0 00-.257-1.947 5.03 5.03 0 00-.748-1.637 3.56 3.56 0 00-1.237-1.134c-.49-.275-1.066-.413-1.728-.413-.653 0-1.229.138-1.727.413-.49.275-.902.653-1.237 1.134a5.16 5.16 0 00-.735 1.637 7.512 7.512 0 00-.245 1.947zm19.934-6.832v1.83h-7.541v-1.83h7.541zm-4.989-3.39h2.385v13.882c0 .473.073.83.219 1.07.146.241.335.4.567.477.232.078.481.116.748.116.197 0 .404-.017.619-.051.223-.043.391-.078.502-.103l.013 1.946c-.189.06-.438.116-.747.168-.301.06-.666.09-1.096.09a3.713 3.713 0 01-1.611-.348c-.49-.232-.881-.619-1.173-1.16-.284-.55-.426-1.289-.426-2.218v-13.87zm7.688 10.518v-.296c0-1.006.147-1.938.439-2.798a6.644 6.644 0 011.263-2.255 5.636 5.636 0 011.998-1.496c.782-.36 1.658-.541 2.629-.541.98 0 1.861.18 2.643.541a5.609 5.609 0 012.011 1.496 6.539 6.539 0 011.276 2.255c.292.86.438 1.792.438 2.798v.296a8.641 8.641 0 01-.438 2.797 6.699 6.699 0 01-1.276 2.256 5.846 5.846 0 01-1.998 1.495c-.774.353-1.65.529-2.63.529-.979 0-1.86-.176-2.642-.529a5.973 5.973 0 01-2.011-1.495 6.809 6.809 0 01-1.263-2.256 8.641 8.641 0 01-.439-2.797zm2.385-.296v.296c0 .696.082 1.354.245 1.972a5.17 5.17 0 00.735 1.624c.335.473.752.847 1.25 1.122.499.266 1.079.399 1.74.399.653 0 1.225-.133 1.715-.399a3.595 3.595 0 001.237-1.122 5.17 5.17 0 00.735-1.624 7.329 7.329 0 00.258-1.972v-.296c0-.688-.086-1.337-.258-1.947a5.01 5.01 0 00-.748-1.637 3.55 3.55 0 00-1.237-1.134c-.49-.275-1.066-.413-1.728-.413-.653 0-1.228.138-1.727.413-.49.275-.902.653-1.237 1.134a5.16 5.16 0 00-.735 1.637 7.512 7.512 0 00-.245 1.947zm16.492-12.684v19.799h-2.397v-19.8h2.397zm8.521 5.852l-6.084 6.509-3.403 3.532-.194-2.539 2.436-2.913 4.331-4.59h2.914zm-2.179 13.947l-4.975-6.651 1.237-2.127 6.548 8.778h-2.81zm5.471-1.263c0-.404.125-.744.374-1.019.258-.283.627-.425 1.109-.425.481 0 .846.142 1.095.425.258.275.387.615.387 1.019 0 .395-.129.73-.387 1.005-.249.275-.614.413-1.095.413-.482 0-.851-.138-1.109-.413a1.444 1.444 0 01-.374-1.005zm15.938-1.122v-7.18c0-.55-.112-1.026-.335-1.43a2.191 2.191 0 00-.98-.954c-.438-.224-.979-.335-1.624-.335-.601 0-1.13.103-1.585.309-.447.206-.799.477-1.057.812a1.78 1.78 0 00-.374 1.083h-2.385c0-.499.129-.993.387-1.483.258-.49.627-.932 1.109-1.327a5.53 5.53 0 011.753-.954c.687-.24 1.452-.361 2.294-.361 1.014 0 1.908.172 2.681.516a4.022 4.022 0 011.831 1.56c.446.687.67 1.55.67 2.59v6.497c0 .464.039.958.116 1.482.086.524.21.976.374 1.354v.206h-2.488c-.12-.275-.215-.64-.284-1.096a8.933 8.933 0 01-.103-1.289zm.413-6.071l.025 1.676h-2.41c-.679 0-1.285.056-1.817.167-.533.103-.98.262-1.341.477a2.272 2.272 0 00-.825.812c-.189.318-.284.692-.284 1.122 0 .438.099.838.297 1.199.197.36.494.648.889.863.404.206.898.31 1.483.31.73 0 1.375-.155 1.933-.465.559-.309 1.001-.687 1.328-1.134.335-.447.515-.881.541-1.302l1.019 1.147c-.061.361-.224.761-.49 1.199-.267.439-.623.86-1.07 1.263a5.75 5.75 0 01-1.573.993c-.601.258-1.28.387-2.036.387-.946 0-1.775-.185-2.488-.555-.705-.369-1.255-.863-1.65-1.482a3.921 3.921 0 01-.58-2.101c0-.748.146-1.405.438-1.972a3.803 3.803 0 011.263-1.431c.55-.387 1.212-.679 1.985-.877.774-.197 1.637-.296 2.591-.296h2.772zm8.9-2.81v16.628h-2.398v-19.31h2.191l.207 2.682zm9.396 4.176v.271c0 1.014-.12 1.955-.36 2.823-.241.859-.593 1.607-1.057 2.243a4.812 4.812 0 01-1.689 1.482c-.67.353-1.439.529-2.307.529-.886 0-1.668-.146-2.346-.439a4.625 4.625 0 01-1.728-1.276c-.472-.558-.85-1.229-1.134-2.011-.275-.782-.464-1.662-.567-2.642v-1.444c.103-1.031.296-1.955.58-2.771.283-.816.657-1.513 1.121-2.088a4.605 4.605 0 011.715-1.328c.67-.31 1.443-.464 2.32-.464.876 0 1.654.172 2.333.516.679.335 1.25.816 1.714 1.443.464.628.813 1.38 1.045 2.256.24.868.36 1.835.36 2.9zm-2.397.271v-.271c0-.696-.073-1.349-.219-1.959a4.956 4.956 0 00-.683-1.624 3.256 3.256 0 00-1.161-1.109c-.472-.275-1.035-.412-1.688-.412-.602 0-1.126.103-1.573.31a3.397 3.397 0 00-1.121.837 4.44 4.44 0 00-.761 1.186 6.784 6.784 0 00-.425 1.366v3.339a7.42 7.42 0 00.722 1.701c.309.525.722.95 1.237 1.277.516.317 1.165.476 1.947.476.644 0 1.198-.133 1.662-.399.473-.275.86-.649 1.161-1.122a5.112 5.112 0 00.683-1.624 8.561 8.561 0 00.219-1.972zm8.629-12.98v19.799h-2.397v-19.8h2.397zm8.52 5.852l-6.084 6.509-3.403 3.532-.193-2.539 2.436-2.913 4.331-4.59h2.913zm-2.178 13.947l-4.976-6.651 1.238-2.127 6.548 8.778h-2.81zm-117.425 25.113v15.65h-2.257v-18.173h2.063l.194 2.523zm8.844 3.931v.255c0 .954-.113 1.84-.34 2.656-.226.809-.558 1.513-.995 2.111a4.52 4.52 0 01-1.589 1.396c-.631.331-1.355.497-2.172.497-.833 0-1.569-.137-2.208-.412a4.361 4.361 0 01-1.625-1.202c-.445-.525-.801-1.156-1.068-1.892a10.94 10.94 0 01-.534-2.487v-1.359c.097-.97.279-1.84.546-2.608.267-.769.619-1.424 1.056-1.966a4.33 4.33 0 011.613-1.249c.631-.291 1.359-.437 2.184-.437.825 0 1.557.162 2.196.485a4.432 4.432 0 011.614 1.359c.436.59.764 1.298.982 2.123.227.817.34 1.727.34 2.73zm-2.257.255v-.255c0-.655-.068-1.27-.206-1.844a4.65 4.65 0 00-.643-1.529 3.061 3.061 0 00-1.092-1.043c-.445-.259-.974-.388-1.589-.388-.566 0-1.06.097-1.48.291a3.21 3.21 0 00-1.056.788 4.202 4.202 0 00-.715 1.116 6.44 6.44 0 00-.401 1.286v3.143c.162.566.388 1.1.68 1.601a3.52 3.52 0 001.164 1.201c.486.299 1.096.449 1.832.449.607 0 1.129-.125 1.565-.376a3.169 3.169 0 001.092-1.056c.291-.444.506-.954.643-1.528a8.034 8.034 0 00.206-1.856zm4.526 0v-.279c0-.947.137-1.824.412-2.633a6.243 6.243 0 011.189-2.123 5.294 5.294 0 011.88-1.407c.736-.34 1.561-.51 2.475-.51.922 0 1.751.17 2.487.51a5.27 5.27 0 011.893 1.407 6.136 6.136 0 011.201 2.123c.275.809.412 1.686.412 2.633v.279c0 .946-.137 1.823-.412 2.632a6.286 6.286 0 01-1.201 2.123 5.508 5.508 0 01-1.881 1.408c-.727.331-1.552.497-2.474.497-.922 0-1.751-.166-2.487-.497a5.631 5.631 0 01-1.893-1.408 6.398 6.398 0 01-1.189-2.123 8.127 8.127 0 01-.412-2.632zm2.244-.279v.279c0 .655.077 1.273.23 1.856.154.574.385 1.084.692 1.528a3.5 3.5 0 001.177 1.056c.469.251 1.015.376 1.638.376.614 0 1.152-.125 1.613-.376a3.397 3.397 0 001.165-1.056c.307-.444.538-.954.691-1.528a6.9 6.9 0 00.243-1.856v-.279c0-.647-.081-1.258-.243-1.832a4.708 4.708 0 00-.703-1.541 3.354 3.354 0 00-1.165-1.068c-.461-.259-1.003-.388-1.626-.388-.614 0-1.156.129-1.625.388a3.49 3.49 0 00-1.165 1.068 4.883 4.883 0 00-.692 1.541 7.09 7.09 0 00-.23 1.832zm18.016-6.43v1.722h-7.097v-1.722h7.097zm-4.695-3.191h2.244v13.066c0 .445.069.781.206 1.007a.993.993 0 00.534.449c.219.073.453.109.704.109.186 0 .38-.016.582-.048.21-.041.368-.073.473-.098l.012 1.832c-.177.057-.412.11-.703.158a5.32 5.32 0 01-1.031.085 3.49 3.49 0 01-1.517-.328c-.461-.218-.829-.582-1.104-1.091-.267-.518-.4-1.214-.4-2.087v-13.054zm6.49 9.9v-.279c0-.947.138-1.824.413-2.633a6.243 6.243 0 011.189-2.123 5.285 5.285 0 011.88-1.407c.736-.34 1.561-.51 2.475-.51.922 0 1.751.17 2.487.51a5.27 5.27 0 011.893 1.407 6.153 6.153 0 011.201 2.123c.275.809.412 1.686.412 2.633v.279c0 .946-.137 1.823-.412 2.632a6.303 6.303 0 01-1.201 2.123 5.508 5.508 0 01-1.881 1.408c-.728.331-1.553.497-2.475.497-.922 0-1.751-.166-2.487-.497a5.618 5.618 0 01-1.892-1.408 6.398 6.398 0 01-1.189-2.123 8.127 8.127 0 01-.413-2.632zm2.245-.279v.279c0 .655.077 1.273.23 1.856a4.87 4.87 0 00.692 1.528 3.49 3.49 0 001.177 1.056c.469.251 1.015.376 1.637.376.615 0 1.153-.125 1.614-.376a3.397 3.397 0 001.165-1.056c.307-.444.537-.954.691-1.528a6.9 6.9 0 00.243-1.856v-.279c0-.647-.081-1.258-.243-1.832a4.71 4.71 0 00-.704-1.541 3.342 3.342 0 00-1.164-1.068c-.461-.259-1.003-.388-1.626-.388-.615 0-1.156.129-1.626.388a3.487 3.487 0 00-1.164 1.068 4.861 4.861 0 00-.692 1.541 7.09 7.09 0 00-.23 1.832zm14.776-11.938v18.634h-2.256v-18.634h2.256zm8.02 5.508l-5.727 6.126-3.202 3.324-.182-2.39 2.292-2.741 4.077-4.319h2.742zm-2.051 13.126l-4.683-6.26 1.165-2.001 6.163 8.261h-2.645zm12.63-13.126h2.038v12.847c0 1.157-.235 2.144-.704 2.961a4.59 4.59 0 01-1.965 1.856c-.833.428-1.796.643-2.888.643-.453 0-.986-.073-1.601-.219a6.467 6.467 0 01-1.796-.715 4.503 4.503 0 01-1.468-1.347l1.177-1.335c.55.664 1.124 1.125 1.723 1.383a4.55 4.55 0 001.796.389c.711 0 1.326-.134 1.844-.401a2.796 2.796 0 001.201-1.189c.291-.517.436-1.156.436-1.916v-10.07l.207-2.887zm-9.039 6.709v-.255c0-1.003.118-1.913.352-2.73.243-.825.587-1.533 1.031-2.123a4.642 4.642 0 011.638-1.359c.639-.323 1.359-.485 2.16-.485.825 0 1.544.146 2.159.437a4.145 4.145 0 011.577 1.249c.437.542.781 1.197 1.032 1.966.25.768.424 1.638.521 2.608v1.116c-.089.963-.263 1.828-.521 2.596-.251.769-.595 1.424-1.032 1.966a4.304 4.304 0 01-1.577 1.249c-.623.283-1.351.425-2.184.425-.784 0-1.496-.166-2.135-.497a4.852 4.852 0 01-1.625-1.396c-.453-.598-.801-1.302-1.044-2.111a9.606 9.606 0 01-.352-2.656zm2.245-.255v.255c0 .655.064 1.269.194 1.844.137.574.344 1.079.619 1.516.283.437.643.781 1.079 1.031.437.243.959.364 1.565.364.744 0 1.359-.157 1.844-.473a3.42 3.42 0 001.153-1.249c.291-.518.518-1.08.679-1.687v-2.924a5.988 5.988 0 00-.412-1.286 3.98 3.98 0 00-.704-1.116 3.05 3.05 0 00-1.055-.788c-.421-.194-.914-.291-1.48-.291-.615 0-1.145.129-1.59.388a3.1 3.1 0 00-1.079 1.043 4.992 4.992 0 00-.619 1.529 8.338 8.338 0 00-.194 1.844zm11.646.255v-.279c0-.947.138-1.824.413-2.633a6.243 6.243 0 011.189-2.123 5.285 5.285 0 011.88-1.407c.736-.34 1.561-.51 2.475-.51.922 0 1.751.17 2.487.51a5.27 5.27 0 011.893 1.407 6.153 6.153 0 011.201 2.123c.275.809.412 1.686.412 2.633v.279c0 .946-.137 1.823-.412 2.632a6.303 6.303 0 01-1.201 2.123 5.508 5.508 0 01-1.881 1.408c-.728.331-1.553.497-2.475.497-.922 0-1.751-.166-2.487-.497a5.628 5.628 0 01-1.892-1.408 6.398 6.398 0 01-1.189-2.123 8.127 8.127 0 01-.413-2.632zm2.245-.279v.279c0 .655.077 1.273.23 1.856a4.87 4.87 0 00.692 1.528 3.49 3.49 0 001.177 1.056c.469.251 1.015.376 1.637.376.615 0 1.153-.125 1.614-.376a3.397 3.397 0 001.165-1.056c.307-.444.537-.954.691-1.528a6.9 6.9 0 00.243-1.856v-.279c0-.647-.081-1.258-.243-1.832a4.71 4.71 0 00-.704-1.541 3.342 3.342 0 00-1.164-1.068c-.461-.259-1.003-.388-1.626-.388-.615 0-1.156.129-1.626.388a3.487 3.487 0 00-1.164 1.068 4.861 4.861 0 00-.692 1.541 7.09 7.09 0 00-.23 1.832zm12.556 5.507c0-.38.118-.699.352-.958.243-.267.591-.4 1.043-.4.453 0 .797.133 1.032.4.242.259.364.578.364.958 0 .372-.122.688-.364.947-.235.259-.579.388-1.032.388-.452 0-.8-.129-1.043-.388a1.363 1.363 0 01-.352-.947zm8.76-9.875v11.064h-2.245v-13.126h2.184l.061 2.062zm4.1-2.135l-.012 2.087a3.175 3.175 0 00-.534-.073 5.716 5.716 0 00-.558-.025c-.518 0-.974.081-1.371.243a2.837 2.837 0 00-1.007.68 3.262 3.262 0 00-.655 1.043 4.977 4.977 0 00-.303 1.31l-.631.364c0-.793.077-1.537.23-2.232a6.07 6.07 0 01.741-1.844 3.619 3.619 0 011.261-1.262c.518-.307 1.133-.461 1.844-.461.162 0 .348.02.558.061.211.032.356.068.437.109zm10.106 10.166v-10.093h2.257v13.126h-2.148l-.109-3.033zm.425-2.766l.934-.024c0 .874-.093 1.682-.279 2.426-.178.736-.469 1.375-.874 1.917a4.125 4.125 0 01-1.589 1.274c-.655.299-1.452.449-2.39.449a5.315 5.315 0 01-1.759-.279 3.514 3.514 0 01-1.359-.861c-.38-.389-.675-.894-.886-1.517-.202-.623-.303-1.371-.303-2.244v-8.468h2.245v8.492c0 .59.064 1.08.194 1.468.137.38.319.683.546.91.234.218.493.372.776.461.291.089.59.133.898.133.954 0 1.71-.182 2.268-.546a3.108 3.108 0 001.202-1.492c.25-.631.376-1.33.376-2.099zm18.549-11.962v17.761h-2.244v-14.958l-4.525 1.65v-2.026l6.417-2.427h.352zm17.689 7.522v2.693c0 1.448-.13 2.669-.389 3.664-.258.995-.63 1.796-1.116 2.402a4.24 4.24 0 01-1.759 1.323c-.679.267-1.448.4-2.305.4a6.6 6.6 0 01-1.88-.255 4.462 4.462 0 01-1.553-.813c-.453-.38-.841-.873-1.165-1.48-.323-.606-.57-1.342-.74-2.208-.17-.865-.255-1.876-.255-3.033v-2.693c0-1.448.13-2.661.388-3.64.267-.978.643-1.763 1.129-2.353a4.1 4.1 0 011.747-1.286c.687-.259 1.456-.388 2.305-.388a6.68 6.68 0 011.892.254c.583.162 1.1.425 1.553.789.453.356.837.833 1.153 1.432.323.59.57 1.314.74 2.171.17.858.255 1.864.255 3.021zm-2.257 3.057v-3.433c0-.793-.048-1.488-.146-2.087-.088-.606-.222-1.124-.4-1.553-.178-.428-.404-.776-.679-1.043a2.4 2.4 0 00-.934-.582 3.344 3.344 0 00-1.177-.194c-.534 0-1.007.101-1.42.303-.412.194-.76.505-1.043.934-.275.429-.485.991-.631 1.686-.145.696-.218 1.541-.218 2.536v3.433c0 .793.044 1.493.133 2.099a6.94 6.94 0 00.425 1.577c.186.437.412.797.679 1.08.267.283.574.493.922.631.356.129.748.194 1.177.194.55 0 1.031-.105 1.444-.315.412-.211.756-.538 1.031-.983.283-.453.493-1.031.631-1.735.137-.712.206-1.561.206-2.548zm16.56-10.482v1.262l-7.315 16.402h-2.366l7.303-15.82h-9.56v-1.844h11.938zm10.045 0h2.269l5.787 14.401 5.775-14.401h2.28l-7.182 17.664h-1.771l-7.158-17.664zm-.74 0h2.002l.328 10.773v6.891h-2.33v-17.664zm15.578 0h2.001v17.664h-2.329v-6.891l.328-10.773zm16.887 0v1.917h-8.516v15.747h-2.33v-17.664h10.846zm-9.062 7.195h4.816c1.294 0 2.386.218 3.276.655.889.428 1.565 1.031 2.026 1.807.461.777.691 1.687.691 2.73 0 .776-.129 1.488-.388 2.135a4.668 4.668 0 01-1.153 1.674c-.509.47-1.136.833-1.88 1.092-.744.251-1.601.376-2.572.376h-6.6v-17.664h2.342v15.76h4.258c.865 0 1.565-.158 2.099-.473.542-.324.938-.745 1.189-1.262a3.761 3.761 0 00.376-1.662c0-.591-.125-1.133-.376-1.626-.251-.493-.647-.886-1.189-1.177-.534-.299-1.234-.449-2.099-.449h-4.816v-1.916zm19.811 1.989c0-.517.178-.95.534-1.298.364-.356.849-.534 1.456-.534.598 0 1.075.178 1.431.534.364.348.546.781.546 1.298 0 .51-.182.938-.546 1.286-.356.348-.833.522-1.431.522-.607 0-1.092-.174-1.456-.522a1.727 1.727 0 01-.534-1.286z" fill="#1F1F1F"/><path d="M591.149 109.623a3.392 3.392 0 003.382-3.382 3.392 3.392 0 00-3.382-3.382 3.391 3.391 0 00-3.381 3.382 3.391 3.391 0 003.381 3.382zm0 3.382a3.39 3.39 0 00-3.381 3.381 3.391 3.391 0 003.381 3.382 3.392 3.392 0 003.382-3.382 3.391 3.391 0 00-3.382-3.381zm0 10.145a3.391 3.391 0 00-3.381 3.382 3.391 3.391 0 003.381 3.382 3.392 3.392 0 003.382-3.382 3.392 3.392 0 00-3.382-3.382z" fill="#000"/><circle cx="59.787" cy="116.835" r="31.058" fill="#F3F4F6"/><path d="M50.664 99.753c-1.815 0-3.283 1.468-3.283 3.261l-.017 26.089c0 1.793 1.469 3.261 3.284 3.261h19.815c1.815 0 3.3-1.468 3.3-3.261V110.89c0-.865-.346-1.696-.973-2.299l-7.97-7.876a3.266 3.266 0 00-2.326-.962h-11.83zm11.55 9.783v-7.337l9.074 8.968h-7.424c-.908 0-1.65-.734-1.65-1.631z" fill="#1F1F1F"/></svg>