<svg width="521" height="246" fill="none" xmlns="http://www.w3.org/2000/svg"><rect width="520.802" height="245.25" rx="37.877" fill="#fff"/><path d="M96.13 40.139h3.899c1.359 0 2.616.232 3.771.696a8.955 8.955 0 013.042 1.942 8.856 8.856 0 012.039 3.01c.485 1.154.728 2.432.728 3.835 0 1.402-.243 2.686-.728 3.851a9.03 9.03 0 01-2.039 3.026 9.16 9.16 0 01-3.042 1.959c-1.155.453-2.412.68-3.771.68h-3.9c-1.36 0-2.616-.227-3.77-.68a9.385 9.385 0 01-3.043-1.959 9.008 9.008 0 01-2.023-2.993c-.474-1.165-.712-2.45-.712-3.852 0-1.402.238-2.68.712-3.835a8.968 8.968 0 012.023-3.01 9.253 9.253 0 013.043-1.974c1.154-.464 2.41-.696 3.77-.696zm0 2.46c-1.414 0-2.612.296-3.593.89a5.612 5.612 0 00-2.234 2.46c-.507 1.057-.76 2.292-.76 3.705 0 1.068.14 2.034.42 2.897.292.863.718 1.602 1.279 2.217a5.643 5.643 0 002.071 1.424c.82.334 1.759.502 2.816.502h3.932c1.403 0 2.59-.292 3.561-.874a5.716 5.716 0 002.233-2.476c.518-1.068.777-2.309.777-3.722 0-1.057-.146-2.017-.437-2.88-.292-.864-.718-1.603-1.279-2.218a5.49 5.49 0 00-2.055-1.424c-.809-.334-1.742-.501-2.8-.501h-3.932zm3.462-5.777v25.503h-2.994V36.821h2.994zm24.169 21.538v-9.013c0-.69-.141-1.29-.421-1.797a2.757 2.757 0 00-1.23-1.197c-.55-.28-1.23-.42-2.039-.42-.755 0-1.419.129-1.991.388-.561.259-1.003.598-1.327 1.02-.312.42-.469.873-.469 1.358h-2.994c0-.625.162-1.246.486-1.86.324-.615.787-1.171 1.392-1.667.615-.507 1.348-.907 2.2-1.198.863-.302 1.824-.453 2.881-.453 1.273 0 2.395.216 3.366.647.982.432 1.748 1.085 2.298 1.958.561.864.841 1.948.841 3.253v8.156c0 .583.049 1.203.146 1.861.108.658.264 1.225.469 1.7v.258h-3.123c-.151-.345-.27-.803-.356-1.375a11.132 11.132 0 01-.129-1.618zm.517-7.621l.033 2.103h-3.026c-.853 0-1.613.07-2.282.21-.669.13-1.23.33-1.683.6-.453.27-.798.609-1.036 1.019-.237.399-.356.868-.356 1.408 0 .55.124 1.052.372 1.505.248.453.621.814 1.117 1.084.507.259 1.127.388 1.861.388.917 0 1.726-.194 2.427-.582.702-.389 1.257-.863 1.667-1.424.421-.561.647-1.106.68-1.635l1.278 1.44c-.075.454-.28.955-.615 1.506a7.185 7.185 0 01-1.343 1.585 7.245 7.245 0 01-1.974 1.246c-.755.324-1.608.486-2.557.486-1.187 0-2.228-.232-3.123-.696-.885-.464-1.575-1.084-2.072-1.86-.485-.788-.728-1.668-.728-2.639 0-.938.184-1.764.55-2.476a4.786 4.786 0 011.586-1.796c.691-.485 1.521-.852 2.492-1.1.971-.248 2.056-.372 3.253-.372h3.479zm10.753 5.874l8.075-12.768h3.01v17.51h-3.01v-12.77l-8.075 12.768h-2.977v-17.51h2.977v12.769zm6.441-19.112h2.427c0 .842-.194 1.591-.582 2.25-.389.647-.944 1.154-1.667 1.52-.723.367-1.58.55-2.573.55-1.5 0-2.686-.398-3.56-1.197-.863-.809-1.295-1.85-1.295-3.123h2.428c0 .637.183 1.198.55 1.683.367.486.992.728 1.877.728.863 0 1.478-.242 1.845-.728.367-.485.55-1.046.55-1.683zm21.482 6.344v2.476h-8.463v-2.476h8.463zm2.638 0v17.51h-2.994v-17.51h2.994zm-11.83 0h3.01l-.453 8.447a31.08 31.08 0 01-.372 3.463c-.162.993-.388 1.845-.68 2.557-.28.712-.636 1.294-1.068 1.748-.42.442-.927.771-1.521.987-.593.205-1.278.307-2.055.307h-.939v-2.637l.648-.05c.464-.031.857-.14 1.181-.323a2.31 2.31 0 00.841-.809c.227-.367.41-.836.551-1.408a12.96 12.96 0 00.34-2.039c.086-.787.151-1.704.194-2.75l.323-7.493zm35.601 13.528l5.956-13.528h2.88l-7.8 17.51h-2.071l-7.768-17.51h2.881l5.922 13.528zm-6.796-13.528v17.51h-2.994v-17.51h2.994zm13.496 17.51v-17.51h3.01v17.51h-3.01zm7.371-8.561v-.372c0-1.263.183-2.433.55-3.512.367-1.09.895-2.034 1.586-2.832a7.068 7.068 0 012.508-1.877c.982-.453 2.082-.68 3.301-.68 1.23 0 2.336.227 3.318.68a7.039 7.039 0 012.524 1.877c.702.798 1.236 1.742 1.602 2.832.367 1.079.551 2.25.551 3.512v.372c0 1.262-.184 2.432-.551 3.511a8.376 8.376 0 01-1.602 2.832 7.331 7.331 0 01-2.508 1.877c-.971.443-2.071.664-3.301.664s-2.336-.221-3.318-.664a7.509 7.509 0 01-2.524-1.877 8.548 8.548 0 01-1.586-2.832c-.367-1.079-.55-2.25-.55-3.511zm2.994-.372v.372c0 .873.102 1.699.307 2.476a6.54 6.54 0 00.922 2.039 4.669 4.669 0 001.57 1.408c.626.334 1.354.501 2.185.501.82 0 1.537-.167 2.152-.502a4.517 4.517 0 001.554-1.407c.41-.594.717-1.273.922-2.04a9.204 9.204 0 00.324-2.475v-.372c0-.864-.108-1.678-.324-2.444a6.288 6.288 0 00-.939-2.055 4.458 4.458 0 00-1.553-1.424c-.615-.346-1.338-.518-2.169-.518-.819 0-1.542.172-2.168.518a4.661 4.661 0 00-1.554 1.424 6.52 6.52 0 00-.922 2.055 9.418 9.418 0 00-.307 2.444zm21.983 1.31l-6.635-9.887h3.609l4.531 7.25h3.496l-.437 2.637h-4.564zm1.635-.307l-5.082 7.93h-3.786l6.974-10.099 1.894 2.169zm4.903-9.58v17.51h-2.994v-17.51h2.994zm10.211 0l-6.635 9.887h-4.563l-.469-2.638h3.511l4.531-7.25h3.625zm-3.204 17.51l-5.097-7.93 1.925-2.169 6.959 10.098h-3.787zm13.828.323c-1.219 0-2.325-.205-3.318-.615a7.527 7.527 0 01-2.54-1.764 7.843 7.843 0 01-1.619-2.686c-.377-1.036-.566-2.169-.566-3.399v-.68c0-1.423.21-2.691.631-3.802.421-1.122.993-2.072 1.716-2.848a7.337 7.337 0 012.459-1.764 7.067 7.067 0 012.848-.599c1.252 0 2.331.216 3.237.647a5.894 5.894 0 012.249 1.813c.583.766 1.014 1.672 1.295 2.718.28 1.036.421 2.169.421 3.399v1.343h-13.076v-2.444h10.082v-.226a7.448 7.448 0 00-.486-2.266 4.07 4.07 0 00-1.294-1.812c-.594-.475-1.403-.712-2.428-.712-.679 0-1.305.145-1.877.437a3.994 3.994 0 00-1.472 1.262c-.41.561-.729 1.246-.955 2.055-.227.81-.34 1.742-.34 2.8v.68c0 .83.113 1.612.34 2.346.237.723.577 1.36 1.019 1.91.453.55.998.981 1.635 1.294.647.313 1.381.47 2.201.47 1.057 0 1.952-.216 2.686-.648a6.658 6.658 0 001.926-1.732l1.812 1.44a8.376 8.376 0 01-1.44 1.635c-.583.518-1.3.939-2.152 1.262-.842.324-1.84.486-2.994.486zm17.582-17.833v17.51h-3.01v-17.51h3.01zm5.874 0v2.427h-14.645v-2.427h14.645zm23.06-7.622h2.459c0 1.057-.161 1.898-.485 2.524a3.532 3.532 0 01-1.327 1.424 6.649 6.649 0 01-1.877.76 70.84 70.84 0 01-2.153.503 9.87 9.87 0 00-2.589.922 6.054 6.054 0 00-2.039 1.748c-.561.755-.976 1.737-1.246 2.945-.259 1.208-.329 2.702-.21 4.482v1.49h-2.46v-1.49c0-1.995.189-3.738.566-5.227.389-1.488.934-2.745 1.635-3.77s1.532-1.84 2.492-2.444a9.408 9.408 0 013.204-1.246 21.618 21.618 0 002.169-.518c.604-.194 1.062-.453 1.375-.776.324-.324.486-.766.486-1.327zm-3.544 8.625c1.143 0 2.163.2 3.058.599a6.526 6.526 0 012.282 1.667c.626.712 1.1 1.553 1.424 2.524.334.96.502 2.007.502 3.14v.355c0 1.22-.178 2.352-.534 3.399a7.854 7.854 0 01-1.538 2.719 6.99 6.99 0 01-2.459 1.796c-.961.431-2.056.647-3.286.647-1.229 0-2.33-.216-3.301-.647a7.188 7.188 0 01-2.46-1.796 8.067 8.067 0 01-1.553-2.72c-.345-1.046-.518-2.178-.518-3.398v-.355c0-.27.049-.535.146-.794.097-.258.216-.523.356-.792a6.87 6.87 0 00.404-.858 10.38 10.38 0 011.635-2.703 8.239 8.239 0 012.508-2.006c.982-.518 2.093-.777 3.334-.777zm-.583 2.444c-1.1 0-2.007.253-2.719.76a4.58 4.58 0 00-1.569 2.023 6.958 6.958 0 00-.518 2.703v.355c0 .82.097 1.597.291 2.33a6.35 6.35 0 00.874 1.959 4.338 4.338 0 001.505 1.327c.615.323 1.338.485 2.168.485.831 0 1.549-.162 2.153-.485a4.201 4.201 0 001.489-1.327 6.345 6.345 0 00.873-1.958c.195-.734.292-1.51.292-2.33v-.356c0-.734-.097-1.43-.292-2.088a5.132 5.132 0 00-.89-1.748 4.033 4.033 0 00-1.505-1.197c-.604-.302-1.321-.453-2.152-.453zm14.038 2.573h5.259c1.414 0 2.606.248 3.577.744.971.485 1.704 1.16 2.201 2.023.507.852.76 1.823.76 2.913 0 .809-.14 1.57-.421 2.281a5.118 5.118 0 01-1.262 1.845c-.55.529-1.235.944-2.055 1.246-.809.292-1.742.437-2.8.437h-7.444v-17.51h2.994v15.05h4.45c.864 0 1.554-.156 2.072-.469.518-.313.89-.717 1.116-1.213.227-.497.34-1.015.34-1.554 0-.529-.113-1.047-.34-1.553-.226-.508-.598-.928-1.116-1.263-.518-.345-1.208-.518-2.072-.518h-5.259v-2.46zm18.028-6.02v17.51h-2.994v-17.51h2.994zm12.711 0v17.51h-3.01v-17.51h3.01zm5.874 0v2.427h-14.645v-2.427h14.645zm5.736 6.02h5.26c1.413 0 2.605.248 3.576.744.971.485 1.705 1.16 2.201 2.023.507.852.76 1.823.76 2.913 0 .809-.14 1.57-.42 2.281a5.133 5.133 0 01-1.263 1.845c-.55.529-1.235.944-2.055 1.246-.809.292-1.742.437-2.799.437h-7.444v-17.51h2.993v15.05h4.451c.863 0 1.553-.156 2.071-.469.518-.313.89-.717 1.117-1.213a3.707 3.707 0 00.339-1.554 3.78 3.78 0 00-.339-1.553c-.227-.508-.599-.928-1.117-1.263-.518-.345-1.208-.518-2.071-.518h-5.26v-2.46zM86.71 92.794v-.373c0-1.262.184-2.432.551-3.511.367-1.09.895-2.034 1.586-2.832a7.077 7.077 0 012.508-1.877c.982-.453 2.082-.68 3.301-.68 1.23 0 2.336.227 3.318.68a7.036 7.036 0 012.524 1.877c.702.798 1.236 1.742 1.602 2.832.367 1.079.551 2.25.551 3.511v.373c0 1.262-.184 2.432-.551 3.511a8.376 8.376 0 01-1.602 2.832 7.332 7.332 0 01-2.508 1.877c-.97.443-2.071.664-3.301.664s-2.336-.221-3.318-.664a7.504 7.504 0 01-2.524-1.877 8.554 8.554 0 01-1.586-2.832c-.367-1.079-.55-2.25-.55-3.511zm2.995-.373v.373c0 .874.102 1.699.307 2.476.205.766.513 1.445.922 2.039a4.678 4.678 0 001.57 1.407c.626.335 1.354.502 2.185.502.82 0 1.537-.167 2.152-.502a4.518 4.518 0 001.554-1.407 6.52 6.52 0 00.922-2.04 9.216 9.216 0 00.324-2.475v-.373c0-.863-.108-1.677-.324-2.443a6.294 6.294 0 00-.938-2.055 4.462 4.462 0 00-1.554-1.424c-.615-.346-1.338-.518-2.169-.518-.82 0-1.542.172-2.168.518a4.658 4.658 0 00-1.553 1.424 6.498 6.498 0 00-.923 2.055 9.418 9.418 0 00-.307 2.444zm28.699-8.576v2.476h-8.852v-2.476h8.852zm-8.415 0v17.509h-2.994v-17.51h2.994zm11.069 0v17.509h-3.01v-17.51h3.01zM136.52 98.36v-9.014c0-.69-.14-1.29-.421-1.796a2.75 2.75 0 00-1.229-1.198c-.551-.28-1.23-.42-2.039-.42-.756 0-1.419.129-1.991.388-.561.259-1.003.598-1.327 1.02a2.23 2.23 0 00-.469 1.359h-2.994c0-.626.162-1.247.486-1.862.323-.614.787-1.17 1.391-1.666.615-.507 1.349-.907 2.201-1.198.863-.302 1.823-.453 2.881-.453 1.273 0 2.395.216 3.366.647.981.432 1.747 1.085 2.297 1.958.561.864.842 1.948.842 3.253v8.156c0 .583.048 1.203.146 1.861.107.658.264 1.225.469 1.699v.259h-3.123c-.151-.345-.27-.803-.356-1.375a11.002 11.002 0 01-.13-1.618zm.518-7.623l.032 2.104h-3.026c-.852 0-1.613.07-2.282.21-.668.13-1.229.33-1.683.6-.453.27-.798.609-1.035 1.019-.238.399-.356.868-.356 1.408 0 .55.124 1.052.372 1.505.248.453.62.814 1.117 1.084.507.259 1.127.388 1.861.388.917 0 1.726-.194 2.427-.582.701-.389 1.257-.863 1.667-1.424.421-.561.647-1.106.679-1.635l1.279 1.44c-.076.454-.281.955-.615 1.505a7.212 7.212 0 01-1.343 1.586 7.24 7.24 0 01-1.974 1.246c-.756.324-1.608.486-2.557.486-1.187 0-2.228-.232-3.124-.696-.884-.464-1.575-1.084-2.071-1.86-.485-.788-.728-1.668-.728-2.639 0-.938.183-1.764.55-2.476a4.777 4.777 0 011.586-1.796c.69-.485 1.521-.852 2.492-1.1.971-.249 2.055-.373 3.253-.373h3.479zm14.524 8.48c.712 0 1.37-.145 1.974-.437a4.07 4.07 0 001.489-1.197 3.337 3.337 0 00.663-1.764h2.848c-.054 1.036-.404 2.001-1.052 2.897-.636.884-1.472 1.602-2.508 2.152-1.036.539-2.174.809-3.414.809-1.317 0-2.466-.232-3.447-.696a6.841 6.841 0 01-2.428-1.91 8.547 8.547 0 01-1.44-2.783 11.741 11.741 0 01-.469-3.35v-.68c0-1.175.156-2.287.469-3.333a8.523 8.523 0 011.44-2.8 6.84 6.84 0 012.428-1.91c.981-.463 2.13-.695 3.447-.695 1.37 0 2.567.28 3.592.841a6.172 6.172 0 012.411 2.266c.594.95.917 2.028.971 3.237h-2.848a4.314 4.314 0 00-.615-1.959 3.834 3.834 0 00-1.424-1.391c-.593-.356-1.289-.534-2.087-.534-.917 0-1.689.183-2.315.55a4.054 4.054 0 00-1.472 1.456 6.806 6.806 0 00-.777 2.023 11.128 11.128 0 00-.226 2.25v.68c0 .765.075 1.52.226 2.265a6.5 6.5 0 00.761 2.023c.366.604.857 1.09 1.472 1.456.626.356 1.403.534 2.331.534zm22.55-7.784v2.428h-9.257v-2.428h9.257zm-8.626-7.59v17.51h-2.993v-17.51h2.993zm11.053 0v17.51h-3.01v-17.51h3.01zm7.614 6.02h5.259c1.413 0 2.605.249 3.576.745.971.486 1.705 1.16 2.201 2.023.507.852.761 1.823.761 2.913 0 .809-.141 1.57-.421 2.281a5.13 5.13 0 01-1.262 1.845c-.55.529-1.236.944-2.055 1.246-.81.292-1.743.437-2.8.437h-7.444v-17.51h2.994v15.05h4.45c.863 0 1.553-.156 2.071-.469.518-.313.89-.717 1.117-1.213a3.708 3.708 0 000-3.108c-.227-.507-.599-.927-1.117-1.262-.518-.345-1.208-.518-2.071-.518h-5.259v-2.46zm18.027-6.02v17.51h-2.994v-17.51h2.994zm15.64 13.53l5.955-13.53h2.881l-7.8 17.51h-2.072l-7.767-17.51h2.88l5.923 13.53zm-6.797-13.53v17.51h-2.993v-17.51h2.993zm13.497 17.51v-17.51h3.01v17.51h-3.01z" fill="#000"/><path d="M45.822 152.641h-3.754l-.02-1.577h3.407c.563 0 1.055-.095 1.475-.285.42-.19.746-.461.977-.814.237-.359.356-.786.356-1.281 0-.543-.105-.984-.315-1.323-.204-.345-.52-.596-.946-.752-.42-.163-.957-.244-1.608-.244h-2.888v13.203h-1.964v-14.811h4.852c.76 0 1.438.078 2.035.234.596.15 1.102.387 1.515.712.42.319.74.726.957 1.221.217.495.325 1.088.325 1.78 0 .61-.156 1.163-.468 1.658a3.598 3.598 0 01-1.302 1.2c-.55.312-1.193.512-1.933.601l-.701.478zm-.092 6.927h-4.435l1.109-1.597h3.326c.624 0 1.153-.109 1.587-.326.44-.217.776-.522 1.007-.915.23-.4.346-.872.346-1.414 0-.549-.099-1.024-.295-1.424a2.04 2.04 0 00-.926-.926c-.42-.217-.963-.325-1.627-.325h-2.798l.02-1.577h3.825l.417.57c.712.061 1.316.264 1.811.61.495.339.871.773 1.13 1.302.264.529.396 1.112.396 1.75 0 .922-.204 1.702-.61 2.339-.4.631-.967 1.112-1.7 1.444-.732.326-1.593.489-2.583.489zm12.12-1.343c.447 0 .86-.092 1.24-.275.38-.183.692-.434.936-.752.245-.326.384-.695.417-1.109h1.79a3.357 3.357 0 01-.66 1.821 4.517 4.517 0 01-1.577 1.353 4.576 4.576 0 01-2.146.508c-.828 0-1.55-.146-2.167-.437a4.297 4.297 0 01-1.526-1.201 5.35 5.35 0 01-.905-1.749 7.391 7.391 0 01-.295-2.106v-.427c0-.739.098-1.438.295-2.095a5.346 5.346 0 01.905-1.76 4.283 4.283 0 011.526-1.2c.617-.292 1.34-.438 2.167-.438.86 0 1.614.177 2.258.529.644.346 1.15.821 1.516 1.424.372.597.576 1.275.61 2.035h-1.79a2.708 2.708 0 00-.387-1.231 2.412 2.412 0 00-.895-.875c-.373-.224-.81-.336-1.312-.336-.577 0-1.062.116-1.455.346a2.548 2.548 0 00-.926.916 4.264 4.264 0 00-.488 1.271 7 7 0 00-.142 1.414v.427c0 .482.047.956.142 1.424.095.468.255.892.478 1.272.23.38.54.685.926.915.393.224.882.336 1.465.336zm11.275 1.546c-.766 0-1.461-.129-2.085-.386a4.732 4.732 0 01-1.597-1.109 4.937 4.937 0 01-1.017-1.689 6.194 6.194 0 01-.356-2.136v-.427c0-.895.132-1.692.396-2.39.265-.706.624-1.302 1.079-1.791.454-.488.97-.857 1.546-1.108a4.44 4.44 0 011.79-.377c.787 0 1.465.136 2.034.407a3.708 3.708 0 011.414 1.139c.366.482.638 1.052.814 1.709.176.651.264 1.363.264 2.136v.845H65.19v-1.536h6.337v-.143a4.693 4.693 0 00-.305-1.424 2.558 2.558 0 00-.814-1.139c-.373-.298-.882-.448-1.526-.448a2.563 2.563 0 00-2.106 1.068 4.007 4.007 0 00-.6 1.292c-.142.509-.213 1.095-.213 1.76v.427c0 .522.07 1.014.213 1.475.15.455.363.855.641 1.2.285.346.627.618 1.027.814.407.197.868.295 1.384.295.664 0 1.227-.135 1.688-.407a4.182 4.182 0 001.21-1.088l1.14.905c-.237.36-.54.702-.905 1.028a4.32 4.32 0 01-1.353.793c-.53.203-1.156.305-1.882.305zm13.945-9.094v13.122h-1.892v-15.237h1.73l.162 2.115zm7.416 3.296v.214a8.3 8.3 0 01-.285 2.227 5.459 5.459 0 01-.834 1.77 3.8 3.8 0 01-1.333 1.17c-.529.278-1.136.417-1.82.417-.699 0-1.316-.115-1.852-.346A3.643 3.643 0 0183 158.418a5.127 5.127 0 01-.895-1.587 9.183 9.183 0 01-.448-2.085v-1.139a9.565 9.565 0 01.458-2.187c.224-.644.519-1.193.885-1.648.373-.461.824-.81 1.353-1.048.529-.244 1.14-.366 1.83-.366.693 0 1.306.136 1.842.407a3.71 3.71 0 011.353 1.139c.366.495.64 1.089.824 1.78.19.685.285 1.448.285 2.289zm-1.892.214v-.214c0-.549-.058-1.064-.173-1.546a3.917 3.917 0 00-.54-1.282 2.564 2.564 0 00-.915-.874c-.373-.217-.817-.326-1.332-.326-.475 0-.889.081-1.241.244a2.684 2.684 0 00-.885.661 3.533 3.533 0 00-.6.936c-.15.346-.261.705-.336 1.078v2.635c.135.475.325.922.57 1.343.244.413.57.749.976 1.007.407.251.919.376 1.536.376.509 0 .946-.105 1.312-.315.373-.217.678-.512.916-.885.244-.373.423-.8.539-1.282a6.758 6.758 0 00.173-1.556zm10.99 3.499v-5.666c0-.434-.088-.81-.264-1.129a1.737 1.737 0 00-.773-.753c-.346-.176-.773-.264-1.282-.264-.475 0-.892.081-1.251.244-.353.163-.63.376-.834.641a1.402 1.402 0 00-.295.854h-1.882c0-.393.102-.783.305-1.169.204-.387.495-.736.875-1.048.386-.319.848-.57 1.383-.753a5.45 5.45 0 011.81-.285c.801 0 1.506.136 2.117.407a3.17 3.17 0 011.444 1.231c.353.542.529 1.224.529 2.045v5.126c0 .366.031.756.092 1.17.067.414.166.77.295 1.068v.163h-1.964a3.507 3.507 0 01-.223-.865 6.961 6.961 0 01-.082-1.017zm.326-4.791l.02 1.322h-1.902c-.536 0-1.014.044-1.434.133-.42.081-.773.206-1.058.376a1.783 1.783 0 00-.651.641 1.7 1.7 0 00-.224.885c0 .346.078.661.234.946.156.284.39.512.702.681.319.163.709.244 1.17.244.576 0 1.085-.122 1.525-.366a3.17 3.17 0 001.048-.895c.265-.353.407-.695.427-1.027l.804.905c-.048.285-.176.6-.387.946a4.55 4.55 0 01-2.085 1.78 4.05 4.05 0 01-1.607.305c-.746 0-1.4-.146-1.963-.437a3.362 3.362 0 01-1.302-1.17 3.097 3.097 0 01-.458-1.658c0-.59.115-1.109.346-1.556.23-.455.563-.831.997-1.129.434-.306.956-.536 1.566-.692a8.262 8.262 0 012.045-.234h2.187zm9.892 1.831h-3.611l-.021-1.506h2.95c.583 0 1.068-.057 1.455-.172.393-.116.688-.289.885-.519.196-.231.295-.516.295-.855 0-.264-.058-.495-.173-.691a1.26 1.26 0 00-.499-.499 2.46 2.46 0 00-.834-.295 5.679 5.679 0 00-1.149-.101h-2.411v9.48h-1.882v-11.006h4.293a8.82 8.82 0 011.882.183c.562.122 1.041.308 1.434.559.4.244.705.556.915.936.211.38.316.827.316 1.343 0 .332-.068.647-.204.946a2.304 2.304 0 01-.6.793c-.264.231-.59.421-.976.57a5.026 5.026 0 01-1.333.274l-.732.56zm0 4.842h-4.293l.936-1.526h3.357c.522 0 .956-.064 1.302-.193.346-.136.603-.326.773-.57.176-.251.264-.549.264-.895s-.088-.641-.264-.885c-.17-.251-.427-.441-.773-.57-.346-.135-.78-.203-1.302-.203h-2.859l.021-1.506h3.57l.682.57c.603.048 1.115.197 1.536.448.42.251.739.569.956.956.217.38.325.793.325 1.241 0 .515-.098.969-.295 1.363-.19.393-.468.722-.834.986-.366.258-.81.455-1.332.59a7.408 7.408 0 01-1.77.194zm14.428-6.236v1.526h-5.818v-1.526h5.818zm-5.421-4.77v11.006h-1.882v-11.006h1.882zm6.947 0v11.006h-1.892v-11.006h1.892zm2.741 5.625v-.234c0-.794.116-1.529.346-2.207a5.258 5.258 0 01.997-1.781 4.445 4.445 0 011.577-1.179c.617-.285 1.308-.428 2.075-.428.773 0 1.468.143 2.085.428a4.429 4.429 0 011.587 1.179c.44.502.776 1.096 1.007 1.781.23.678.346 1.413.346 2.207v.234a6.83 6.83 0 01-.346 2.207 5.297 5.297 0 01-1.007 1.78c-.434.502-.96.895-1.577 1.18-.61.278-1.302.417-2.075.417-.773 0-1.468-.139-2.085-.417a4.722 4.722 0 01-1.587-1.18 5.38 5.38 0 01-.997-1.78 6.83 6.83 0 01-.346-2.207zm1.882-.234v.234c0 .549.064 1.068.193 1.556.129.482.322.909.58 1.282.265.373.593.668.987.885.393.21.851.315 1.373.315.515 0 .966-.105 1.353-.315.393-.217.719-.512.976-.885.258-.373.451-.8.58-1.282a5.774 5.774 0 00.204-1.556v-.234c0-.543-.068-1.055-.204-1.536a3.951 3.951 0 00-.59-1.292 2.796 2.796 0 00-.976-.895c-.387-.217-.841-.326-1.363-.326-.516 0-.97.109-1.363.326a2.926 2.926 0 00-.977.895 4.085 4.085 0 00-.58 1.292 5.908 5.908 0 00-.193 1.536zm20.486 4.272c.447 0 .861-.092 1.241-.275.38-.183.692-.434.936-.752a2.1 2.1 0 00.417-1.109h1.79a3.357 3.357 0 01-.661 1.821 4.517 4.517 0 01-1.577 1.353 4.574 4.574 0 01-2.146.508c-.827 0-1.55-.146-2.167-.437a4.3 4.3 0 01-1.526-1.201 5.364 5.364 0 01-.905-1.749 7.377 7.377 0 01-.295-2.106v-.427c0-.739.098-1.438.295-2.095a5.359 5.359 0 01.905-1.76 4.287 4.287 0 011.526-1.2c.617-.292 1.34-.438 2.167-.438.861 0 1.614.177 2.258.529a3.896 3.896 0 011.516 1.424c.373.597.576 1.275.61 2.035h-1.79a2.707 2.707 0 00-.387-1.231 2.41 2.41 0 00-.895-.875c-.373-.224-.81-.336-1.312-.336-.577 0-1.061.116-1.455.346a2.546 2.546 0 00-.925.916 4.265 4.265 0 00-.489 1.271 6.992 6.992 0 00-.142 1.414v.427c0 .482.047.956.142 1.424.095.468.255.892.478 1.272.231.38.54.685.926.915.393.224.882.336 1.465.336zm8.753-9.663v11.006h-1.882v-11.006h1.882zm7.222 0l-5.219 6.306h-2.634l-.285-1.648h2.157l3.692-4.658h2.289zm-2.025 11.006l-4.048-4.985 1.21-1.363 5.229 6.348h-2.391zm10.726-1.882v-5.666c0-.434-.088-.81-.264-1.129a1.739 1.739 0 00-.773-.753c-.346-.176-.773-.264-1.282-.264-.474 0-.891.081-1.251.244a2.177 2.177 0 00-.834.641 1.4 1.4 0 00-.295.854h-1.882c0-.393.102-.783.305-1.169.204-.387.495-.736.875-1.048.387-.319.848-.57 1.384-.753a5.446 5.446 0 011.81-.285c.8 0 1.506.136 2.116.407a3.165 3.165 0 011.444 1.231c.353.542.529 1.224.529 2.045v5.126c0 .366.031.756.092 1.17.068.414.166.77.295 1.068v.163h-1.963a3.497 3.497 0 01-.224-.865 7.009 7.009 0 01-.082-1.017zm.326-4.791l.02 1.322h-1.902c-.536 0-1.014.044-1.434.133-.42.081-.773.206-1.058.376a1.78 1.78 0 00-.651.641 1.702 1.702 0 00-.224.885c0 .346.078.661.234.946.156.284.39.512.702.681.319.163.709.244 1.17.244.576 0 1.085-.122 1.526-.366.44-.244.79-.542 1.047-.895.265-.353.407-.695.428-1.027l.803.905c-.047.285-.176.6-.386.946a4.542 4.542 0 01-2.086 1.78c-.474.203-1.01.305-1.607.305-.746 0-1.4-.146-1.963-.437a3.363 3.363 0 01-1.302-1.17 3.099 3.099 0 01-.458-1.658c0-.59.116-1.109.346-1.556a3 3 0 01.997-1.129c.434-.306.956-.536 1.566-.692a8.268 8.268 0 012.045-.234h2.187zm13.025-4.333v11.006h-1.882v-11.006h1.882zm-.641 5.055v1.546c-.38.143-.766.272-1.16.387a10.73 10.73 0 01-1.23.264 9.894 9.894 0 01-1.394.092c-.868 0-1.621-.149-2.258-.448a3.29 3.29 0 01-1.475-1.373c-.346-.617-.519-1.393-.519-2.329v-3.215h1.882v3.215c0 .61.092 1.105.275 1.485a1.8 1.8 0 00.803.844c.353.176.784.265 1.292.265.488 0 .946-.031 1.373-.092.434-.068.848-.156 1.241-.264.4-.109.79-.234 1.17-.377zm10.37 4.069v-5.666c0-.434-.088-.81-.264-1.129a1.744 1.744 0 00-.773-.753c-.346-.176-.773-.264-1.282-.264-.475 0-.892.081-1.251.244a2.17 2.17 0 00-.834.641 1.4 1.4 0 00-.295.854h-1.882c0-.393.102-.783.305-1.169.204-.387.495-.736.875-1.048.386-.319.848-.57 1.383-.753a5.453 5.453 0 011.811-.285c.8 0 1.505.136 2.116.407a3.17 3.17 0 011.444 1.231c.353.542.529 1.224.529 2.045v5.126c0 .366.03.756.091 1.17.068.414.167.77.295 1.068v.163h-1.963a3.501 3.501 0 01-.223-.865 6.87 6.87 0 01-.082-1.017zm.326-4.791l.02 1.322h-1.902c-.536 0-1.014.044-1.434.133-.421.081-.773.206-1.058.376a1.78 1.78 0 00-.651.641 1.702 1.702 0 00-.224.885c0 .346.078.661.234.946.156.284.39.512.702.681.318.163.708.244 1.17.244.576 0 1.085-.122 1.525-.366.441-.244.79-.542 1.048-.895.264-.353.407-.695.427-1.027l.804.905c-.048.285-.177.6-.387.946a4.51 4.51 0 01-.844.997 4.544 4.544 0 01-1.241.783 4.05 4.05 0 01-1.607.305c-.746 0-1.4-.146-1.963-.437a3.363 3.363 0 01-1.302-1.17 3.099 3.099 0 01-.458-1.658c0-.59.115-1.109.346-1.556.23-.455.563-.831.997-1.129.434-.306.956-.536 1.566-.692a8.262 8.262 0 012.045-.234h2.187zm9.047-4.333v11.006h-1.892v-11.006h1.892zm3.693 0v1.526h-9.206v-1.526h9.206zm3.605 3.784h3.306c.889 0 1.638.156 2.248.468.611.305 1.072.729 1.384 1.271.318.536.478 1.146.478 1.831 0 .509-.088.987-.265 1.434-.176.441-.44.828-.793 1.16a3.674 3.674 0 01-1.292.783c-.509.183-1.095.275-1.76.275h-4.679v-11.006h1.882v9.46h2.797c.543 0 .977-.099 1.302-.295.326-.197.56-.451.702-.763a2.32 2.32 0 00.214-.977c0-.332-.071-.658-.214-.976a1.826 1.826 0 00-.702-.794c-.325-.217-.759-.325-1.302-.325h-3.306v-1.546zm28.003 1.912v.214c0 .773-.084 1.485-.254 2.136a5.097 5.097 0 01-.763 1.678 3.531 3.531 0 01-1.241 1.109c-.495.257-1.068.386-1.719.386-.536 0-1.007-.071-1.414-.213a2.872 2.872 0 01-1.037-.641 3.23 3.23 0 01-.672-.997 5.13 5.13 0 01-.335-1.322v-4.883c.061-.522.173-.99.335-1.404.17-.413.394-.766.672-1.057a2.864 2.864 0 011.027-.672c.4-.156.868-.234 1.404-.234.529 0 1.003.095 1.424.285.427.183.8.448 1.119.794.325.345.593.762.803 1.251a6.96 6.96 0 01.489 1.627c.108.604.162 1.251.162 1.943zm-1.881.214v-.214c0-.475-.034-.926-.102-1.353a5.586 5.586 0 00-.295-1.19 3.385 3.385 0 00-.509-.956 2.196 2.196 0 00-.763-.631 2.18 2.18 0 00-1.007-.224c-.407 0-.746.051-1.017.153a1.546 1.546 0 00-.62.407c-.15.163-.258.336-.326.519v6.377c.082.15.2.292.356.428.156.128.366.237.631.325.264.082.597.122.997.122.474 0 .878-.095 1.21-.285.339-.196.614-.468.824-.813.217-.346.373-.746.468-1.201a6.67 6.67 0 00.153-1.464zm-11.19 0v-.214c0-.692.055-1.339.163-1.943a6.96 6.96 0 01.488-1.627 4.53 4.53 0 01.804-1.251 3.374 3.374 0 011.119-.794 3.49 3.49 0 011.434-.285c.522 0 .977.078 1.363.234.393.156.726.38.997.672.271.291.488.644.651 1.057.163.414.278.882.346 1.404v4.689c-.061.516-.173.98-.336 1.394-.163.414-.38.77-.651 1.068a2.676 2.676 0 01-1.007.671c-.393.156-.854.234-1.383.234-.651 0-1.224-.129-1.719-.386a3.623 3.623 0 01-1.251-1.109 5.354 5.354 0 01-.763-1.678 8.44 8.44 0 01-.255-2.136zm1.892-.214v.214c0 .522.044 1.01.133 1.464.095.455.24.855.437 1.201.203.345.468.617.793.813.326.19.726.285 1.201.285.407 0 .742-.051 1.007-.152.264-.102.474-.234.63-.397.156-.163.275-.332.356-.509v-6.194a1.5 1.5 0 00-.335-.519 1.543 1.543 0 00-.621-.407c-.264-.102-.603-.153-1.017-.153-.475 0-.878.116-1.21.346a2.501 2.501 0 00-.804.946c-.197.4-.342.865-.437 1.394a9.926 9.926 0 00-.133 1.668zm3.622 9.541v-19.855h1.892v19.855h-1.892zm16.717-6.113v-5.666c0-.434-.088-.81-.265-1.129a1.734 1.734 0 00-.773-.753c-.345-.176-.773-.264-1.281-.264-.475 0-.892.081-1.251.244a2.18 2.18 0 00-.835.641 1.407 1.407 0 00-.295.854h-1.881c0-.393.101-.783.305-1.169a3.41 3.41 0 01.875-1.048c.386-.319.847-.57 1.383-.753a5.453 5.453 0 011.811-.285c.8 0 1.505.136 2.115.407a3.173 3.173 0 011.445 1.231c.352.542.529 1.224.529 2.045v5.126c0 .366.03.756.091 1.17.068.414.166.77.295 1.068v.163h-1.963a3.542 3.542 0 01-.224-.865 7 7 0 01-.081-1.017zm.325-4.791l.021 1.322h-1.902c-.536 0-1.014.044-1.435.133-.42.081-.773.206-1.057.376a1.79 1.79 0 00-.652.641 1.701 1.701 0 00-.223.885c0 .346.078.661.234.946.156.284.39.512.702.681.318.163.708.244 1.169.244.577 0 1.085-.122 1.526-.366.441-.244.79-.542 1.048-.895.264-.353.407-.695.427-1.027l.804.905c-.048.285-.177.6-.387.946a4.537 4.537 0 01-2.085 1.78 4.053 4.053 0 01-1.607.305c-.746 0-1.401-.146-1.964-.437a3.363 3.363 0 01-1.302-1.17 3.098 3.098 0 01-.457-1.658c0-.59.115-1.109.346-1.556a2.99 2.99 0 01.996-1.129c.434-.306.957-.536 1.567-.692a8.26 8.26 0 012.044-.234h2.187zm6.759 3.692l5.076-8.025h1.892v11.006h-1.892v-8.026l-5.076 8.026h-1.871v-11.006h1.871v8.025zm4.049-12.013h1.526a2.72 2.72 0 01-.367 1.414 2.51 2.51 0 01-1.047.956c-.455.231-.994.346-1.618.346-.942 0-1.688-.251-2.237-.752-.543-.509-.814-1.163-.814-1.964h1.526c0 .4.115.753.345 1.058.231.305.624.458 1.18.458.543 0 .929-.153 1.16-.458.231-.305.346-.658.346-1.058zm13.503 3.988v1.556h-5.32v-1.556h5.32zm1.658 0v11.006h-1.882v-11.006h1.882zm-7.436 0h1.892l-.285 5.309a19.413 19.413 0 01-.234 2.177 7.38 7.38 0 01-.427 1.607c-.176.448-.4.814-.671 1.099a2.455 2.455 0 01-.956.62 3.95 3.95 0 01-1.292.194h-.59v-1.658l.407-.031c.291-.02.539-.088.742-.203.211-.116.387-.285.529-.509.143-.23.258-.525.346-.885.095-.359.166-.786.214-1.281a25.99 25.99 0 00.122-1.73l.203-4.709zm15.685.091v-1.231c0-.413.068-.844.203-1.291.143-.455.346-.889.611-1.302.264-.421.583-.784.956-1.089l1.068.743a5.83 5.83 0 00-.722 1.383c-.17.468-.255.977-.255 1.526v1.261h-1.861zm3.204 0v-1.231c0-.413.068-.844.203-1.291.143-.455.346-.889.611-1.302.264-.421.583-.784.956-1.089l1.068.743a5.83 5.83 0 00-.722 1.383c-.17.468-.255.977-.255 1.526v1.261h-1.861zm10.482 5.107h-3.957v-1.597h3.957c.766 0 1.387-.122 1.861-.367.475-.244.821-.583 1.038-1.017.224-.434.336-.929.336-1.485a3.16 3.16 0 00-.336-1.434c-.217-.448-.563-.807-1.038-1.078-.474-.278-1.095-.417-1.861-.417h-3.499v13.203h-1.963v-14.811h5.462c1.119 0 2.065.194 2.838.58.773.387 1.36.922 1.76 1.607.4.679.6 1.455.6 2.33 0 .949-.2 1.759-.6 2.431-.4.671-.987 1.183-1.76 1.536-.773.346-1.719.519-2.838.519zm6.962.427v-.234c0-.794.116-1.529.346-2.207a5.258 5.258 0 01.997-1.781c.434-.508.96-.901 1.577-1.179.617-.285 1.309-.428 2.075-.428.773 0 1.468.143 2.085.428a4.429 4.429 0 011.587 1.179 5.163 5.163 0 011.007 1.781c.23.678.346 1.413.346 2.207v.234a6.83 6.83 0 01-.346 2.207 5.28 5.28 0 01-1.007 1.78c-.434.502-.96.895-1.577 1.18-.61.278-1.302.417-2.075.417-.773 0-1.468-.139-2.085-.417a4.722 4.722 0 01-1.587-1.18 5.38 5.38 0 01-.997-1.78 6.83 6.83 0 01-.346-2.207zm1.882-.234v.234c0 .549.065 1.068.194 1.556.128.482.322.909.579 1.282.265.373.594.668.987.885.393.21.851.315 1.373.315.516 0 .967-.105 1.353-.315.393-.217.719-.512.977-.885.257-.373.451-.8.579-1.282a5.774 5.774 0 00.204-1.556v-.234c0-.543-.068-1.055-.204-1.536a3.93 3.93 0 00-.59-1.292 2.796 2.796 0 00-.976-.895c-.387-.217-.841-.326-1.363-.326-.516 0-.97.109-1.363.326a2.926 2.926 0 00-.977.895 4.084 4.084 0 00-.579 1.292 5.908 5.908 0 00-.194 1.536zm15.314-5.391v1.444h-5.951v-1.444h5.951zm-3.937-2.675h1.882v10.955c0 .373.058.654.173.844.115.19.265.315.448.376s.379.092.59.092c.156 0 .318-.014.488-.041.176-.034.308-.061.397-.081l.01 1.536a4.527 4.527 0 01-.59.132 4.535 4.535 0 01-.865.071 2.93 2.93 0 01-1.271-.274c-.387-.184-.695-.489-.926-.916-.224-.434-.336-1.017-.336-1.75v-10.944zm5.651 8.3v-.234c0-.794.115-1.529.345-2.207a5.258 5.258 0 01.997-1.781c.434-.508.96-.901 1.577-1.179.617-.285 1.309-.428 2.075-.428.773 0 1.468.143 2.085.428a4.429 4.429 0 011.587 1.179 5.147 5.147 0 011.007 1.781c.231.678.346 1.413.346 2.207v.234c0 .793-.115 1.529-.346 2.207a5.263 5.263 0 01-1.007 1.78 4.607 4.607 0 01-1.577 1.18c-.61.278-1.302.417-2.075.417-.773 0-1.468-.139-2.085-.417a4.722 4.722 0 01-1.587-1.18 5.38 5.38 0 01-.997-1.78 6.83 6.83 0 01-.345-2.207zm1.881-.234v.234c0 .549.065 1.068.194 1.556.129.482.322.909.579 1.282.265.373.594.668.987.885.393.21.851.315 1.373.315.516 0 .967-.105 1.353-.315.394-.217.719-.512.977-.885.257-.373.451-.8.58-1.282a5.814 5.814 0 00.203-1.556v-.234a5.66 5.66 0 00-.203-1.536 3.972 3.972 0 00-.59-1.292 2.808 2.808 0 00-.977-.895c-.386-.217-.841-.326-1.363-.326-.515 0-.97.109-1.363.326a2.926 2.926 0 00-.977.895c-.257.373-.45.804-.579 1.292a5.908 5.908 0 00-.194 1.536zm12.598-10.009v15.624h-1.892v-15.624h1.892zm6.724 4.618l-4.801 5.137-2.686 2.787-.152-2.004 1.922-2.299 3.418-3.621h2.299zm-1.719 11.006l-3.927-5.249.977-1.678 5.167 6.927h-2.217zm3.9-.997c0-.319.099-.587.295-.804.204-.223.495-.335.875-.335s.668.112.865.335c.203.217.305.485.305.804 0 .312-.102.576-.305.793-.197.217-.485.326-.865.326s-.671-.109-.875-.326a1.14 1.14 0 01-.295-.793zm12.161-.885v-5.666c0-.434-.088-.81-.265-1.129a1.734 1.734 0 00-.773-.753c-.346-.176-.773-.264-1.281-.264-.475 0-.892.081-1.252.244-.352.163-.63.376-.834.641a1.407 1.407 0 00-.295.854h-1.881c0-.393.101-.783.305-1.169a3.42 3.42 0 01.874-1.048c.387-.319.848-.57 1.384-.753a5.446 5.446 0 011.81-.285c.801 0 1.506.136 2.116.407a3.173 3.173 0 011.445 1.231c.352.542.529 1.224.529 2.045v5.126c0 .366.03.756.091 1.17.068.414.166.77.295 1.068v.163h-1.963a3.497 3.497 0 01-.224-.865 7 7 0 01-.081-1.017zm.325-4.791l.021 1.322h-1.903a6.97 6.97 0 00-1.434.133c-.42.081-.773.206-1.058.376a1.796 1.796 0 00-.651.641 1.701 1.701 0 00-.223.885c0 .346.078.661.233.946.156.284.39.512.702.681.319.163.709.244 1.17.244.577 0 1.085-.122 1.526-.366.441-.244.79-.542 1.048-.895.264-.353.406-.695.427-1.027l.803.905c-.047.285-.176.6-.386.946a4.537 4.537 0 01-2.085 1.78 4.055 4.055 0 01-1.608.305c-.745 0-1.4-.146-1.963-.437a3.363 3.363 0 01-1.302-1.17 3.098 3.098 0 01-.457-1.658c0-.59.115-1.109.345-1.556a3 3 0 01.997-1.129c.434-.306.956-.536 1.567-.692a8.26 8.26 0 012.044-.234h2.187zm6.607-2.218v13.122h-1.892v-15.237h1.729l.163 2.115zm7.415 3.296v.214a8.3 8.3 0 01-.285 2.227 5.467 5.467 0 01-.834 1.77 3.796 3.796 0 01-1.332 1.17c-.529.278-1.136.417-1.821.417-.699 0-1.316-.115-1.852-.346a3.649 3.649 0 01-1.363-1.007 5.13 5.13 0 01-.895-1.587 9.162 9.162 0 01-.447-2.085v-1.139a9.588 9.588 0 01.457-2.187c.224-.644.519-1.193.885-1.648.373-.461.824-.81 1.353-1.048.529-.244 1.14-.366 1.831-.366.692 0 1.306.136 1.841.407.536.265.987.644 1.353 1.139s.641 1.089.824 1.78c.19.685.285 1.448.285 2.289zm-1.892.214v-.214c0-.549-.058-1.064-.173-1.546a3.915 3.915 0 00-.539-1.282 2.562 2.562 0 00-.916-.874c-.372-.217-.817-.326-1.332-.326-.475 0-.888.081-1.241.244a2.684 2.684 0 00-.885.661 3.535 3.535 0 00-.6.936 5.416 5.416 0 00-.336 1.078v2.635c.136.475.326.922.57 1.343.244.413.569.749.976 1.007.407.251.919.376 1.536.376.509 0 .946-.105 1.312-.315.373-.217.679-.512.916-.885.244-.373.424-.8.539-1.282a6.77 6.77 0 00.173-1.556zm6.393-10.243v15.624h-1.892v-15.624h1.892zm6.723 4.618l-4.801 5.137-2.685 2.787-.153-2.004 1.923-2.299 3.418-3.621h2.298zm-1.719 11.006l-3.926-5.249.977-1.678 5.167 6.927h-2.218zm5.895-15.624v1.302c0 .407-.071.837-.214 1.292a5.336 5.336 0 01-.6 1.302 4.735 4.735 0 01-.956 1.088l-1.078-.743c.318-.447.559-.905.722-1.373a4.55 4.55 0 00.254-1.536v-1.332h1.872zm3.123 0v1.302c0 .407-.072.837-.214 1.292a5.411 5.411 0 01-.6 1.302 4.759 4.759 0 01-.956 1.088l-1.079-.743c.319-.447.56-.905.723-1.373a4.55 4.55 0 00.254-1.536v-1.332h1.872zm6.596 11.453h-1.892c.007-.651.064-1.183.173-1.597a3.43 3.43 0 01.559-1.149c.258-.346.6-.739 1.028-1.18.312-.319.596-.617.854-.895a3.91 3.91 0 00.641-.916c.163-.332.244-.729.244-1.19 0-.468-.085-.871-.254-1.21a1.75 1.75 0 00-.733-.784c-.318-.183-.715-.274-1.19-.274a2.97 2.97 0 00-1.119.213 1.928 1.928 0 00-.854.662c-.217.291-.329.674-.336 1.149h-1.882c.014-.766.204-1.424.57-1.973.373-.55.875-.97 1.506-1.262.63-.291 1.335-.437 2.115-.437.861 0 1.594.156 2.197.468a3.209 3.209 0 011.394 1.343c.319.576.478 1.261.478 2.054 0 .611-.125 1.173-.376 1.689-.244.508-.56.987-.946 1.434-.387.448-.797.875-1.231 1.282-.373.346-.624.736-.753 1.17a4.9 4.9 0 00-.193 1.403zm-1.973 3.225c0-.305.094-.563.284-.773.19-.211.465-.316.824-.316.366 0 .645.105.834.316.19.21.285.468.285.773 0 .291-.095.542-.285.752-.189.211-.468.316-.834.316-.359 0-.634-.105-.824-.316a1.082 1.082 0 01-.284-.752z" fill="#404040"/><path d="M193.982 204.722v.935c0 1.113-.139 2.109-.417 2.991-.278.882-.678 1.631-1.2 2.248a5.224 5.224 0 01-1.882 1.414c-.726.325-1.54.488-2.442.488a5.875 5.875 0 01-2.41-.488 5.418 5.418 0 01-1.892-1.414c-.529-.617-.939-1.366-1.231-2.248-.292-.882-.437-1.878-.437-2.991v-.935c0-1.112.142-2.106.427-2.981.291-.881.702-1.631 1.231-2.248a5.28 5.28 0 011.881-1.424 5.88 5.88 0 012.411-.488c.902 0 1.716.163 2.441.488.733.326 1.36.8 1.882 1.424.529.617.933 1.367 1.211 2.248.284.875.427 1.869.427 2.981zm-1.943.935v-.956c0-.881-.092-1.661-.275-2.339-.176-.678-.437-1.248-.783-1.709a3.393 3.393 0 00-1.271-1.048c-.495-.237-1.058-.356-1.689-.356-.61 0-1.163.119-1.658.356a3.515 3.515 0 00-1.261 1.048c-.346.461-.614 1.031-.804 1.709-.19.678-.285 1.458-.285 2.339v.956c0 .889.095 1.675.285 2.36.19.678.461 1.251.814 1.719.359.462.783.811 1.271 1.048a3.792 3.792 0 001.658.356c.638 0 1.204-.119 1.699-.356a3.307 3.307 0 001.251-1.048c.346-.468.607-1.041.784-1.719.176-.685.264-1.471.264-2.36zm9.709-4.068v11.006h-1.892v-11.006h1.892zm3.692 0v1.525h-9.206v-1.525h9.206zm8.803 8.503l3.743-8.503h1.811l-4.903 11.006h-1.302l-4.882-11.006h1.81l3.723 8.503zm-4.272-8.503v11.006h-1.882v-11.006h1.882zm8.483 11.006v-11.006h1.892v11.006h-1.892zm10.116.203c-.767 0-1.462-.129-2.086-.386a4.737 4.737 0 01-1.597-1.109 4.959 4.959 0 01-1.017-1.689 6.2 6.2 0 01-.356-2.136v-.427c0-.895.132-1.692.397-2.39a5.349 5.349 0 011.078-1.791c.454-.488.97-.857 1.546-1.108a4.441 4.441 0 011.79-.377c.787 0 1.465.136 2.035.407a3.71 3.71 0 011.414 1.139c.366.482.637 1.051.813 1.709.177.651.265 1.363.265 2.136v.845h-8.219v-1.536h6.337v-.143a4.7 4.7 0 00-.305-1.424 2.562 2.562 0 00-.814-1.139c-.373-.298-.881-.448-1.526-.448a2.558 2.558 0 00-2.105 1.068 3.99 3.99 0 00-.6 1.292c-.143.509-.214 1.095-.214 1.76v.427c0 .522.071 1.014.214 1.475.149.454.363.855.641 1.2.284.346.627.618 1.027.814.407.197.868.295 1.383.295.665 0 1.228-.135 1.689-.407a4.183 4.183 0 001.21-1.088l1.14.905c-.238.36-.54.702-.906 1.028-.366.325-.817.59-1.353.793-.529.203-1.156.305-1.881.305zm14.57-6.439v1.526h-5.818v-1.526h5.818zm-5.421-4.77v11.006h-1.882v-11.006h1.882zm6.947 0v11.006h-1.892v-11.006h1.892zm10.146 9.124v-5.666c0-.434-.088-.81-.265-1.129a1.734 1.734 0 00-.773-.753c-.345-.176-.773-.264-1.281-.264-.475 0-.892.081-1.251.244a2.18 2.18 0 00-.835.641 1.407 1.407 0 00-.295.854h-1.881c0-.393.101-.783.305-1.17.203-.386.495-.735.875-1.047.386-.319.847-.57 1.383-.753a5.448 5.448 0 011.811-.285c.8 0 1.505.136 2.115.407a3.173 3.173 0 011.445 1.231c.352.542.529 1.224.529 2.044v5.127c0 .366.03.756.091 1.17.068.414.166.77.295 1.068v.163h-1.963a3.554 3.554 0 01-.224-.865 7 7 0 01-.081-1.017zm.325-4.791l.021 1.322h-1.902c-.536 0-1.014.044-1.435.133-.42.081-.773.206-1.058.376a1.796 1.796 0 00-.651.641 1.701 1.701 0 00-.223.885c0 .346.078.661.234.946.156.284.39.512.701.681.319.163.709.244 1.17.244.577 0 1.085-.122 1.526-.366.441-.244.79-.542 1.048-.895.264-.353.407-.695.427-1.027l.804.905c-.048.285-.177.6-.387.946a4.537 4.537 0 01-2.085 1.78 4.053 4.053 0 01-1.607.305c-.746 0-1.401-.146-1.964-.437a3.363 3.363 0 01-1.302-1.17 3.098 3.098 0 01-.457-1.658c0-.59.115-1.109.346-1.556a2.99 2.99 0 01.996-1.129c.434-.306.957-.536 1.567-.692a8.26 8.26 0 012.044-.234h2.187zm60.555-.254h-3.754l-.02-1.577h3.407c.563 0 1.055-.095 1.475-.285.421-.19.746-.461.977-.814.237-.359.356-.786.356-1.281 0-.543-.105-.984-.316-1.323-.203-.345-.518-.596-.946-.752-.42-.163-.956-.244-1.607-.244h-2.889v13.203h-1.963v-14.811h4.852c.76 0 1.438.078 2.035.234.596.15 1.102.387 1.515.712.421.319.739.726.956 1.221.217.495.326 1.088.326 1.78 0 .61-.156 1.163-.468 1.658a3.598 3.598 0 01-1.302 1.2c-.549.312-1.193.512-1.933.601l-.701.478zm-.092 6.927h-4.435l1.109-1.597h3.326c.624 0 1.153-.109 1.587-.326a2.323 2.323 0 001.007-.915c.23-.4.346-.872.346-1.414 0-.549-.099-1.024-.295-1.424a2.045 2.045 0 00-.926-.926c-.42-.217-.963-.325-1.627-.325h-2.798l.021-1.577h3.824l.417.57c.712.061 1.316.264 1.811.61.495.339.871.773 1.129 1.302.264.529.397 1.112.397 1.749 0 .923-.204 1.703-.611 2.34-.4.631-.966 1.112-1.698 1.444-.733.326-1.594.489-2.584.489zm12.536-1.343a2.82 2.82 0 001.241-.275c.38-.183.692-.434.936-.752a2.1 2.1 0 00.417-1.109h1.79a3.357 3.357 0 01-.661 1.821 4.517 4.517 0 01-1.577 1.353 4.574 4.574 0 01-2.146.508c-.827 0-1.549-.146-2.166-.437a4.292 4.292 0 01-1.526-1.201 5.344 5.344 0 01-.905-1.749 7.377 7.377 0 01-.295-2.106v-.427c0-.739.098-1.438.295-2.095a5.34 5.34 0 01.905-1.76 4.278 4.278 0 011.526-1.2c.617-.292 1.339-.438 2.166-.438.861 0 1.614.177 2.258.529.645.346 1.15.821 1.516 1.424.373.597.576 1.275.61 2.035h-1.79a2.719 2.719 0 00-.386-1.231 2.412 2.412 0 00-.896-.875c-.373-.224-.81-.336-1.312-.336-.576 0-1.061.116-1.454.346a2.55 2.55 0 00-.926.916 4.237 4.237 0 00-.488 1.271 6.993 6.993 0 00-.143 1.414v.427c0 .482.048.956.143 1.424.095.468.254.892.478 1.272.23.38.539.685.925.915.394.224.882.336 1.465.336zm11.692 1.546c-.766 0-1.461-.129-2.085-.386a4.737 4.737 0 01-1.597-1.109 4.928 4.928 0 01-1.017-1.689 6.177 6.177 0 01-.356-2.136v-.427c0-.895.132-1.692.396-2.39.265-.706.624-1.302 1.079-1.791a4.611 4.611 0 011.546-1.108 4.438 4.438 0 011.79-.377c.787 0 1.465.136 2.034.407a3.703 3.703 0 011.414 1.139c.367.482.638 1.051.814 1.709.176.651.265 1.363.265 2.136v.845h-8.219v-1.536h6.337v-.143a4.7 4.7 0 00-.305-1.424 2.562 2.562 0 00-.814-1.139c-.373-.298-.882-.448-1.526-.448a2.566 2.566 0 00-2.105 1.068 4.012 4.012 0 00-.601 1.292c-.142.509-.213 1.095-.213 1.76v.427c0 .522.071 1.014.213 1.475.15.454.363.855.641 1.2.285.346.627.618 1.028.814.406.197.868.295 1.383.295.664 0 1.227-.135 1.688-.407a4.174 4.174 0 001.211-1.088l1.139.905c-.237.36-.539.702-.905 1.028-.366.325-.817.59-1.353.793-.529.203-1.156.305-1.882.305zm14.779-9.094v13.122h-1.892v-15.237h1.729l.163 2.115zm7.415 3.296v.214c0 .8-.095 1.542-.285 2.227a5.467 5.467 0 01-.834 1.77 3.788 3.788 0 01-1.332 1.17c-.529.278-1.136.417-1.821.417-.699 0-1.316-.115-1.851-.346a3.641 3.641 0 01-1.363-1.007 5.142 5.142 0 01-.896-1.587 9.162 9.162 0 01-.447-2.085v-1.139a9.533 9.533 0 01.458-2.187c.223-.644.518-1.194.885-1.648a3.64 3.64 0 011.352-1.048c.529-.244 1.14-.366 1.831-.366.692 0 1.306.136 1.841.407.536.265.987.644 1.353 1.139.367.495.641 1.089.824 1.78.19.685.285 1.448.285 2.289zm-1.892.214V207c0-.549-.058-1.065-.173-1.546a3.915 3.915 0 00-.539-1.282 2.56 2.56 0 00-.915-.874c-.373-.217-.818-.326-1.333-.326-.475 0-.888.081-1.241.244a2.684 2.684 0 00-.885.661 3.535 3.535 0 00-.6.936 5.416 5.416 0 00-.336 1.078v2.635c.136.475.326.922.57 1.343.244.413.57.749.976 1.007.407.251.919.376 1.536.376.509 0 .946-.105 1.313-.315.373-.217.678-.512.915-.885.244-.373.424-.8.539-1.282a6.77 6.77 0 00.173-1.556zm11.407 3.499v-5.666c0-.434-.088-.81-.264-1.129a1.739 1.739 0 00-.773-.753c-.346-.176-.773-.264-1.282-.264-.475 0-.892.081-1.251.244a2.17 2.17 0 00-.834.641 1.4 1.4 0 00-.295.854h-1.882c0-.393.102-.783.305-1.17.204-.386.495-.735.875-1.047.387-.319.848-.57 1.383-.753a5.453 5.453 0 011.811-.285c.8 0 1.505.136 2.116.407a3.17 3.17 0 011.444 1.231c.353.542.529 1.224.529 2.044v5.127c0 .366.031.756.092 1.17.067.414.166.77.295 1.068v.163h-1.964a3.559 3.559 0 01-.223-.865 6.87 6.87 0 01-.082-1.017zm.326-4.791l.02 1.322h-1.902c-.536 0-1.014.044-1.434.133-.421.081-.773.206-1.058.376a1.78 1.78 0 00-.651.641 1.702 1.702 0 00-.224.885c0 .346.078.661.234.946.156.284.39.512.702.681.319.163.709.244 1.17.244.576 0 1.085-.122 1.525-.366.441-.244.79-.542 1.048-.895.265-.353.407-.695.427-1.027l.804.905c-.047.285-.176.6-.387.946a4.51 4.51 0 01-.844.997 4.544 4.544 0 01-1.241.783c-.474.203-1.01.305-1.607.305-.746 0-1.4-.146-1.963-.437a3.363 3.363 0 01-1.302-1.17 3.099 3.099 0 01-.458-1.658c0-.59.115-1.109.346-1.556a3 3 0 01.997-1.129c.434-.306.956-.536 1.566-.692a8.268 8.268 0 012.045-.234h2.187zm10.308 1.831h-3.611l-.02-1.506h2.95c.583 0 1.068-.057 1.454-.172.394-.116.689-.289.885-.519.197-.231.295-.516.295-.855 0-.264-.057-.495-.173-.691a1.25 1.25 0 00-.498-.499 2.476 2.476 0 00-.834-.295 5.687 5.687 0 00-1.149-.102h-2.411v9.481h-1.882v-11.006h4.293a8.81 8.81 0 011.881.183c.563.122 1.041.308 1.435.559.4.244.705.556.915.936.21.38.315.827.315 1.343a2.257 2.257 0 01-.803 1.739c-.265.231-.59.421-.977.57a5.01 5.01 0 01-1.332.274l-.733.56zm0 4.842h-4.292l.936-1.526h3.356c.523 0 .957-.065 1.302-.193.346-.136.604-.326.773-.57.177-.251.265-.549.265-.895s-.088-.641-.265-.885c-.169-.251-.427-.441-.773-.57-.345-.135-.779-.203-1.302-.203h-2.858l.02-1.506h3.571l.681.57c.604.048 1.116.197 1.536.448.421.251.739.569.956.956.217.38.326.793.326 1.241 0 .515-.098.969-.295 1.363-.19.393-.468.722-.834.986a4.057 4.057 0 01-1.333.59 7.396 7.396 0 01-1.77.194zm14.846-6.236v1.526h-5.819v-1.526h5.819zm-5.422-4.77v11.006h-1.882v-11.006h1.882zm6.947 0v11.006h-1.891v-11.006h1.891zm3.158 5.625v-.234c0-.794.116-1.529.346-2.207a5.258 5.258 0 01.997-1.781 4.46 4.46 0 011.577-1.18c.617-.284 1.308-.427 2.075-.427.773 0 1.468.143 2.085.427a4.443 4.443 0 011.587 1.18c.44.502.776 1.096 1.007 1.781.23.678.346 1.413.346 2.207v.234a6.83 6.83 0 01-.346 2.207 5.297 5.297 0 01-1.007 1.78c-.434.502-.96.895-1.577 1.18-.61.278-1.302.417-2.075.417-.773 0-1.468-.139-2.085-.417a4.722 4.722 0 01-1.587-1.18 5.38 5.38 0 01-.997-1.78 6.83 6.83 0 01-.346-2.207zm1.882-.234v.234c0 .549.064 1.068.193 1.556.129.482.322.909.58 1.282.265.373.593.668.987.885.393.21.851.315 1.373.315.515 0 .966-.105 1.353-.315.393-.217.719-.512.976-.885.258-.373.451-.8.58-1.282a5.774 5.774 0 00.204-1.556v-.234c0-.543-.068-1.055-.204-1.536a3.951 3.951 0 00-.59-1.292 2.796 2.796 0 00-.976-.895c-.387-.217-.841-.326-1.363-.326-.516 0-.97.109-1.363.326a2.926 2.926 0 00-.977.895 4.085 4.085 0 00-.58 1.292 5.908 5.908 0 00-.193 1.536zm21.319 4.272a2.82 2.82 0 001.241-.275c.38-.183.692-.434.936-.752a2.1 2.1 0 00.417-1.109h1.79a3.357 3.357 0 01-.661 1.821 4.517 4.517 0 01-1.577 1.353 4.574 4.574 0 01-2.146.508c-.827 0-1.549-.146-2.166-.437a4.292 4.292 0 01-1.526-1.201 5.366 5.366 0 01-.906-1.749 7.412 7.412 0 01-.295-2.106v-.427c0-.739.099-1.438.295-2.095a5.361 5.361 0 01.906-1.76 4.278 4.278 0 011.526-1.2c.617-.292 1.339-.438 2.166-.438.861 0 1.614.177 2.258.529.645.346 1.15.821 1.516 1.424.373.597.576 1.275.61 2.035h-1.79a2.707 2.707 0 00-.387-1.231 2.41 2.41 0 00-.895-.875c-.373-.224-.81-.336-1.312-.336-.576 0-1.061.116-1.454.346a2.541 2.541 0 00-.926.916 4.237 4.237 0 00-.488 1.271 6.993 6.993 0 00-.143 1.414v.427c0 .482.048.956.143 1.424.095.468.254.892.478 1.272.23.38.539.685.925.915.394.224.882.336 1.465.336zm9.17-9.663v11.006h-1.882v-11.006h1.882zm7.222 0l-5.219 6.306h-2.634l-.285-1.648h2.156l3.693-4.658h2.289zm-2.025 11.006l-4.048-4.985 1.21-1.363 5.229 6.348h-2.391zm11.143-1.882v-5.666c0-.434-.088-.81-.264-1.129a1.744 1.744 0 00-.773-.753c-.346-.176-.774-.264-1.282-.264-.475 0-.892.081-1.251.244a2.17 2.17 0 00-.834.641 1.4 1.4 0 00-.295.854h-1.882c0-.393.102-.783.305-1.17.203-.386.495-.735.875-1.047.386-.319.847-.57 1.383-.753a5.453 5.453 0 011.811-.285c.8 0 1.505.136 2.116.407a3.17 3.17 0 011.444 1.231c.353.542.529 1.224.529 2.044v5.127c0 .366.03.756.091 1.17.068.414.167.77.295 1.068v.163h-1.963a3.554 3.554 0 01-.224-.865 7 7 0 01-.081-1.017zm.326-4.791l.02 1.322h-1.902c-.536 0-1.014.044-1.434.133-.421.081-.774.206-1.058.376a1.78 1.78 0 00-.651.641c-.15.251-.224.546-.224.885 0 .346.078.661.234.946.156.284.39.512.702.681.318.163.708.244 1.169.244.577 0 1.085-.122 1.526-.366.441-.244.79-.542 1.048-.895.264-.353.407-.695.427-1.027l.804.905c-.048.285-.177.6-.387.946a4.56 4.56 0 01-2.085 1.78 4.05 4.05 0 01-1.607.305c-.746 0-1.401-.146-1.963-.437a3.363 3.363 0 01-1.302-1.17 3.09 3.09 0 01-.458-1.658c0-.59.115-1.109.346-1.556.23-.455.563-.831.997-1.129.434-.306.956-.536 1.566-.692a8.262 8.262 0 012.045-.234h2.187zm13.441-4.333v11.006h-1.882v-11.006h1.882zm-.641 5.055v1.546c-.379.143-.766.272-1.159.387-.387.108-.797.196-1.231.264a9.884 9.884 0 01-1.394.092c-.868 0-1.62-.149-2.258-.448a3.29 3.29 0 01-1.475-1.373c-.346-.617-.519-1.394-.519-2.329v-3.215h1.882v3.215c0 .61.092 1.105.275 1.485.183.38.451.661.804.844.352.176.783.265 1.291.265.489 0 .946-.031 1.374-.092.434-.068.847-.156 1.241-.265.4-.108.79-.233 1.169-.376zm10.787 4.069v-5.666c0-.434-.088-.81-.264-1.129a1.741 1.741 0 00-.774-.753c-.345-.176-.773-.264-1.281-.264-.475 0-.892.081-1.251.244a2.17 2.17 0 00-.834.641 1.4 1.4 0 00-.295.854h-1.882c0-.393.101-.783.305-1.17.203-.386.495-.735.875-1.047.386-.319.847-.57 1.383-.753a5.453 5.453 0 011.811-.285c.8 0 1.505.136 2.115.407a3.168 3.168 0 011.445 1.231c.352.542.529 1.224.529 2.044v5.127c0 .366.03.756.091 1.17.068.414.166.77.295 1.068v.163h-1.963a3.554 3.554 0 01-.224-.865 7 7 0 01-.081-1.017zm.325-4.791l.021 1.322h-1.902c-.536 0-1.014.044-1.435.133-.42.081-.773.206-1.057.376a1.78 1.78 0 00-.651.641c-.15.251-.224.546-.224.885 0 .346.078.661.234.946.156.284.39.512.702.681.318.163.708.244 1.169.244.577 0 1.085-.122 1.526-.366.441-.244.79-.542 1.048-.895.264-.353.407-.695.427-1.027l.804.905c-.048.285-.177.6-.387.946a4.537 4.537 0 01-2.085 1.78 4.053 4.053 0 01-1.607.305c-.746 0-1.401-.146-1.963-.437a3.35 3.35 0 01-1.302-1.17 3.09 3.09 0 01-.458-1.658c0-.59.115-1.109.346-1.556a2.99 2.99 0 01.996-1.129c.435-.306.957-.536 1.567-.692a8.262 8.262 0 012.045-.234h2.186zm9.465-4.333v11.006h-1.892v-11.006h1.892zm3.692 0v1.525h-9.205v-1.525h9.205zm4.023 3.784h3.305c.889 0 1.638.156 2.248.468.611.305 1.072.729 1.384 1.271.319.536.478 1.146.478 1.831 0 .509-.088.987-.265 1.434-.176.441-.44.828-.793 1.16a3.665 3.665 0 01-1.292.783c-.508.183-1.095.275-1.76.275h-4.679v-11.006h1.882v9.46h2.797c.543 0 .977-.099 1.302-.295.326-.197.56-.451.702-.763a2.32 2.32 0 00.214-.977c0-.332-.071-.658-.214-.976a1.82 1.82 0 00-.702-.794c-.325-.217-.759-.325-1.302-.325h-3.305v-1.546z" fill="#235DB7"/><path d="M35.675 84h27.65c2.828 0 4.59-3.142 3.177-5.645L52.676 53.877a3.626 3.626 0 00-6.352 0L32.498 78.355c-1.413 2.503.35 5.645 3.177 5.645zM49.5 70.83c-1.01 0-1.836-.847-1.836-1.882v-3.763c0-1.035.826-1.882 1.836-1.882 1.01 0 1.836.847 1.836 1.882v3.763c0 1.035-.826 1.881-1.836 1.881zm1.836 7.525h-3.672v-3.763h3.672v3.763z" fill="#3985FA"/></svg>